G04 #@! TF.GenerationSoftware,KiCad,Pcbnew,(5.1.12-1-10_14)*
G04 #@! TF.CreationDate,2023-02-19T18:05:48+01:00*
G04 #@! TF.ProjectId,Kaefer_Konstanter_Tank,4b616566-6572-45f4-9b6f-6e7374616e74,rev?*
G04 #@! TF.SameCoordinates,Original*
G04 #@! TF.FileFunction,Profile,NP*
%FSLAX46Y46*%
G04 Gerber Fmt 4.6, Leading zero omitted, Abs format (unit mm)*
G04 Created by KiCad (PCBNEW (5.1.12-1-10_14)) date 2023-02-19 18:05:48*
%MOMM*%
%LPD*%
G01*
G04 APERTURE LIST*
G04 #@! TA.AperFunction,Profile*
%ADD10C,0.050000*%
G04 #@! TD*
G04 APERTURE END LIST*
D10*
X138684000Y-125476000D02*
X125984000Y-125476000D01*
X138684000Y-126746000D02*
X138684000Y-125476000D01*
X144272000Y-126746000D02*
X138684000Y-126746000D01*
X144272000Y-141478000D02*
X144272000Y-126746000D01*
X148590000Y-141478000D02*
X144272000Y-141478000D01*
X148590000Y-129540000D02*
X148590000Y-141478000D01*
X152908000Y-129540000D02*
X148590000Y-129540000D01*
X152908000Y-141478000D02*
X152908000Y-129540000D01*
X157734000Y-141478000D02*
X152908000Y-141478000D01*
X157734000Y-125476000D02*
X157734000Y-141478000D01*
X170942000Y-125476000D02*
X157734000Y-125476000D01*
X172720000Y-107950000D02*
X172720000Y-119380000D01*
X169672000Y-104902000D02*
X172720000Y-107950000D01*
X129286000Y-104902000D02*
X169672000Y-104902000D01*
X124206000Y-109982000D02*
X124206000Y-119380000D01*
X124206000Y-109982000D02*
X129286000Y-104902000D01*
X172720000Y-122428000D02*
X172720000Y-123698000D01*
X124206000Y-122428000D02*
X124206000Y-123698000D01*
X125222000Y-119380000D02*
X124206000Y-119380000D01*
X125222000Y-122428000D02*
X125222000Y-119380000D01*
X124206000Y-122428000D02*
X125222000Y-122428000D01*
X124206000Y-123698000D02*
X125984000Y-125476000D01*
X171704000Y-119380000D02*
X172720000Y-119380000D01*
X171704000Y-122428000D02*
X171704000Y-119380000D01*
X172720000Y-122428000D02*
X171704000Y-122428000D01*
X172720000Y-123698000D02*
X170942000Y-125476000D01*
M02*
