G04 #@! TF.GenerationSoftware,KiCad,Pcbnew,(5.1.0-0)*
G04 #@! TF.CreationDate,2021-09-25T20:45:45+02:00*
G04 #@! TF.ProjectId,Kaefer_Konstanter_Tank,4b616566-6572-45f4-9b6f-6e7374616e74,rev?*
G04 #@! TF.SameCoordinates,Original*
G04 #@! TF.FileFunction,Legend,Bot*
G04 #@! TF.FilePolarity,Positive*
%FSLAX46Y46*%
G04 Gerber Fmt 4.6, Leading zero omitted, Abs format (unit mm)*
G04 Created by KiCad (PCBNEW (5.1.0-0)) date 2021-09-25 20:45:45*
%MOMM*%
%LPD*%
G04 APERTURE LIST*
%ADD10C,0.120000*%
%ADD11C,0.150000*%
G04 APERTURE END LIST*
D10*
X136880000Y-76739420D02*
X136880000Y-77020580D01*
X137900000Y-76739420D02*
X137900000Y-77020580D01*
X136880000Y-80090580D02*
X136880000Y-79809420D01*
X137900000Y-80090580D02*
X137900000Y-79809420D01*
X122590580Y-79860000D02*
X122309420Y-79860000D01*
X122590580Y-80880000D02*
X122309420Y-80880000D01*
X135270000Y-73960580D02*
X135270000Y-73679420D01*
X136290000Y-73960580D02*
X136290000Y-73679420D01*
X118180000Y-79860000D02*
X118180000Y-78930000D01*
X118180000Y-76700000D02*
X118180000Y-77630000D01*
X118180000Y-76700000D02*
X120340000Y-76700000D01*
X118180000Y-79860000D02*
X119640000Y-79860000D01*
X119800000Y-83360000D02*
X118340000Y-83360000D01*
X119800000Y-86520000D02*
X117640000Y-86520000D01*
X119800000Y-86520000D02*
X119800000Y-85590000D01*
X119800000Y-83360000D02*
X119800000Y-84290000D01*
X122202742Y-78327500D02*
X122677258Y-78327500D01*
X122202742Y-79372500D02*
X122677258Y-79372500D01*
X136342500Y-80182258D02*
X136342500Y-79707742D01*
X135297500Y-80182258D02*
X135297500Y-79707742D01*
X119157258Y-80677500D02*
X118682742Y-80677500D01*
X119157258Y-81722500D02*
X118682742Y-81722500D01*
X136312500Y-76642742D02*
X136312500Y-77117258D01*
X135267500Y-76642742D02*
X135267500Y-77117258D01*
X149190000Y-87970000D02*
G75*
G03X149190000Y-87970000I-1370000J0D01*
G01*
X149190000Y-87970000D02*
X149260000Y-87970000D01*
X139710000Y-80370000D02*
X139710000Y-76770000D01*
X139721522Y-80408478D02*
G75*
G03X144160000Y-78570000I1838478J1838478D01*
G01*
X139721522Y-76731522D02*
G75*
G02X144160000Y-78570000I1838478J-1838478D01*
G01*
D11*
X126780000Y-81225000D02*
X126780000Y-81020000D01*
X132280000Y-81225000D02*
X132280000Y-80925000D01*
X132280000Y-75715000D02*
X132280000Y-76015000D01*
X126780000Y-75715000D02*
X126780000Y-76015000D01*
X126780000Y-81225000D02*
X132280000Y-81225000D01*
X126780000Y-75715000D02*
X132280000Y-75715000D01*
X126780000Y-81020000D02*
X125030000Y-81020000D01*
D10*
X122677258Y-76807500D02*
X122202742Y-76807500D01*
X122677258Y-77852500D02*
X122202742Y-77852500D01*
D11*
X137496666Y-73757142D02*
X137544285Y-73804761D01*
X137687142Y-73852380D01*
X137782380Y-73852380D01*
X137925238Y-73804761D01*
X138020476Y-73709523D01*
X138068095Y-73614285D01*
X138115714Y-73423809D01*
X138115714Y-73280952D01*
X138068095Y-73090476D01*
X138020476Y-72995238D01*
X137925238Y-72900000D01*
X137782380Y-72852380D01*
X137687142Y-72852380D01*
X137544285Y-72900000D01*
X137496666Y-72947619D01*
X136544285Y-73852380D02*
X137115714Y-73852380D01*
X136830000Y-73852380D02*
X136830000Y-72852380D01*
X136925238Y-72995238D01*
X137020476Y-73090476D01*
X137115714Y-73138095D01*
X137556666Y-75027142D02*
X137604285Y-75074761D01*
X137747142Y-75122380D01*
X137842380Y-75122380D01*
X137985238Y-75074761D01*
X138080476Y-74979523D01*
X138128095Y-74884285D01*
X138175714Y-74693809D01*
X138175714Y-74550952D01*
X138128095Y-74360476D01*
X138080476Y-74265238D01*
X137985238Y-74170000D01*
X137842380Y-74122380D01*
X137747142Y-74122380D01*
X137604285Y-74170000D01*
X137556666Y-74217619D01*
X137175714Y-74217619D02*
X137128095Y-74170000D01*
X137032857Y-74122380D01*
X136794761Y-74122380D01*
X136699523Y-74170000D01*
X136651904Y-74217619D01*
X136604285Y-74312857D01*
X136604285Y-74408095D01*
X136651904Y-74550952D01*
X137223333Y-75122380D01*
X136604285Y-75122380D01*
X122716666Y-76247142D02*
X122764285Y-76294761D01*
X122907142Y-76342380D01*
X123002380Y-76342380D01*
X123145238Y-76294761D01*
X123240476Y-76199523D01*
X123288095Y-76104285D01*
X123335714Y-75913809D01*
X123335714Y-75770952D01*
X123288095Y-75580476D01*
X123240476Y-75485238D01*
X123145238Y-75390000D01*
X123002380Y-75342380D01*
X122907142Y-75342380D01*
X122764285Y-75390000D01*
X122716666Y-75437619D01*
X122383333Y-75342380D02*
X121764285Y-75342380D01*
X122097619Y-75723333D01*
X121954761Y-75723333D01*
X121859523Y-75770952D01*
X121811904Y-75818571D01*
X121764285Y-75913809D01*
X121764285Y-76151904D01*
X121811904Y-76247142D01*
X121859523Y-76294761D01*
X121954761Y-76342380D01*
X122240476Y-76342380D01*
X122335714Y-76294761D01*
X122383333Y-76247142D01*
X135956666Y-71047142D02*
X136004285Y-71094761D01*
X136147142Y-71142380D01*
X136242380Y-71142380D01*
X136385238Y-71094761D01*
X136480476Y-70999523D01*
X136528095Y-70904285D01*
X136575714Y-70713809D01*
X136575714Y-70570952D01*
X136528095Y-70380476D01*
X136480476Y-70285238D01*
X136385238Y-70190000D01*
X136242380Y-70142380D01*
X136147142Y-70142380D01*
X136004285Y-70190000D01*
X135956666Y-70237619D01*
X135099523Y-70475714D02*
X135099523Y-71142380D01*
X135337619Y-70094761D02*
X135575714Y-70809047D01*
X134956666Y-70809047D01*
X119035238Y-73817619D02*
X119130476Y-73770000D01*
X119225714Y-73674761D01*
X119368571Y-73531904D01*
X119463809Y-73484285D01*
X119559047Y-73484285D01*
X119511428Y-73722380D02*
X119606666Y-73674761D01*
X119701904Y-73579523D01*
X119749523Y-73389047D01*
X119749523Y-73055714D01*
X119701904Y-72865238D01*
X119606666Y-72770000D01*
X119511428Y-72722380D01*
X119320952Y-72722380D01*
X119225714Y-72770000D01*
X119130476Y-72865238D01*
X119082857Y-73055714D01*
X119082857Y-73389047D01*
X119130476Y-73579523D01*
X119225714Y-73674761D01*
X119320952Y-73722380D01*
X119511428Y-73722380D01*
X118130476Y-73722380D02*
X118701904Y-73722380D01*
X118416190Y-73722380D02*
X118416190Y-72722380D01*
X118511428Y-72865238D01*
X118606666Y-72960476D01*
X118701904Y-73008095D01*
X119065238Y-76447619D02*
X119160476Y-76400000D01*
X119255714Y-76304761D01*
X119398571Y-76161904D01*
X119493809Y-76114285D01*
X119589047Y-76114285D01*
X119541428Y-76352380D02*
X119636666Y-76304761D01*
X119731904Y-76209523D01*
X119779523Y-76019047D01*
X119779523Y-75685714D01*
X119731904Y-75495238D01*
X119636666Y-75400000D01*
X119541428Y-75352380D01*
X119350952Y-75352380D01*
X119255714Y-75400000D01*
X119160476Y-75495238D01*
X119112857Y-75685714D01*
X119112857Y-76019047D01*
X119160476Y-76209523D01*
X119255714Y-76304761D01*
X119350952Y-76352380D01*
X119541428Y-76352380D01*
X118731904Y-75447619D02*
X118684285Y-75400000D01*
X118589047Y-75352380D01*
X118350952Y-75352380D01*
X118255714Y-75400000D01*
X118208095Y-75447619D01*
X118160476Y-75542857D01*
X118160476Y-75638095D01*
X118208095Y-75780952D01*
X118779523Y-76352380D01*
X118160476Y-76352380D01*
X122616666Y-75052380D02*
X122950000Y-74576190D01*
X123188095Y-75052380D02*
X123188095Y-74052380D01*
X122807142Y-74052380D01*
X122711904Y-74100000D01*
X122664285Y-74147619D01*
X122616666Y-74242857D01*
X122616666Y-74385714D01*
X122664285Y-74480952D01*
X122711904Y-74528571D01*
X122807142Y-74576190D01*
X123188095Y-74576190D01*
X122235714Y-74147619D02*
X122188095Y-74100000D01*
X122092857Y-74052380D01*
X121854761Y-74052380D01*
X121759523Y-74100000D01*
X121711904Y-74147619D01*
X121664285Y-74242857D01*
X121664285Y-74338095D01*
X121711904Y-74480952D01*
X122283333Y-75052380D01*
X121664285Y-75052380D01*
X136006666Y-82762380D02*
X136340000Y-82286190D01*
X136578095Y-82762380D02*
X136578095Y-81762380D01*
X136197142Y-81762380D01*
X136101904Y-81810000D01*
X136054285Y-81857619D01*
X136006666Y-81952857D01*
X136006666Y-82095714D01*
X136054285Y-82190952D01*
X136101904Y-82238571D01*
X136197142Y-82286190D01*
X136578095Y-82286190D01*
X135673333Y-81762380D02*
X135054285Y-81762380D01*
X135387619Y-82143333D01*
X135244761Y-82143333D01*
X135149523Y-82190952D01*
X135101904Y-82238571D01*
X135054285Y-82333809D01*
X135054285Y-82571904D01*
X135101904Y-82667142D01*
X135149523Y-82714761D01*
X135244761Y-82762380D01*
X135530476Y-82762380D01*
X135625714Y-82714761D01*
X135673333Y-82667142D01*
X119106666Y-75082380D02*
X119440000Y-74606190D01*
X119678095Y-75082380D02*
X119678095Y-74082380D01*
X119297142Y-74082380D01*
X119201904Y-74130000D01*
X119154285Y-74177619D01*
X119106666Y-74272857D01*
X119106666Y-74415714D01*
X119154285Y-74510952D01*
X119201904Y-74558571D01*
X119297142Y-74606190D01*
X119678095Y-74606190D01*
X118249523Y-74415714D02*
X118249523Y-75082380D01*
X118487619Y-74034761D02*
X118725714Y-74749047D01*
X118106666Y-74749047D01*
X135856666Y-72372380D02*
X136190000Y-71896190D01*
X136428095Y-72372380D02*
X136428095Y-71372380D01*
X136047142Y-71372380D01*
X135951904Y-71420000D01*
X135904285Y-71467619D01*
X135856666Y-71562857D01*
X135856666Y-71705714D01*
X135904285Y-71800952D01*
X135951904Y-71848571D01*
X136047142Y-71896190D01*
X136428095Y-71896190D01*
X134951904Y-71372380D02*
X135428095Y-71372380D01*
X135475714Y-71848571D01*
X135428095Y-71800952D01*
X135332857Y-71753333D01*
X135094761Y-71753333D01*
X134999523Y-71800952D01*
X134951904Y-71848571D01*
X134904285Y-71943809D01*
X134904285Y-72181904D01*
X134951904Y-72277142D01*
X134999523Y-72324761D01*
X135094761Y-72372380D01*
X135332857Y-72372380D01*
X135428095Y-72324761D01*
X135475714Y-72277142D01*
X147966666Y-75062380D02*
X148300000Y-74586190D01*
X148538095Y-75062380D02*
X148538095Y-74062380D01*
X148157142Y-74062380D01*
X148061904Y-74110000D01*
X148014285Y-74157619D01*
X147966666Y-74252857D01*
X147966666Y-74395714D01*
X148014285Y-74490952D01*
X148061904Y-74538571D01*
X148157142Y-74586190D01*
X148538095Y-74586190D01*
X147109523Y-74062380D02*
X147300000Y-74062380D01*
X147395238Y-74110000D01*
X147442857Y-74157619D01*
X147538095Y-74300476D01*
X147585714Y-74490952D01*
X147585714Y-74871904D01*
X147538095Y-74967142D01*
X147490476Y-75014761D01*
X147395238Y-75062380D01*
X147204761Y-75062380D01*
X147109523Y-75014761D01*
X147061904Y-74967142D01*
X147014285Y-74871904D01*
X147014285Y-74633809D01*
X147061904Y-74538571D01*
X147109523Y-74490952D01*
X147204761Y-74443333D01*
X147395238Y-74443333D01*
X147490476Y-74490952D01*
X147538095Y-74538571D01*
X147585714Y-74633809D01*
X142371904Y-74032380D02*
X142371904Y-74841904D01*
X142324285Y-74937142D01*
X142276666Y-74984761D01*
X142181428Y-75032380D01*
X141990952Y-75032380D01*
X141895714Y-74984761D01*
X141848095Y-74937142D01*
X141800476Y-74841904D01*
X141800476Y-74032380D01*
X141371904Y-74127619D02*
X141324285Y-74080000D01*
X141229047Y-74032380D01*
X140990952Y-74032380D01*
X140895714Y-74080000D01*
X140848095Y-74127619D01*
X140800476Y-74222857D01*
X140800476Y-74318095D01*
X140848095Y-74460952D01*
X141419523Y-75032380D01*
X140800476Y-75032380D01*
X130241904Y-74202380D02*
X130241904Y-75011904D01*
X130194285Y-75107142D01*
X130146666Y-75154761D01*
X130051428Y-75202380D01*
X129860952Y-75202380D01*
X129765714Y-75154761D01*
X129718095Y-75107142D01*
X129670476Y-75011904D01*
X129670476Y-74202380D01*
X129289523Y-74202380D02*
X128670476Y-74202380D01*
X129003809Y-74583333D01*
X128860952Y-74583333D01*
X128765714Y-74630952D01*
X128718095Y-74678571D01*
X128670476Y-74773809D01*
X128670476Y-75011904D01*
X128718095Y-75107142D01*
X128765714Y-75154761D01*
X128860952Y-75202380D01*
X129146666Y-75202380D01*
X129241904Y-75154761D01*
X129289523Y-75107142D01*
X122616666Y-73752380D02*
X122950000Y-73276190D01*
X123188095Y-73752380D02*
X123188095Y-72752380D01*
X122807142Y-72752380D01*
X122711904Y-72800000D01*
X122664285Y-72847619D01*
X122616666Y-72942857D01*
X122616666Y-73085714D01*
X122664285Y-73180952D01*
X122711904Y-73228571D01*
X122807142Y-73276190D01*
X123188095Y-73276190D01*
X122283333Y-72752380D02*
X121616666Y-72752380D01*
X122045238Y-73752380D01*
X150752380Y-76671904D02*
X149752380Y-76671904D01*
X150085714Y-77148095D02*
X150752380Y-77148095D01*
X150180952Y-77148095D02*
X150133333Y-77195714D01*
X150085714Y-77290952D01*
X150085714Y-77433809D01*
X150133333Y-77529047D01*
X150228571Y-77576666D01*
X150752380Y-77576666D01*
X150704761Y-78005238D02*
X150752380Y-78100476D01*
X150752380Y-78290952D01*
X150704761Y-78386190D01*
X150609523Y-78433809D01*
X150561904Y-78433809D01*
X150466666Y-78386190D01*
X150419047Y-78290952D01*
X150419047Y-78148095D01*
X150371428Y-78052857D01*
X150276190Y-78005238D01*
X150228571Y-78005238D01*
X150133333Y-78052857D01*
X150085714Y-78148095D01*
X150085714Y-78290952D01*
X150133333Y-78386190D01*
X150085714Y-78719523D02*
X150085714Y-79100476D01*
X149752380Y-78862380D02*
X150609523Y-78862380D01*
X150704761Y-78910000D01*
X150752380Y-79005238D01*
X150752380Y-79100476D01*
X150752380Y-79433809D02*
X150085714Y-79433809D01*
X150276190Y-79433809D02*
X150180952Y-79481428D01*
X150133333Y-79529047D01*
X150085714Y-79624285D01*
X150085714Y-79719523D01*
X150085714Y-80481428D02*
X150752380Y-80481428D01*
X150085714Y-80052857D02*
X150609523Y-80052857D01*
X150704761Y-80100476D01*
X150752380Y-80195714D01*
X150752380Y-80338571D01*
X150704761Y-80433809D01*
X150657142Y-80481428D01*
X150752380Y-80957619D02*
X150085714Y-80957619D01*
X150180952Y-80957619D02*
X150133333Y-81005238D01*
X150085714Y-81100476D01*
X150085714Y-81243333D01*
X150133333Y-81338571D01*
X150228571Y-81386190D01*
X150752380Y-81386190D01*
X150228571Y-81386190D02*
X150133333Y-81433809D01*
X150085714Y-81529047D01*
X150085714Y-81671904D01*
X150133333Y-81767142D01*
X150228571Y-81814761D01*
X150752380Y-81814761D01*
X150704761Y-82671904D02*
X150752380Y-82576666D01*
X150752380Y-82386190D01*
X150704761Y-82290952D01*
X150609523Y-82243333D01*
X150228571Y-82243333D01*
X150133333Y-82290952D01*
X150085714Y-82386190D01*
X150085714Y-82576666D01*
X150133333Y-82671904D01*
X150228571Y-82719523D01*
X150323809Y-82719523D01*
X150419047Y-82243333D01*
X150085714Y-83148095D02*
X150752380Y-83148095D01*
X150180952Y-83148095D02*
X150133333Y-83195714D01*
X150085714Y-83290952D01*
X150085714Y-83433809D01*
X150133333Y-83529047D01*
X150228571Y-83576666D01*
X150752380Y-83576666D01*
X150085714Y-83910000D02*
X150085714Y-84290952D01*
X149752380Y-84052857D02*
X150609523Y-84052857D01*
X150704761Y-84100476D01*
X150752380Y-84195714D01*
X150752380Y-84290952D01*
M02*
