G04 #@! TF.GenerationSoftware,KiCad,Pcbnew,(5.1.12-1-10_14)*
G04 #@! TF.CreationDate,2023-02-19T18:05:48+01:00*
G04 #@! TF.ProjectId,Kaefer_Konstanter_Tank,4b616566-6572-45f4-9b6f-6e7374616e74,rev?*
G04 #@! TF.SameCoordinates,Original*
G04 #@! TF.FileFunction,Legend,Top*
G04 #@! TF.FilePolarity,Positive*
%FSLAX46Y46*%
G04 Gerber Fmt 4.6, Leading zero omitted, Abs format (unit mm)*
G04 Created by KiCad (PCBNEW (5.1.12-1-10_14)) date 2023-02-19 18:05:48*
%MOMM*%
%LPD*%
G01*
G04 APERTURE LIST*
%ADD10C,0.120000*%
%ADD11C,0.150000*%
G04 APERTURE END LIST*
D10*
X143582000Y-118640000D02*
X143582000Y-115040000D01*
X143570478Y-115001522D02*
G75*
G03*
X139132000Y-116840000I-1838478J-1838478D01*
G01*
X143570478Y-118678478D02*
G75*
G02*
X139132000Y-116840000I-1838478J1838478D01*
G01*
X136440000Y-116840000D02*
G75*
G03*
X136440000Y-116840000I-4360000J0D01*
G01*
X150588000Y-122902000D02*
X150588000Y-121202000D01*
X150588000Y-117382000D02*
X150588000Y-119082000D01*
X146132437Y-117382000D02*
X150588000Y-117382000D01*
X146132437Y-122902000D02*
X150588000Y-122902000D01*
X145068000Y-121837563D02*
X145068000Y-121202000D01*
X145068000Y-118446437D02*
X145068000Y-119082000D01*
X145068000Y-118446437D02*
X146132437Y-117382000D01*
X145068000Y-121837563D02*
X146132437Y-122902000D01*
X144203000Y-118457000D02*
X144828000Y-118457000D01*
X144515500Y-118144500D02*
X144515500Y-118769500D01*
X150588000Y-116806000D02*
X150588000Y-115106000D01*
X150588000Y-111286000D02*
X150588000Y-112986000D01*
X146132437Y-111286000D02*
X150588000Y-111286000D01*
X146132437Y-116806000D02*
X150588000Y-116806000D01*
X145068000Y-115741563D02*
X145068000Y-115106000D01*
X145068000Y-112350437D02*
X145068000Y-112986000D01*
X145068000Y-112350437D02*
X146132437Y-111286000D01*
X145068000Y-115741563D02*
X146132437Y-116806000D01*
X144203000Y-112361000D02*
X144828000Y-112361000D01*
X144515500Y-112048500D02*
X144515500Y-112673500D01*
D11*
X137624380Y-117601904D02*
X138433904Y-117601904D01*
X138529142Y-117554285D01*
X138576761Y-117506666D01*
X138624380Y-117411428D01*
X138624380Y-117220952D01*
X138576761Y-117125714D01*
X138529142Y-117078095D01*
X138433904Y-117030476D01*
X137624380Y-117030476D01*
X137719619Y-116601904D02*
X137672000Y-116554285D01*
X137624380Y-116459047D01*
X137624380Y-116220952D01*
X137672000Y-116125714D01*
X137719619Y-116078095D01*
X137814857Y-116030476D01*
X137910095Y-116030476D01*
X138052952Y-116078095D01*
X138624380Y-116649523D01*
X138624380Y-116030476D01*
X148924857Y-128278000D02*
X148829619Y-128230380D01*
X148686761Y-128230380D01*
X148543904Y-128278000D01*
X148448666Y-128373238D01*
X148401047Y-128468476D01*
X148353428Y-128658952D01*
X148353428Y-128801809D01*
X148401047Y-128992285D01*
X148448666Y-129087523D01*
X148543904Y-129182761D01*
X148686761Y-129230380D01*
X148782000Y-129230380D01*
X148924857Y-129182761D01*
X148972476Y-129135142D01*
X148972476Y-128801809D01*
X148782000Y-128801809D01*
X149401047Y-129230380D02*
X149401047Y-128563714D01*
X149401047Y-128754190D02*
X149448666Y-128658952D01*
X149496285Y-128611333D01*
X149591523Y-128563714D01*
X149686761Y-128563714D01*
X150162952Y-129230380D02*
X150067714Y-129182761D01*
X150020095Y-129135142D01*
X149972476Y-129039904D01*
X149972476Y-128754190D01*
X150020095Y-128658952D01*
X150067714Y-128611333D01*
X150162952Y-128563714D01*
X150305809Y-128563714D01*
X150401047Y-128611333D01*
X150448666Y-128658952D01*
X150496285Y-128754190D01*
X150496285Y-129039904D01*
X150448666Y-129135142D01*
X150401047Y-129182761D01*
X150305809Y-129230380D01*
X150162952Y-129230380D01*
X151353428Y-128563714D02*
X151353428Y-129230380D01*
X150924857Y-128563714D02*
X150924857Y-129087523D01*
X150972476Y-129182761D01*
X151067714Y-129230380D01*
X151210571Y-129230380D01*
X151305809Y-129182761D01*
X151353428Y-129135142D01*
X151829619Y-128563714D02*
X151829619Y-129230380D01*
X151829619Y-128658952D02*
X151877238Y-128611333D01*
X151972476Y-128563714D01*
X152115333Y-128563714D01*
X152210571Y-128611333D01*
X152258190Y-128706571D01*
X152258190Y-129230380D01*
X153162952Y-129230380D02*
X153162952Y-128230380D01*
X153162952Y-129182761D02*
X153067714Y-129230380D01*
X152877238Y-129230380D01*
X152782000Y-129182761D01*
X152734380Y-129135142D01*
X152686761Y-129039904D01*
X152686761Y-128754190D01*
X152734380Y-128658952D01*
X152782000Y-128611333D01*
X152877238Y-128563714D01*
X153067714Y-128563714D01*
X153162952Y-128611333D01*
X170418380Y-118894095D02*
X169418380Y-118894095D01*
X169751714Y-118417904D02*
X170418380Y-118417904D01*
X169846952Y-118417904D02*
X169799333Y-118370285D01*
X169751714Y-118275047D01*
X169751714Y-118132190D01*
X169799333Y-118036952D01*
X169894571Y-117989333D01*
X170418380Y-117989333D01*
X170370761Y-117560761D02*
X170418380Y-117465523D01*
X170418380Y-117275047D01*
X170370761Y-117179809D01*
X170275523Y-117132190D01*
X170227904Y-117132190D01*
X170132666Y-117179809D01*
X170085047Y-117275047D01*
X170085047Y-117417904D01*
X170037428Y-117513142D01*
X169942190Y-117560761D01*
X169894571Y-117560761D01*
X169799333Y-117513142D01*
X169751714Y-117417904D01*
X169751714Y-117275047D01*
X169799333Y-117179809D01*
X169751714Y-116846476D02*
X169751714Y-116465523D01*
X169418380Y-116703619D02*
X170275523Y-116703619D01*
X170370761Y-116656000D01*
X170418380Y-116560761D01*
X170418380Y-116465523D01*
X170418380Y-116132190D02*
X169751714Y-116132190D01*
X169942190Y-116132190D02*
X169846952Y-116084571D01*
X169799333Y-116036952D01*
X169751714Y-115941714D01*
X169751714Y-115846476D01*
X169751714Y-115084571D02*
X170418380Y-115084571D01*
X169751714Y-115513142D02*
X170275523Y-115513142D01*
X170370761Y-115465523D01*
X170418380Y-115370285D01*
X170418380Y-115227428D01*
X170370761Y-115132190D01*
X170323142Y-115084571D01*
X170418380Y-114608380D02*
X169751714Y-114608380D01*
X169846952Y-114608380D02*
X169799333Y-114560761D01*
X169751714Y-114465523D01*
X169751714Y-114322666D01*
X169799333Y-114227428D01*
X169894571Y-114179809D01*
X170418380Y-114179809D01*
X169894571Y-114179809D02*
X169799333Y-114132190D01*
X169751714Y-114036952D01*
X169751714Y-113894095D01*
X169799333Y-113798857D01*
X169894571Y-113751238D01*
X170418380Y-113751238D01*
X170370761Y-112894095D02*
X170418380Y-112989333D01*
X170418380Y-113179809D01*
X170370761Y-113275047D01*
X170275523Y-113322666D01*
X169894571Y-113322666D01*
X169799333Y-113275047D01*
X169751714Y-113179809D01*
X169751714Y-112989333D01*
X169799333Y-112894095D01*
X169894571Y-112846476D01*
X169989809Y-112846476D01*
X170085047Y-113322666D01*
X169751714Y-112417904D02*
X170418380Y-112417904D01*
X169846952Y-112417904D02*
X169799333Y-112370285D01*
X169751714Y-112275047D01*
X169751714Y-112132190D01*
X169799333Y-112036952D01*
X169894571Y-111989333D01*
X170418380Y-111989333D01*
X169751714Y-111656000D02*
X169751714Y-111275047D01*
X169418380Y-111513142D02*
X170275523Y-111513142D01*
X170370761Y-111465523D01*
X170418380Y-111370285D01*
X170418380Y-111275047D01*
X139819142Y-126182380D02*
X139342952Y-126182380D01*
X139342952Y-125182380D01*
X140152476Y-125658571D02*
X140485809Y-125658571D01*
X140628666Y-126182380D02*
X140152476Y-126182380D01*
X140152476Y-125182380D01*
X140628666Y-125182380D01*
X141057238Y-126182380D02*
X141057238Y-125182380D01*
X141295333Y-125182380D01*
X141438190Y-125230000D01*
X141533428Y-125325238D01*
X141581047Y-125420476D01*
X141628666Y-125610952D01*
X141628666Y-125753809D01*
X141581047Y-125944285D01*
X141533428Y-126039523D01*
X141438190Y-126134761D01*
X141295333Y-126182380D01*
X141057238Y-126182380D01*
X152234761Y-109728380D02*
X152806190Y-109728380D01*
X152520476Y-110728380D02*
X152520476Y-109728380D01*
X153568095Y-110728380D02*
X153568095Y-110204571D01*
X153520476Y-110109333D01*
X153425238Y-110061714D01*
X153234761Y-110061714D01*
X153139523Y-110109333D01*
X153568095Y-110680761D02*
X153472857Y-110728380D01*
X153234761Y-110728380D01*
X153139523Y-110680761D01*
X153091904Y-110585523D01*
X153091904Y-110490285D01*
X153139523Y-110395047D01*
X153234761Y-110347428D01*
X153472857Y-110347428D01*
X153568095Y-110299809D01*
X154044285Y-110061714D02*
X154044285Y-110728380D01*
X154044285Y-110156952D02*
X154091904Y-110109333D01*
X154187142Y-110061714D01*
X154330000Y-110061714D01*
X154425238Y-110109333D01*
X154472857Y-110204571D01*
X154472857Y-110728380D01*
X154949047Y-110728380D02*
X154949047Y-109728380D01*
X155044285Y-110347428D02*
X155330000Y-110728380D01*
X155330000Y-110061714D02*
X154949047Y-110442666D01*
X132002095Y-110347428D02*
X132764000Y-110347428D01*
X132383047Y-110728380D02*
X132383047Y-109966476D01*
X133764000Y-110728380D02*
X133192571Y-110728380D01*
X133478285Y-110728380D02*
X133478285Y-109728380D01*
X133383047Y-109871238D01*
X133287809Y-109966476D01*
X133192571Y-110014095D01*
X134144952Y-109823619D02*
X134192571Y-109776000D01*
X134287809Y-109728380D01*
X134525904Y-109728380D01*
X134621142Y-109776000D01*
X134668761Y-109823619D01*
X134716380Y-109918857D01*
X134716380Y-110014095D01*
X134668761Y-110156952D01*
X134097333Y-110728380D01*
X134716380Y-110728380D01*
X135002095Y-109728380D02*
X135335428Y-110728380D01*
X135668761Y-109728380D01*
X130730666Y-121848571D02*
X130397333Y-121848571D01*
X130397333Y-122372380D02*
X130397333Y-121372380D01*
X130873523Y-121372380D01*
X131778285Y-122372380D02*
X131206857Y-122372380D01*
X131492571Y-122372380D02*
X131492571Y-121372380D01*
X131397333Y-121515238D01*
X131302095Y-121610476D01*
X131206857Y-121658095D01*
X147661333Y-124309142D02*
X147613714Y-124356761D01*
X147470857Y-124404380D01*
X147375619Y-124404380D01*
X147232761Y-124356761D01*
X147137523Y-124261523D01*
X147089904Y-124166285D01*
X147042285Y-123975809D01*
X147042285Y-123832952D01*
X147089904Y-123642476D01*
X147137523Y-123547238D01*
X147232761Y-123452000D01*
X147375619Y-123404380D01*
X147470857Y-123404380D01*
X147613714Y-123452000D01*
X147661333Y-123499619D01*
X148518476Y-123404380D02*
X148328000Y-123404380D01*
X148232761Y-123452000D01*
X148185142Y-123499619D01*
X148089904Y-123642476D01*
X148042285Y-123832952D01*
X148042285Y-124213904D01*
X148089904Y-124309142D01*
X148137523Y-124356761D01*
X148232761Y-124404380D01*
X148423238Y-124404380D01*
X148518476Y-124356761D01*
X148566095Y-124309142D01*
X148613714Y-124213904D01*
X148613714Y-123975809D01*
X148566095Y-123880571D01*
X148518476Y-123832952D01*
X148423238Y-123785333D01*
X148232761Y-123785333D01*
X148137523Y-123832952D01*
X148089904Y-123880571D01*
X148042285Y-123975809D01*
X147661333Y-110703142D02*
X147613714Y-110750761D01*
X147470857Y-110798380D01*
X147375619Y-110798380D01*
X147232761Y-110750761D01*
X147137523Y-110655523D01*
X147089904Y-110560285D01*
X147042285Y-110369809D01*
X147042285Y-110226952D01*
X147089904Y-110036476D01*
X147137523Y-109941238D01*
X147232761Y-109846000D01*
X147375619Y-109798380D01*
X147470857Y-109798380D01*
X147613714Y-109846000D01*
X147661333Y-109893619D01*
X148566095Y-109798380D02*
X148089904Y-109798380D01*
X148042285Y-110274571D01*
X148089904Y-110226952D01*
X148185142Y-110179333D01*
X148423238Y-110179333D01*
X148518476Y-110226952D01*
X148566095Y-110274571D01*
X148613714Y-110369809D01*
X148613714Y-110607904D01*
X148566095Y-110703142D01*
X148518476Y-110750761D01*
X148423238Y-110798380D01*
X148185142Y-110798380D01*
X148089904Y-110750761D01*
X148042285Y-110703142D01*
M02*
