M48
; DRILL file {KiCad (5.1.0-0)} date 2021 September 25, Saturday 20:45:48
; FORMAT={-:-/ absolute / inch / decimal}
; #@! TF.CreationDate,2021-09-25T20:45:48+02:00
; #@! TF.GenerationSoftware,Kicad,Pcbnew,(5.1.0-0)
; #@! TF.FileFunction,Plated,1,2,PTH
FMAT,2
INCH
T1C0.0157
T2C0.0295
T3C0.0315
T4C0.0433
T5C0.0689
%
G90
G05
T1
X4.4807Y-3.1941
X4.5217Y-2.9394
X4.6874Y-3.2524
X4.6882Y-3.0792
X4.9957Y-3.1142
X5.1457Y-3.1638
X5.2752Y-2.9087
X5.6831Y-2.9394
X5.8949Y-3.1425
X5.9039Y-3.2972
T2
X5.5732Y-3.0433
X5.5732Y-3.0933
X5.5732Y-3.1433
T3
X5.8197Y-3.4634
X5.9197Y-3.4634
T4
X5.82Y-3.0815
X5.82Y-3.1815
X5.82Y-3.2815
T5
X5.3126Y-3.339
X5.5252Y-3.339
X4.5122Y-3.0894
X4.5122Y-3.302
X4.8563Y-3.3449
X5.0689Y-3.3449
X6.0189Y-3.0594
X6.0189Y-3.272
T0
M30
