G04 #@! TF.GenerationSoftware,KiCad,Pcbnew,(5.1.0-0)*
G04 #@! TF.CreationDate,2021-09-25T20:45:45+02:00*
G04 #@! TF.ProjectId,Kaefer_Konstanter_Tank,4b616566-6572-45f4-9b6f-6e7374616e74,rev?*
G04 #@! TF.SameCoordinates,Original*
G04 #@! TF.FileFunction,Copper,L1,Top*
G04 #@! TF.FilePolarity,Positive*
%FSLAX46Y46*%
G04 Gerber Fmt 4.6, Leading zero omitted, Abs format (unit mm)*
G04 Created by KiCad (PCBNEW (5.1.0-0)) date 2021-09-25 20:45:45*
%MOMM*%
%LPD*%
G04 APERTURE LIST*
%ADD10C,0.100000*%
%ADD11C,1.600000*%
%ADD12C,0.800000*%
%ADD13R,2.000000X1.905000*%
%ADD14O,2.000000X1.905000*%
%ADD15O,1.600000X1.600000*%
%ADD16O,1.500000X1.050000*%
%ADD17R,1.500000X1.050000*%
%ADD18C,2.750000*%
%ADD19C,0.250000*%
%ADD20C,0.254000*%
G04 APERTURE END LIST*
D10*
G36*
X126918504Y-75909204D02*
G01*
X126942773Y-75912804D01*
X126966571Y-75918765D01*
X126989671Y-75927030D01*
X127011849Y-75937520D01*
X127032893Y-75950133D01*
X127052598Y-75964747D01*
X127070777Y-75981223D01*
X127087253Y-75999402D01*
X127101867Y-76019107D01*
X127114480Y-76040151D01*
X127124970Y-76062329D01*
X127133235Y-76085429D01*
X127139196Y-76109227D01*
X127142796Y-76133496D01*
X127144000Y-76158000D01*
X127144000Y-77258000D01*
X127142796Y-77282504D01*
X127139196Y-77306773D01*
X127133235Y-77330571D01*
X127124970Y-77353671D01*
X127114480Y-77375849D01*
X127101867Y-77396893D01*
X127087253Y-77416598D01*
X127070777Y-77434777D01*
X127052598Y-77451253D01*
X127032893Y-77465867D01*
X127011849Y-77478480D01*
X126989671Y-77488970D01*
X126966571Y-77497235D01*
X126942773Y-77503196D01*
X126918504Y-77506796D01*
X126894000Y-77508000D01*
X124394000Y-77508000D01*
X124369496Y-77506796D01*
X124345227Y-77503196D01*
X124321429Y-77497235D01*
X124298329Y-77488970D01*
X124276151Y-77478480D01*
X124255107Y-77465867D01*
X124235402Y-77451253D01*
X124217223Y-77434777D01*
X124200747Y-77416598D01*
X124186133Y-77396893D01*
X124173520Y-77375849D01*
X124163030Y-77353671D01*
X124154765Y-77330571D01*
X124148804Y-77306773D01*
X124145204Y-77282504D01*
X124144000Y-77258000D01*
X124144000Y-76158000D01*
X124145204Y-76133496D01*
X124148804Y-76109227D01*
X124154765Y-76085429D01*
X124163030Y-76062329D01*
X124173520Y-76040151D01*
X124186133Y-76019107D01*
X124200747Y-75999402D01*
X124217223Y-75981223D01*
X124235402Y-75964747D01*
X124255107Y-75950133D01*
X124276151Y-75937520D01*
X124298329Y-75927030D01*
X124321429Y-75918765D01*
X124345227Y-75912804D01*
X124369496Y-75909204D01*
X124394000Y-75908000D01*
X126894000Y-75908000D01*
X126918504Y-75909204D01*
X126918504Y-75909204D01*
G37*
D11*
X125644000Y-76708000D03*
D10*
G36*
X122518504Y-75909204D02*
G01*
X122542773Y-75912804D01*
X122566571Y-75918765D01*
X122589671Y-75927030D01*
X122611849Y-75937520D01*
X122632893Y-75950133D01*
X122652598Y-75964747D01*
X122670777Y-75981223D01*
X122687253Y-75999402D01*
X122701867Y-76019107D01*
X122714480Y-76040151D01*
X122724970Y-76062329D01*
X122733235Y-76085429D01*
X122739196Y-76109227D01*
X122742796Y-76133496D01*
X122744000Y-76158000D01*
X122744000Y-77258000D01*
X122742796Y-77282504D01*
X122739196Y-77306773D01*
X122733235Y-77330571D01*
X122724970Y-77353671D01*
X122714480Y-77375849D01*
X122701867Y-77396893D01*
X122687253Y-77416598D01*
X122670777Y-77434777D01*
X122652598Y-77451253D01*
X122632893Y-77465867D01*
X122611849Y-77478480D01*
X122589671Y-77488970D01*
X122566571Y-77497235D01*
X122542773Y-77503196D01*
X122518504Y-77506796D01*
X122494000Y-77508000D01*
X119994000Y-77508000D01*
X119969496Y-77506796D01*
X119945227Y-77503196D01*
X119921429Y-77497235D01*
X119898329Y-77488970D01*
X119876151Y-77478480D01*
X119855107Y-77465867D01*
X119835402Y-77451253D01*
X119817223Y-77434777D01*
X119800747Y-77416598D01*
X119786133Y-77396893D01*
X119773520Y-77375849D01*
X119763030Y-77353671D01*
X119754765Y-77330571D01*
X119748804Y-77306773D01*
X119745204Y-77282504D01*
X119744000Y-77258000D01*
X119744000Y-76158000D01*
X119745204Y-76133496D01*
X119748804Y-76109227D01*
X119754765Y-76085429D01*
X119763030Y-76062329D01*
X119773520Y-76040151D01*
X119786133Y-76019107D01*
X119800747Y-75999402D01*
X119817223Y-75981223D01*
X119835402Y-75964747D01*
X119855107Y-75950133D01*
X119876151Y-75937520D01*
X119898329Y-75927030D01*
X119921429Y-75918765D01*
X119945227Y-75912804D01*
X119969496Y-75909204D01*
X119994000Y-75908000D01*
X122494000Y-75908000D01*
X122518504Y-75909204D01*
X122518504Y-75909204D01*
G37*
D11*
X121244000Y-76708000D03*
D10*
G36*
X134837504Y-75909204D02*
G01*
X134861773Y-75912804D01*
X134885571Y-75918765D01*
X134908671Y-75927030D01*
X134930849Y-75937520D01*
X134951893Y-75950133D01*
X134971598Y-75964747D01*
X134989777Y-75981223D01*
X135006253Y-75999402D01*
X135020867Y-76019107D01*
X135033480Y-76040151D01*
X135043970Y-76062329D01*
X135052235Y-76085429D01*
X135058196Y-76109227D01*
X135061796Y-76133496D01*
X135063000Y-76158000D01*
X135063000Y-77258000D01*
X135061796Y-77282504D01*
X135058196Y-77306773D01*
X135052235Y-77330571D01*
X135043970Y-77353671D01*
X135033480Y-77375849D01*
X135020867Y-77396893D01*
X135006253Y-77416598D01*
X134989777Y-77434777D01*
X134971598Y-77451253D01*
X134951893Y-77465867D01*
X134930849Y-77478480D01*
X134908671Y-77488970D01*
X134885571Y-77497235D01*
X134861773Y-77503196D01*
X134837504Y-77506796D01*
X134813000Y-77508000D01*
X132313000Y-77508000D01*
X132288496Y-77506796D01*
X132264227Y-77503196D01*
X132240429Y-77497235D01*
X132217329Y-77488970D01*
X132195151Y-77478480D01*
X132174107Y-77465867D01*
X132154402Y-77451253D01*
X132136223Y-77434777D01*
X132119747Y-77416598D01*
X132105133Y-77396893D01*
X132092520Y-77375849D01*
X132082030Y-77353671D01*
X132073765Y-77330571D01*
X132067804Y-77306773D01*
X132064204Y-77282504D01*
X132063000Y-77258000D01*
X132063000Y-76158000D01*
X132064204Y-76133496D01*
X132067804Y-76109227D01*
X132073765Y-76085429D01*
X132082030Y-76062329D01*
X132092520Y-76040151D01*
X132105133Y-76019107D01*
X132119747Y-75999402D01*
X132136223Y-75981223D01*
X132154402Y-75964747D01*
X132174107Y-75950133D01*
X132195151Y-75937520D01*
X132217329Y-75927030D01*
X132240429Y-75918765D01*
X132264227Y-75912804D01*
X132288496Y-75909204D01*
X132313000Y-75908000D01*
X134813000Y-75908000D01*
X134837504Y-75909204D01*
X134837504Y-75909204D01*
G37*
D11*
X133563000Y-76708000D03*
D10*
G36*
X139237504Y-75909204D02*
G01*
X139261773Y-75912804D01*
X139285571Y-75918765D01*
X139308671Y-75927030D01*
X139330849Y-75937520D01*
X139351893Y-75950133D01*
X139371598Y-75964747D01*
X139389777Y-75981223D01*
X139406253Y-75999402D01*
X139420867Y-76019107D01*
X139433480Y-76040151D01*
X139443970Y-76062329D01*
X139452235Y-76085429D01*
X139458196Y-76109227D01*
X139461796Y-76133496D01*
X139463000Y-76158000D01*
X139463000Y-77258000D01*
X139461796Y-77282504D01*
X139458196Y-77306773D01*
X139452235Y-77330571D01*
X139443970Y-77353671D01*
X139433480Y-77375849D01*
X139420867Y-77396893D01*
X139406253Y-77416598D01*
X139389777Y-77434777D01*
X139371598Y-77451253D01*
X139351893Y-77465867D01*
X139330849Y-77478480D01*
X139308671Y-77488970D01*
X139285571Y-77497235D01*
X139261773Y-77503196D01*
X139237504Y-77506796D01*
X139213000Y-77508000D01*
X136713000Y-77508000D01*
X136688496Y-77506796D01*
X136664227Y-77503196D01*
X136640429Y-77497235D01*
X136617329Y-77488970D01*
X136595151Y-77478480D01*
X136574107Y-77465867D01*
X136554402Y-77451253D01*
X136536223Y-77434777D01*
X136519747Y-77416598D01*
X136505133Y-77396893D01*
X136492520Y-77375849D01*
X136482030Y-77353671D01*
X136473765Y-77330571D01*
X136467804Y-77306773D01*
X136464204Y-77282504D01*
X136463000Y-77258000D01*
X136463000Y-76158000D01*
X136464204Y-76133496D01*
X136467804Y-76109227D01*
X136473765Y-76085429D01*
X136482030Y-76062329D01*
X136492520Y-76040151D01*
X136505133Y-76019107D01*
X136519747Y-75999402D01*
X136536223Y-75981223D01*
X136554402Y-75964747D01*
X136574107Y-75950133D01*
X136595151Y-75937520D01*
X136617329Y-75927030D01*
X136640429Y-75918765D01*
X136664227Y-75912804D01*
X136688496Y-75909204D01*
X136713000Y-75908000D01*
X139213000Y-75908000D01*
X139237504Y-75909204D01*
X139237504Y-75909204D01*
G37*
D11*
X137963000Y-76708000D03*
D10*
G36*
X144174603Y-82885963D02*
G01*
X144194018Y-82888843D01*
X144213057Y-82893612D01*
X144231537Y-82900224D01*
X144249279Y-82908616D01*
X144266114Y-82918706D01*
X144281879Y-82930398D01*
X144296421Y-82943579D01*
X144309602Y-82958121D01*
X144321294Y-82973886D01*
X144331384Y-82990721D01*
X144339776Y-83008463D01*
X144346388Y-83026943D01*
X144351157Y-83045982D01*
X144354037Y-83065397D01*
X144355000Y-83085000D01*
X144355000Y-83635000D01*
X144354037Y-83654603D01*
X144351157Y-83674018D01*
X144346388Y-83693057D01*
X144339776Y-83711537D01*
X144331384Y-83729279D01*
X144321294Y-83746114D01*
X144309602Y-83761879D01*
X144296421Y-83776421D01*
X144281879Y-83789602D01*
X144266114Y-83801294D01*
X144249279Y-83811384D01*
X144231537Y-83819776D01*
X144213057Y-83826388D01*
X144194018Y-83831157D01*
X144174603Y-83834037D01*
X144155000Y-83835000D01*
X143755000Y-83835000D01*
X143735397Y-83834037D01*
X143715982Y-83831157D01*
X143696943Y-83826388D01*
X143678463Y-83819776D01*
X143660721Y-83811384D01*
X143643886Y-83801294D01*
X143628121Y-83789602D01*
X143613579Y-83776421D01*
X143600398Y-83761879D01*
X143588706Y-83746114D01*
X143578616Y-83729279D01*
X143570224Y-83711537D01*
X143563612Y-83693057D01*
X143558843Y-83674018D01*
X143555963Y-83654603D01*
X143555000Y-83635000D01*
X143555000Y-83085000D01*
X143555963Y-83065397D01*
X143558843Y-83045982D01*
X143563612Y-83026943D01*
X143570224Y-83008463D01*
X143578616Y-82990721D01*
X143588706Y-82973886D01*
X143600398Y-82958121D01*
X143613579Y-82943579D01*
X143628121Y-82930398D01*
X143643886Y-82918706D01*
X143660721Y-82908616D01*
X143678463Y-82900224D01*
X143696943Y-82893612D01*
X143715982Y-82888843D01*
X143735397Y-82885963D01*
X143755000Y-82885000D01*
X144155000Y-82885000D01*
X144174603Y-82885963D01*
X144174603Y-82885963D01*
G37*
D12*
X143955000Y-83360000D03*
D10*
G36*
X145824603Y-82885963D02*
G01*
X145844018Y-82888843D01*
X145863057Y-82893612D01*
X145881537Y-82900224D01*
X145899279Y-82908616D01*
X145916114Y-82918706D01*
X145931879Y-82930398D01*
X145946421Y-82943579D01*
X145959602Y-82958121D01*
X145971294Y-82973886D01*
X145981384Y-82990721D01*
X145989776Y-83008463D01*
X145996388Y-83026943D01*
X146001157Y-83045982D01*
X146004037Y-83065397D01*
X146005000Y-83085000D01*
X146005000Y-83635000D01*
X146004037Y-83654603D01*
X146001157Y-83674018D01*
X145996388Y-83693057D01*
X145989776Y-83711537D01*
X145981384Y-83729279D01*
X145971294Y-83746114D01*
X145959602Y-83761879D01*
X145946421Y-83776421D01*
X145931879Y-83789602D01*
X145916114Y-83801294D01*
X145899279Y-83811384D01*
X145881537Y-83819776D01*
X145863057Y-83826388D01*
X145844018Y-83831157D01*
X145824603Y-83834037D01*
X145805000Y-83835000D01*
X145405000Y-83835000D01*
X145385397Y-83834037D01*
X145365982Y-83831157D01*
X145346943Y-83826388D01*
X145328463Y-83819776D01*
X145310721Y-83811384D01*
X145293886Y-83801294D01*
X145278121Y-83789602D01*
X145263579Y-83776421D01*
X145250398Y-83761879D01*
X145238706Y-83746114D01*
X145228616Y-83729279D01*
X145220224Y-83711537D01*
X145213612Y-83693057D01*
X145208843Y-83674018D01*
X145205963Y-83654603D01*
X145205000Y-83635000D01*
X145205000Y-83085000D01*
X145205963Y-83065397D01*
X145208843Y-83045982D01*
X145213612Y-83026943D01*
X145220224Y-83008463D01*
X145228616Y-82990721D01*
X145238706Y-82973886D01*
X145250398Y-82958121D01*
X145263579Y-82943579D01*
X145278121Y-82930398D01*
X145293886Y-82918706D01*
X145310721Y-82908616D01*
X145328463Y-82900224D01*
X145346943Y-82893612D01*
X145365982Y-82888843D01*
X145385397Y-82885963D01*
X145405000Y-82885000D01*
X145805000Y-82885000D01*
X145824603Y-82885963D01*
X145824603Y-82885963D01*
G37*
D12*
X145605000Y-83360000D03*
D13*
X147828000Y-78270000D03*
D14*
X147828000Y-80810000D03*
X147828000Y-83350000D03*
D11*
X147820000Y-87970000D03*
D15*
X150360000Y-87970000D03*
D16*
X141560000Y-78570000D03*
X141560000Y-77300000D03*
D17*
X141560000Y-79840000D03*
D18*
X114610000Y-83870000D03*
D10*
G36*
X115759505Y-77096204D02*
G01*
X115783773Y-77099804D01*
X115807572Y-77105765D01*
X115830671Y-77114030D01*
X115852850Y-77124520D01*
X115873893Y-77137132D01*
X115893599Y-77151747D01*
X115911777Y-77168223D01*
X115928253Y-77186401D01*
X115942868Y-77206107D01*
X115955480Y-77227150D01*
X115965970Y-77249329D01*
X115974235Y-77272428D01*
X115980196Y-77296227D01*
X115983796Y-77320495D01*
X115985000Y-77344999D01*
X115985000Y-79595001D01*
X115983796Y-79619505D01*
X115980196Y-79643773D01*
X115974235Y-79667572D01*
X115965970Y-79690671D01*
X115955480Y-79712850D01*
X115942868Y-79733893D01*
X115928253Y-79753599D01*
X115911777Y-79771777D01*
X115893599Y-79788253D01*
X115873893Y-79802868D01*
X115852850Y-79815480D01*
X115830671Y-79825970D01*
X115807572Y-79834235D01*
X115783773Y-79840196D01*
X115759505Y-79843796D01*
X115735001Y-79845000D01*
X113484999Y-79845000D01*
X113460495Y-79843796D01*
X113436227Y-79840196D01*
X113412428Y-79834235D01*
X113389329Y-79825970D01*
X113367150Y-79815480D01*
X113346107Y-79802868D01*
X113326401Y-79788253D01*
X113308223Y-79771777D01*
X113291747Y-79753599D01*
X113277132Y-79733893D01*
X113264520Y-79712850D01*
X113254030Y-79690671D01*
X113245765Y-79667572D01*
X113239804Y-79643773D01*
X113236204Y-79619505D01*
X113235000Y-79595001D01*
X113235000Y-77344999D01*
X113236204Y-77320495D01*
X113239804Y-77296227D01*
X113245765Y-77272428D01*
X113254030Y-77249329D01*
X113264520Y-77227150D01*
X113277132Y-77206107D01*
X113291747Y-77186401D01*
X113308223Y-77168223D01*
X113326401Y-77151747D01*
X113346107Y-77137132D01*
X113367150Y-77124520D01*
X113389329Y-77114030D01*
X113412428Y-77105765D01*
X113436227Y-77099804D01*
X113460495Y-77096204D01*
X113484999Y-77095000D01*
X115735001Y-77095000D01*
X115759505Y-77096204D01*
X115759505Y-77096204D01*
G37*
D18*
X114610000Y-78470000D03*
X140340000Y-84810000D03*
D10*
G36*
X136089505Y-83436204D02*
G01*
X136113773Y-83439804D01*
X136137572Y-83445765D01*
X136160671Y-83454030D01*
X136182850Y-83464520D01*
X136203893Y-83477132D01*
X136223599Y-83491747D01*
X136241777Y-83508223D01*
X136258253Y-83526401D01*
X136272868Y-83546107D01*
X136285480Y-83567150D01*
X136295970Y-83589329D01*
X136304235Y-83612428D01*
X136310196Y-83636227D01*
X136313796Y-83660495D01*
X136315000Y-83684999D01*
X136315000Y-85935001D01*
X136313796Y-85959505D01*
X136310196Y-85983773D01*
X136304235Y-86007572D01*
X136295970Y-86030671D01*
X136285480Y-86052850D01*
X136272868Y-86073893D01*
X136258253Y-86093599D01*
X136241777Y-86111777D01*
X136223599Y-86128253D01*
X136203893Y-86142868D01*
X136182850Y-86155480D01*
X136160671Y-86165970D01*
X136137572Y-86174235D01*
X136113773Y-86180196D01*
X136089505Y-86183796D01*
X136065001Y-86185000D01*
X133814999Y-86185000D01*
X133790495Y-86183796D01*
X133766227Y-86180196D01*
X133742428Y-86174235D01*
X133719329Y-86165970D01*
X133697150Y-86155480D01*
X133676107Y-86142868D01*
X133656401Y-86128253D01*
X133638223Y-86111777D01*
X133621747Y-86093599D01*
X133607132Y-86073893D01*
X133594520Y-86052850D01*
X133584030Y-86030671D01*
X133575765Y-86007572D01*
X133569804Y-85983773D01*
X133566204Y-85959505D01*
X133565000Y-85935001D01*
X133565000Y-83684999D01*
X133566204Y-83660495D01*
X133569804Y-83636227D01*
X133575765Y-83612428D01*
X133584030Y-83589329D01*
X133594520Y-83567150D01*
X133607132Y-83546107D01*
X133621747Y-83526401D01*
X133638223Y-83508223D01*
X133656401Y-83491747D01*
X133676107Y-83477132D01*
X133697150Y-83464520D01*
X133719329Y-83454030D01*
X133742428Y-83445765D01*
X133766227Y-83439804D01*
X133790495Y-83436204D01*
X133814999Y-83435000D01*
X136065001Y-83435000D01*
X136089505Y-83436204D01*
X136089505Y-83436204D01*
G37*
D18*
X134940000Y-84810000D03*
D10*
G36*
X124499505Y-83586204D02*
G01*
X124523773Y-83589804D01*
X124547572Y-83595765D01*
X124570671Y-83604030D01*
X124592850Y-83614520D01*
X124613893Y-83627132D01*
X124633599Y-83641747D01*
X124651777Y-83658223D01*
X124668253Y-83676401D01*
X124682868Y-83696107D01*
X124695480Y-83717150D01*
X124705970Y-83739329D01*
X124714235Y-83762428D01*
X124720196Y-83786227D01*
X124723796Y-83810495D01*
X124725000Y-83834999D01*
X124725000Y-86085001D01*
X124723796Y-86109505D01*
X124720196Y-86133773D01*
X124714235Y-86157572D01*
X124705970Y-86180671D01*
X124695480Y-86202850D01*
X124682868Y-86223893D01*
X124668253Y-86243599D01*
X124651777Y-86261777D01*
X124633599Y-86278253D01*
X124613893Y-86292868D01*
X124592850Y-86305480D01*
X124570671Y-86315970D01*
X124547572Y-86324235D01*
X124523773Y-86330196D01*
X124499505Y-86333796D01*
X124475001Y-86335000D01*
X122224999Y-86335000D01*
X122200495Y-86333796D01*
X122176227Y-86330196D01*
X122152428Y-86324235D01*
X122129329Y-86315970D01*
X122107150Y-86305480D01*
X122086107Y-86292868D01*
X122066401Y-86278253D01*
X122048223Y-86261777D01*
X122031747Y-86243599D01*
X122017132Y-86223893D01*
X122004520Y-86202850D01*
X121994030Y-86180671D01*
X121985765Y-86157572D01*
X121979804Y-86133773D01*
X121976204Y-86109505D01*
X121975000Y-86085001D01*
X121975000Y-83834999D01*
X121976204Y-83810495D01*
X121979804Y-83786227D01*
X121985765Y-83762428D01*
X121994030Y-83739329D01*
X122004520Y-83717150D01*
X122017132Y-83696107D01*
X122031747Y-83676401D01*
X122048223Y-83658223D01*
X122066401Y-83641747D01*
X122086107Y-83627132D01*
X122107150Y-83614520D01*
X122129329Y-83604030D01*
X122152428Y-83595765D01*
X122176227Y-83589804D01*
X122200495Y-83586204D01*
X122224999Y-83585000D01*
X124475001Y-83585000D01*
X124499505Y-83586204D01*
X124499505Y-83586204D01*
G37*
D18*
X123350000Y-84960000D03*
X128750000Y-84960000D03*
D10*
G36*
X154029505Y-81736204D02*
G01*
X154053773Y-81739804D01*
X154077572Y-81745765D01*
X154100671Y-81754030D01*
X154122850Y-81764520D01*
X154143893Y-81777132D01*
X154163599Y-81791747D01*
X154181777Y-81808223D01*
X154198253Y-81826401D01*
X154212868Y-81846107D01*
X154225480Y-81867150D01*
X154235970Y-81889329D01*
X154244235Y-81912428D01*
X154250196Y-81936227D01*
X154253796Y-81960495D01*
X154255000Y-81984999D01*
X154255000Y-84235001D01*
X154253796Y-84259505D01*
X154250196Y-84283773D01*
X154244235Y-84307572D01*
X154235970Y-84330671D01*
X154225480Y-84352850D01*
X154212868Y-84373893D01*
X154198253Y-84393599D01*
X154181777Y-84411777D01*
X154163599Y-84428253D01*
X154143893Y-84442868D01*
X154122850Y-84455480D01*
X154100671Y-84465970D01*
X154077572Y-84474235D01*
X154053773Y-84480196D01*
X154029505Y-84483796D01*
X154005001Y-84485000D01*
X151754999Y-84485000D01*
X151730495Y-84483796D01*
X151706227Y-84480196D01*
X151682428Y-84474235D01*
X151659329Y-84465970D01*
X151637150Y-84455480D01*
X151616107Y-84442868D01*
X151596401Y-84428253D01*
X151578223Y-84411777D01*
X151561747Y-84393599D01*
X151547132Y-84373893D01*
X151534520Y-84352850D01*
X151524030Y-84330671D01*
X151515765Y-84307572D01*
X151509804Y-84283773D01*
X151506204Y-84259505D01*
X151505000Y-84235001D01*
X151505000Y-81984999D01*
X151506204Y-81960495D01*
X151509804Y-81936227D01*
X151515765Y-81912428D01*
X151524030Y-81889329D01*
X151534520Y-81867150D01*
X151547132Y-81846107D01*
X151561747Y-81826401D01*
X151578223Y-81808223D01*
X151596401Y-81791747D01*
X151616107Y-81777132D01*
X151637150Y-81764520D01*
X151659329Y-81754030D01*
X151682428Y-81745765D01*
X151706227Y-81739804D01*
X151730495Y-81736204D01*
X151754999Y-81735000D01*
X154005001Y-81735000D01*
X154029505Y-81736204D01*
X154029505Y-81736204D01*
G37*
D18*
X152880000Y-83110000D03*
X152880000Y-77710000D03*
D12*
X149960000Y-83750000D03*
X149730000Y-79820000D03*
X113810000Y-81130000D03*
X114850000Y-74660000D03*
X144350000Y-74660000D03*
X119079758Y-78212133D03*
X119060000Y-82610000D03*
X130700000Y-80360000D03*
X133990000Y-73880000D03*
X126890000Y-79100000D03*
D19*
X141517000Y-77343000D02*
X141560000Y-77300000D01*
X139126000Y-77343000D02*
X141517000Y-77343000D01*
X156530000Y-84330000D02*
X156580000Y-84380000D01*
X119079758Y-82590242D02*
X119060000Y-82610000D01*
X119079758Y-78212133D02*
X119079758Y-82590242D01*
X128450000Y-82610000D02*
X119060000Y-82610000D01*
X130700000Y-80360000D02*
X128450000Y-82610000D01*
X141517000Y-79883000D02*
X141560000Y-79840000D01*
X119380000Y-76708000D02*
X121244000Y-76708000D01*
X119126000Y-76962000D02*
X119380000Y-76708000D01*
X119079758Y-77008242D02*
X119126000Y-76962000D01*
X119079758Y-78212133D02*
X119079758Y-77008242D01*
X147740000Y-78270000D02*
X147740000Y-76800000D01*
X147740000Y-76800000D02*
X144820000Y-73880000D01*
X144820000Y-73880000D02*
X133990000Y-73880000D01*
X145765000Y-83350000D02*
X145755000Y-83360000D01*
X147740000Y-83350000D02*
X145765000Y-83350000D01*
X144105000Y-77095000D02*
X144105000Y-83360000D01*
X141870000Y-74860000D02*
X144105000Y-77095000D01*
X131130000Y-74860000D02*
X141870000Y-74860000D01*
X126890000Y-79100000D02*
X131130000Y-74860000D01*
D20*
G36*
X162370000Y-73283381D02*
G01*
X162370001Y-87736618D01*
X160756620Y-89350000D01*
X150742296Y-89350000D01*
X150973881Y-89267070D01*
X151215131Y-89122385D01*
X151423519Y-88933414D01*
X151591037Y-88707420D01*
X151711246Y-88453087D01*
X151751904Y-88319039D01*
X151629915Y-88097000D01*
X150487000Y-88097000D01*
X150487000Y-88117000D01*
X150233000Y-88117000D01*
X150233000Y-88097000D01*
X150213000Y-88097000D01*
X150213000Y-87843000D01*
X150233000Y-87843000D01*
X150233000Y-86699376D01*
X150487000Y-86699376D01*
X150487000Y-87843000D01*
X151629915Y-87843000D01*
X151751904Y-87620961D01*
X151711246Y-87486913D01*
X151591037Y-87232580D01*
X151423519Y-87006586D01*
X151215131Y-86817615D01*
X150973881Y-86672930D01*
X150709040Y-86578091D01*
X150487000Y-86699376D01*
X150233000Y-86699376D01*
X150010960Y-86578091D01*
X149746119Y-86672930D01*
X149504869Y-86817615D01*
X149296481Y-87006586D01*
X149128963Y-87232580D01*
X149096357Y-87301565D01*
X149091680Y-87290273D01*
X148934637Y-87055241D01*
X148734759Y-86855363D01*
X148499727Y-86698320D01*
X148238574Y-86590147D01*
X147961335Y-86535000D01*
X147678665Y-86535000D01*
X147401426Y-86590147D01*
X147140273Y-86698320D01*
X146905241Y-86855363D01*
X146705363Y-87055241D01*
X146548320Y-87290273D01*
X146440147Y-87551426D01*
X146385000Y-87828665D01*
X146385000Y-88111335D01*
X146440147Y-88388574D01*
X146548320Y-88649727D01*
X146705363Y-88884759D01*
X146905241Y-89084637D01*
X147140273Y-89241680D01*
X147401426Y-89349853D01*
X147678665Y-89405000D01*
X147761783Y-89405000D01*
X147661550Y-89458575D01*
X147561052Y-89541052D01*
X147478575Y-89641550D01*
X147417290Y-89756207D01*
X147379550Y-89880617D01*
X147366807Y-90010000D01*
X147370000Y-90042419D01*
X147370001Y-106350000D01*
X142690000Y-106350000D01*
X142690000Y-93042419D01*
X142693193Y-93010000D01*
X142680450Y-92880617D01*
X142642710Y-92756207D01*
X142581425Y-92641550D01*
X142498948Y-92541052D01*
X142398450Y-92458575D01*
X142283793Y-92397290D01*
X142159383Y-92359550D01*
X142062419Y-92350000D01*
X142030000Y-92346807D01*
X141997581Y-92350000D01*
X138062419Y-92350000D01*
X138030000Y-92346807D01*
X137997581Y-92350000D01*
X137900617Y-92359550D01*
X137776207Y-92397290D01*
X137661550Y-92458575D01*
X137561052Y-92541052D01*
X137478575Y-92641550D01*
X137417290Y-92756207D01*
X137379550Y-92880617D01*
X137366807Y-93010000D01*
X137370000Y-93042419D01*
X137370001Y-106350000D01*
X132690000Y-106350000D01*
X132690000Y-90042419D01*
X132693193Y-90010000D01*
X132680450Y-89880617D01*
X132642710Y-89756207D01*
X132581425Y-89641550D01*
X132498948Y-89541052D01*
X132398450Y-89458575D01*
X132283793Y-89397290D01*
X132159383Y-89359550D01*
X132062419Y-89350000D01*
X132030000Y-89346807D01*
X131997581Y-89350000D01*
X114303381Y-89350000D01*
X112690000Y-87736620D01*
X112690000Y-84487094D01*
X112828761Y-84822092D01*
X113048731Y-85151301D01*
X113328699Y-85431269D01*
X113657908Y-85651239D01*
X114023704Y-85802757D01*
X114412032Y-85880000D01*
X114807968Y-85880000D01*
X115196296Y-85802757D01*
X115562092Y-85651239D01*
X115891301Y-85431269D01*
X116171269Y-85151301D01*
X116391239Y-84822092D01*
X116542757Y-84456296D01*
X116620000Y-84067968D01*
X116620000Y-83672032D01*
X116542757Y-83283704D01*
X116391239Y-82917908D01*
X116171269Y-82588699D01*
X116090631Y-82508061D01*
X118025000Y-82508061D01*
X118025000Y-82711939D01*
X118064774Y-82911898D01*
X118142795Y-83100256D01*
X118256063Y-83269774D01*
X118400226Y-83413937D01*
X118569744Y-83527205D01*
X118758102Y-83605226D01*
X118958061Y-83645000D01*
X119161939Y-83645000D01*
X119361898Y-83605226D01*
X119550256Y-83527205D01*
X119719774Y-83413937D01*
X119763711Y-83370000D01*
X121471422Y-83370000D01*
X121404528Y-83495149D01*
X121353992Y-83661745D01*
X121336928Y-83834999D01*
X121336928Y-86085001D01*
X121353992Y-86258255D01*
X121404528Y-86424851D01*
X121486595Y-86578387D01*
X121597038Y-86712962D01*
X121731613Y-86823405D01*
X121885149Y-86905472D01*
X122051745Y-86956008D01*
X122224999Y-86973072D01*
X124475001Y-86973072D01*
X124648255Y-86956008D01*
X124814851Y-86905472D01*
X124968387Y-86823405D01*
X125102962Y-86712962D01*
X125213405Y-86578387D01*
X125295472Y-86424851D01*
X125346008Y-86258255D01*
X125363072Y-86085001D01*
X125363072Y-83834999D01*
X125346008Y-83661745D01*
X125295472Y-83495149D01*
X125228578Y-83370000D01*
X127511698Y-83370000D01*
X127468699Y-83398731D01*
X127188731Y-83678699D01*
X126968761Y-84007908D01*
X126817243Y-84373704D01*
X126740000Y-84762032D01*
X126740000Y-85157968D01*
X126817243Y-85546296D01*
X126968761Y-85912092D01*
X127188731Y-86241301D01*
X127468699Y-86521269D01*
X127797908Y-86741239D01*
X128163704Y-86892757D01*
X128552032Y-86970000D01*
X128947968Y-86970000D01*
X129336296Y-86892757D01*
X129702092Y-86741239D01*
X130031301Y-86521269D01*
X130311269Y-86241301D01*
X130531239Y-85912092D01*
X130682757Y-85546296D01*
X130760000Y-85157968D01*
X130760000Y-84762032D01*
X130682757Y-84373704D01*
X130531239Y-84007908D01*
X130315479Y-83684999D01*
X132926928Y-83684999D01*
X132926928Y-85935001D01*
X132943992Y-86108255D01*
X132994528Y-86274851D01*
X133076595Y-86428387D01*
X133187038Y-86562962D01*
X133321613Y-86673405D01*
X133475149Y-86755472D01*
X133641745Y-86806008D01*
X133814999Y-86823072D01*
X136065001Y-86823072D01*
X136238255Y-86806008D01*
X136404851Y-86755472D01*
X136558387Y-86673405D01*
X136692962Y-86562962D01*
X136803405Y-86428387D01*
X136885472Y-86274851D01*
X136936008Y-86108255D01*
X136953072Y-85935001D01*
X136953072Y-84612032D01*
X138330000Y-84612032D01*
X138330000Y-85007968D01*
X138407243Y-85396296D01*
X138558761Y-85762092D01*
X138778731Y-86091301D01*
X139058699Y-86371269D01*
X139387908Y-86591239D01*
X139753704Y-86742757D01*
X140142032Y-86820000D01*
X140537968Y-86820000D01*
X140926296Y-86742757D01*
X141292092Y-86591239D01*
X141621301Y-86371269D01*
X141901269Y-86091301D01*
X142121239Y-85762092D01*
X142272757Y-85396296D01*
X142350000Y-85007968D01*
X142350000Y-84612032D01*
X142272757Y-84223704D01*
X142121239Y-83857908D01*
X141901269Y-83528699D01*
X141621301Y-83248731D01*
X141292092Y-83028761D01*
X140926296Y-82877243D01*
X140537968Y-82800000D01*
X140142032Y-82800000D01*
X139753704Y-82877243D01*
X139387908Y-83028761D01*
X139058699Y-83248731D01*
X138778731Y-83528699D01*
X138558761Y-83857908D01*
X138407243Y-84223704D01*
X138330000Y-84612032D01*
X136953072Y-84612032D01*
X136953072Y-83684999D01*
X136936008Y-83511745D01*
X136885472Y-83345149D01*
X136803405Y-83191613D01*
X136692962Y-83057038D01*
X136558387Y-82946595D01*
X136404851Y-82864528D01*
X136238255Y-82813992D01*
X136065001Y-82796928D01*
X133814999Y-82796928D01*
X133641745Y-82813992D01*
X133475149Y-82864528D01*
X133321613Y-82946595D01*
X133187038Y-83057038D01*
X133076595Y-83191613D01*
X132994528Y-83345149D01*
X132943992Y-83511745D01*
X132926928Y-83684999D01*
X130315479Y-83684999D01*
X130311269Y-83678699D01*
X130031301Y-83398731D01*
X129702092Y-83178761D01*
X129336296Y-83027243D01*
X129145508Y-82989293D01*
X130739802Y-81395000D01*
X130801939Y-81395000D01*
X131001898Y-81355226D01*
X131190256Y-81277205D01*
X131359774Y-81163937D01*
X131503937Y-81019774D01*
X131617205Y-80850256D01*
X131695226Y-80661898D01*
X131735000Y-80461939D01*
X131735000Y-80258061D01*
X131695226Y-80058102D01*
X131617205Y-79869744D01*
X131503937Y-79700226D01*
X131359774Y-79556063D01*
X131190256Y-79442795D01*
X131001898Y-79364774D01*
X130801939Y-79325000D01*
X130598061Y-79325000D01*
X130398102Y-79364774D01*
X130209744Y-79442795D01*
X130040226Y-79556063D01*
X129896063Y-79700226D01*
X129782795Y-79869744D01*
X129704774Y-80058102D01*
X129665000Y-80258061D01*
X129665000Y-80320198D01*
X128135199Y-81850000D01*
X119839758Y-81850000D01*
X119839758Y-78915844D01*
X119883695Y-78871907D01*
X119996963Y-78702389D01*
X120074984Y-78514031D01*
X120114758Y-78314072D01*
X120114758Y-78146072D01*
X122494000Y-78146072D01*
X122667254Y-78129008D01*
X122833850Y-78078472D01*
X122987386Y-77996405D01*
X123121962Y-77885962D01*
X123232405Y-77751386D01*
X123314472Y-77597850D01*
X123341727Y-77508000D01*
X123505928Y-77508000D01*
X123518188Y-77632482D01*
X123554498Y-77752180D01*
X123613463Y-77862494D01*
X123692815Y-77959185D01*
X123789506Y-78038537D01*
X123899820Y-78097502D01*
X124019518Y-78133812D01*
X124144000Y-78146072D01*
X125358250Y-78143000D01*
X125517000Y-77984250D01*
X125517000Y-76835000D01*
X125771000Y-76835000D01*
X125771000Y-77984250D01*
X125929750Y-78143000D01*
X126492380Y-78144423D01*
X126399744Y-78182795D01*
X126230226Y-78296063D01*
X126086063Y-78440226D01*
X125972795Y-78609744D01*
X125894774Y-78798102D01*
X125855000Y-78998061D01*
X125855000Y-79201939D01*
X125894774Y-79401898D01*
X125972795Y-79590256D01*
X126086063Y-79759774D01*
X126230226Y-79903937D01*
X126399744Y-80017205D01*
X126588102Y-80095226D01*
X126788061Y-80135000D01*
X126991939Y-80135000D01*
X127191898Y-80095226D01*
X127380256Y-80017205D01*
X127549774Y-79903937D01*
X127693937Y-79759774D01*
X127807205Y-79590256D01*
X127885226Y-79401898D01*
X127902510Y-79315000D01*
X140171928Y-79315000D01*
X140171928Y-80365000D01*
X140184188Y-80489482D01*
X140220498Y-80609180D01*
X140279463Y-80719494D01*
X140358815Y-80816185D01*
X140455506Y-80895537D01*
X140565820Y-80954502D01*
X140685518Y-80990812D01*
X140810000Y-81003072D01*
X142310000Y-81003072D01*
X142434482Y-80990812D01*
X142554180Y-80954502D01*
X142664494Y-80895537D01*
X142761185Y-80816185D01*
X142840537Y-80719494D01*
X142899502Y-80609180D01*
X142935812Y-80489482D01*
X142948072Y-80365000D01*
X142948072Y-79315000D01*
X142935812Y-79190518D01*
X142899502Y-79070820D01*
X142864824Y-79005943D01*
X142895272Y-78937337D01*
X142903964Y-78875810D01*
X142778163Y-78697000D01*
X142460235Y-78697000D01*
X142434482Y-78689188D01*
X142310000Y-78676928D01*
X140810000Y-78676928D01*
X140685518Y-78689188D01*
X140659765Y-78697000D01*
X140341837Y-78697000D01*
X140216036Y-78875810D01*
X140224728Y-78937337D01*
X140255176Y-79005943D01*
X140220498Y-79070820D01*
X140184188Y-79190518D01*
X140171928Y-79315000D01*
X127902510Y-79315000D01*
X127925000Y-79201939D01*
X127925000Y-79139801D01*
X129556801Y-77508000D01*
X131424928Y-77508000D01*
X131437188Y-77632482D01*
X131473498Y-77752180D01*
X131532463Y-77862494D01*
X131611815Y-77959185D01*
X131708506Y-78038537D01*
X131818820Y-78097502D01*
X131938518Y-78133812D01*
X132063000Y-78146072D01*
X133277250Y-78143000D01*
X133436000Y-77984250D01*
X133436000Y-76835000D01*
X133690000Y-76835000D01*
X133690000Y-77984250D01*
X133848750Y-78143000D01*
X135063000Y-78146072D01*
X135187482Y-78133812D01*
X135307180Y-78097502D01*
X135417494Y-78038537D01*
X135514185Y-77959185D01*
X135593537Y-77862494D01*
X135652502Y-77752180D01*
X135688812Y-77632482D01*
X135701072Y-77508000D01*
X135698000Y-76993750D01*
X135539250Y-76835000D01*
X133690000Y-76835000D01*
X133436000Y-76835000D01*
X131586750Y-76835000D01*
X131428000Y-76993750D01*
X131424928Y-77508000D01*
X129556801Y-77508000D01*
X131444802Y-75620000D01*
X131496921Y-75620000D01*
X131473498Y-75663820D01*
X131437188Y-75783518D01*
X131424928Y-75908000D01*
X131428000Y-76422250D01*
X131586750Y-76581000D01*
X133436000Y-76581000D01*
X133436000Y-76561000D01*
X133690000Y-76561000D01*
X133690000Y-76581000D01*
X135539250Y-76581000D01*
X135698000Y-76422250D01*
X135701072Y-75908000D01*
X135688812Y-75783518D01*
X135652502Y-75663820D01*
X135629079Y-75620000D01*
X136011209Y-75620000D01*
X135974595Y-75664614D01*
X135892528Y-75818150D01*
X135841992Y-75984746D01*
X135824928Y-76158000D01*
X135824928Y-77258000D01*
X135841992Y-77431254D01*
X135892528Y-77597850D01*
X135974595Y-77751386D01*
X136085038Y-77885962D01*
X136219614Y-77996405D01*
X136373150Y-78078472D01*
X136539746Y-78129008D01*
X136713000Y-78146072D01*
X139213000Y-78146072D01*
X139386254Y-78129008D01*
X139471991Y-78103000D01*
X140268959Y-78103000D01*
X140224728Y-78202663D01*
X140216036Y-78264190D01*
X140341837Y-78443000D01*
X141106891Y-78443000D01*
X141107600Y-78443215D01*
X141278021Y-78460000D01*
X141841979Y-78460000D01*
X142012400Y-78443215D01*
X142013109Y-78443000D01*
X142778163Y-78443000D01*
X142903964Y-78264190D01*
X142895272Y-78202663D01*
X142802275Y-77993118D01*
X142761071Y-77934669D01*
X142861885Y-77746060D01*
X142928215Y-77527400D01*
X142950612Y-77300000D01*
X142928215Y-77072600D01*
X142893562Y-76958363D01*
X143345000Y-77409802D01*
X143345001Y-82358445D01*
X143289392Y-82388169D01*
X143162394Y-82492394D01*
X143058169Y-82619392D01*
X142980722Y-82764284D01*
X142933031Y-82921500D01*
X142916928Y-83085000D01*
X142916928Y-83635000D01*
X142933031Y-83798500D01*
X142980722Y-83955716D01*
X143058169Y-84100608D01*
X143162394Y-84227606D01*
X143289392Y-84331831D01*
X143434284Y-84409278D01*
X143591500Y-84456969D01*
X143755000Y-84473072D01*
X144155000Y-84473072D01*
X144318500Y-84456969D01*
X144475716Y-84409278D01*
X144620608Y-84331831D01*
X144747606Y-84227606D01*
X144780000Y-84188134D01*
X144812394Y-84227606D01*
X144939392Y-84331831D01*
X145084284Y-84409278D01*
X145241500Y-84456969D01*
X145405000Y-84473072D01*
X145805000Y-84473072D01*
X145968500Y-84456969D01*
X146125716Y-84409278D01*
X146270608Y-84331831D01*
X146397606Y-84227606D01*
X146429058Y-84189282D01*
X146454155Y-84236235D01*
X146652537Y-84477963D01*
X146894265Y-84676345D01*
X147170051Y-84823755D01*
X147469296Y-84914530D01*
X147702514Y-84937500D01*
X147953486Y-84937500D01*
X148186704Y-84914530D01*
X148485949Y-84823755D01*
X148761735Y-84676345D01*
X149003463Y-84477963D01*
X149201845Y-84236235D01*
X149349255Y-83960449D01*
X149440030Y-83661204D01*
X149470681Y-83350000D01*
X149440030Y-83038796D01*
X149349255Y-82739551D01*
X149201845Y-82463765D01*
X149003463Y-82222037D01*
X148830391Y-82080000D01*
X148946149Y-81984999D01*
X150866928Y-81984999D01*
X150866928Y-84235001D01*
X150883992Y-84408255D01*
X150934528Y-84574851D01*
X151016595Y-84728387D01*
X151127038Y-84862962D01*
X151261613Y-84973405D01*
X151415149Y-85055472D01*
X151581745Y-85106008D01*
X151754999Y-85123072D01*
X154005001Y-85123072D01*
X154178255Y-85106008D01*
X154344851Y-85055472D01*
X154498387Y-84973405D01*
X154632962Y-84862962D01*
X154743405Y-84728387D01*
X154825472Y-84574851D01*
X154876008Y-84408255D01*
X154893072Y-84235001D01*
X154893072Y-81984999D01*
X154876008Y-81811745D01*
X154825472Y-81645149D01*
X154743405Y-81491613D01*
X154632962Y-81357038D01*
X154498387Y-81246595D01*
X154344851Y-81164528D01*
X154178255Y-81113992D01*
X154005001Y-81096928D01*
X151754999Y-81096928D01*
X151581745Y-81113992D01*
X151415149Y-81164528D01*
X151261613Y-81246595D01*
X151127038Y-81357038D01*
X151016595Y-81491613D01*
X150934528Y-81645149D01*
X150883992Y-81811745D01*
X150866928Y-81984999D01*
X148946149Y-81984999D01*
X149003463Y-81937963D01*
X149201845Y-81696235D01*
X149349255Y-81420449D01*
X149440030Y-81121204D01*
X149470681Y-80810000D01*
X149440030Y-80498796D01*
X149349255Y-80199551D01*
X149201845Y-79923765D01*
X149098554Y-79797905D01*
X149182494Y-79753037D01*
X149279185Y-79673685D01*
X149358537Y-79576994D01*
X149417502Y-79466680D01*
X149453812Y-79346982D01*
X149466072Y-79222500D01*
X149466072Y-77512032D01*
X150870000Y-77512032D01*
X150870000Y-77907968D01*
X150947243Y-78296296D01*
X151098761Y-78662092D01*
X151318731Y-78991301D01*
X151598699Y-79271269D01*
X151927908Y-79491239D01*
X152293704Y-79642757D01*
X152682032Y-79720000D01*
X153077968Y-79720000D01*
X153466296Y-79642757D01*
X153832092Y-79491239D01*
X154161301Y-79271269D01*
X154441269Y-78991301D01*
X154661239Y-78662092D01*
X154812757Y-78296296D01*
X154890000Y-77907968D01*
X154890000Y-77512032D01*
X154812757Y-77123704D01*
X154661239Y-76757908D01*
X154441269Y-76428699D01*
X154161301Y-76148731D01*
X153832092Y-75928761D01*
X153466296Y-75777243D01*
X153077968Y-75700000D01*
X152682032Y-75700000D01*
X152293704Y-75777243D01*
X151927908Y-75928761D01*
X151598699Y-76148731D01*
X151318731Y-76428699D01*
X151098761Y-76757908D01*
X150947243Y-77123704D01*
X150870000Y-77512032D01*
X149466072Y-77512032D01*
X149466072Y-77317500D01*
X149453812Y-77193018D01*
X149417502Y-77073320D01*
X149358537Y-76963006D01*
X149279185Y-76866315D01*
X149182494Y-76786963D01*
X149072180Y-76727998D01*
X148952482Y-76691688D01*
X148828000Y-76679428D01*
X148491802Y-76679428D01*
X148489003Y-76651014D01*
X148445546Y-76507753D01*
X148374974Y-76375724D01*
X148335009Y-76327026D01*
X148280001Y-76259999D01*
X148251003Y-76236201D01*
X145383804Y-73369003D01*
X145360001Y-73339999D01*
X145244276Y-73245026D01*
X145112247Y-73174454D01*
X144968986Y-73130997D01*
X144857333Y-73120000D01*
X144857322Y-73120000D01*
X144820000Y-73116324D01*
X144782678Y-73120000D01*
X134693711Y-73120000D01*
X134649774Y-73076063D01*
X134480256Y-72962795D01*
X134291898Y-72884774D01*
X134091939Y-72845000D01*
X133888061Y-72845000D01*
X133688102Y-72884774D01*
X133499744Y-72962795D01*
X133330226Y-73076063D01*
X133186063Y-73220226D01*
X133072795Y-73389744D01*
X132994774Y-73578102D01*
X132955000Y-73778061D01*
X132955000Y-73981939D01*
X132978484Y-74100000D01*
X131167333Y-74100000D01*
X131130000Y-74096323D01*
X131092667Y-74100000D01*
X130981014Y-74110997D01*
X130837753Y-74154454D01*
X130705724Y-74225026D01*
X130589999Y-74319999D01*
X130566201Y-74348997D01*
X127779846Y-77135353D01*
X127779000Y-76993750D01*
X127620250Y-76835000D01*
X125771000Y-76835000D01*
X125517000Y-76835000D01*
X123667750Y-76835000D01*
X123509000Y-76993750D01*
X123505928Y-77508000D01*
X123341727Y-77508000D01*
X123365008Y-77431254D01*
X123382072Y-77258000D01*
X123382072Y-76158000D01*
X123365008Y-75984746D01*
X123341728Y-75908000D01*
X123505928Y-75908000D01*
X123509000Y-76422250D01*
X123667750Y-76581000D01*
X125517000Y-76581000D01*
X125517000Y-75431750D01*
X125771000Y-75431750D01*
X125771000Y-76581000D01*
X127620250Y-76581000D01*
X127779000Y-76422250D01*
X127782072Y-75908000D01*
X127769812Y-75783518D01*
X127733502Y-75663820D01*
X127674537Y-75553506D01*
X127595185Y-75456815D01*
X127498494Y-75377463D01*
X127388180Y-75318498D01*
X127268482Y-75282188D01*
X127144000Y-75269928D01*
X125929750Y-75273000D01*
X125771000Y-75431750D01*
X125517000Y-75431750D01*
X125358250Y-75273000D01*
X124144000Y-75269928D01*
X124019518Y-75282188D01*
X123899820Y-75318498D01*
X123789506Y-75377463D01*
X123692815Y-75456815D01*
X123613463Y-75553506D01*
X123554498Y-75663820D01*
X123518188Y-75783518D01*
X123505928Y-75908000D01*
X123341728Y-75908000D01*
X123314472Y-75818150D01*
X123232405Y-75664614D01*
X123121962Y-75530038D01*
X122987386Y-75419595D01*
X122833850Y-75337528D01*
X122667254Y-75286992D01*
X122494000Y-75269928D01*
X119994000Y-75269928D01*
X119820746Y-75286992D01*
X119654150Y-75337528D01*
X119500614Y-75419595D01*
X119366038Y-75530038D01*
X119255595Y-75664614D01*
X119173528Y-75818150D01*
X119122992Y-75984746D01*
X119122279Y-75991981D01*
X119087753Y-76002454D01*
X118955724Y-76073026D01*
X118839999Y-76167999D01*
X118816196Y-76197003D01*
X118568756Y-76444443D01*
X118539758Y-76468241D01*
X118515960Y-76497239D01*
X118515959Y-76497240D01*
X118444784Y-76583966D01*
X118374212Y-76715996D01*
X118360055Y-76762667D01*
X118330756Y-76859256D01*
X118320636Y-76962001D01*
X118316082Y-77008242D01*
X118319759Y-77045574D01*
X118319759Y-77508421D01*
X118275821Y-77552359D01*
X118162553Y-77721877D01*
X118084532Y-77910235D01*
X118044758Y-78110194D01*
X118044758Y-78314072D01*
X118084532Y-78514031D01*
X118162553Y-78702389D01*
X118275821Y-78871907D01*
X118319758Y-78915844D01*
X118319759Y-81886530D01*
X118256063Y-81950226D01*
X118142795Y-82119744D01*
X118064774Y-82308102D01*
X118025000Y-82508061D01*
X116090631Y-82508061D01*
X115891301Y-82308731D01*
X115562092Y-82088761D01*
X115196296Y-81937243D01*
X114807968Y-81860000D01*
X114412032Y-81860000D01*
X114023704Y-81937243D01*
X113657908Y-82088761D01*
X113328699Y-82308731D01*
X113048731Y-82588699D01*
X112828761Y-82917908D01*
X112690000Y-83252906D01*
X112690000Y-79982506D01*
X112746595Y-80088387D01*
X112857038Y-80222962D01*
X112991613Y-80333405D01*
X113145149Y-80415472D01*
X113311745Y-80466008D01*
X113484999Y-80483072D01*
X115735001Y-80483072D01*
X115908255Y-80466008D01*
X116074851Y-80415472D01*
X116228387Y-80333405D01*
X116362962Y-80222962D01*
X116473405Y-80088387D01*
X116555472Y-79934851D01*
X116606008Y-79768255D01*
X116623072Y-79595001D01*
X116623072Y-77344999D01*
X116606008Y-77171745D01*
X116555472Y-77005149D01*
X116473405Y-76851613D01*
X116362962Y-76717038D01*
X116228387Y-76606595D01*
X116074851Y-76524528D01*
X115908255Y-76473992D01*
X115735001Y-76456928D01*
X113484999Y-76456928D01*
X113311745Y-76473992D01*
X113145149Y-76524528D01*
X112991613Y-76606595D01*
X112857038Y-76717038D01*
X112746595Y-76851613D01*
X112690000Y-76957494D01*
X112690000Y-75375803D01*
X120219285Y-70670000D01*
X159756620Y-70670000D01*
X162370000Y-73283381D01*
X162370000Y-73283381D01*
G37*
X162370000Y-73283381D02*
X162370001Y-87736618D01*
X160756620Y-89350000D01*
X150742296Y-89350000D01*
X150973881Y-89267070D01*
X151215131Y-89122385D01*
X151423519Y-88933414D01*
X151591037Y-88707420D01*
X151711246Y-88453087D01*
X151751904Y-88319039D01*
X151629915Y-88097000D01*
X150487000Y-88097000D01*
X150487000Y-88117000D01*
X150233000Y-88117000D01*
X150233000Y-88097000D01*
X150213000Y-88097000D01*
X150213000Y-87843000D01*
X150233000Y-87843000D01*
X150233000Y-86699376D01*
X150487000Y-86699376D01*
X150487000Y-87843000D01*
X151629915Y-87843000D01*
X151751904Y-87620961D01*
X151711246Y-87486913D01*
X151591037Y-87232580D01*
X151423519Y-87006586D01*
X151215131Y-86817615D01*
X150973881Y-86672930D01*
X150709040Y-86578091D01*
X150487000Y-86699376D01*
X150233000Y-86699376D01*
X150010960Y-86578091D01*
X149746119Y-86672930D01*
X149504869Y-86817615D01*
X149296481Y-87006586D01*
X149128963Y-87232580D01*
X149096357Y-87301565D01*
X149091680Y-87290273D01*
X148934637Y-87055241D01*
X148734759Y-86855363D01*
X148499727Y-86698320D01*
X148238574Y-86590147D01*
X147961335Y-86535000D01*
X147678665Y-86535000D01*
X147401426Y-86590147D01*
X147140273Y-86698320D01*
X146905241Y-86855363D01*
X146705363Y-87055241D01*
X146548320Y-87290273D01*
X146440147Y-87551426D01*
X146385000Y-87828665D01*
X146385000Y-88111335D01*
X146440147Y-88388574D01*
X146548320Y-88649727D01*
X146705363Y-88884759D01*
X146905241Y-89084637D01*
X147140273Y-89241680D01*
X147401426Y-89349853D01*
X147678665Y-89405000D01*
X147761783Y-89405000D01*
X147661550Y-89458575D01*
X147561052Y-89541052D01*
X147478575Y-89641550D01*
X147417290Y-89756207D01*
X147379550Y-89880617D01*
X147366807Y-90010000D01*
X147370000Y-90042419D01*
X147370001Y-106350000D01*
X142690000Y-106350000D01*
X142690000Y-93042419D01*
X142693193Y-93010000D01*
X142680450Y-92880617D01*
X142642710Y-92756207D01*
X142581425Y-92641550D01*
X142498948Y-92541052D01*
X142398450Y-92458575D01*
X142283793Y-92397290D01*
X142159383Y-92359550D01*
X142062419Y-92350000D01*
X142030000Y-92346807D01*
X141997581Y-92350000D01*
X138062419Y-92350000D01*
X138030000Y-92346807D01*
X137997581Y-92350000D01*
X137900617Y-92359550D01*
X137776207Y-92397290D01*
X137661550Y-92458575D01*
X137561052Y-92541052D01*
X137478575Y-92641550D01*
X137417290Y-92756207D01*
X137379550Y-92880617D01*
X137366807Y-93010000D01*
X137370000Y-93042419D01*
X137370001Y-106350000D01*
X132690000Y-106350000D01*
X132690000Y-90042419D01*
X132693193Y-90010000D01*
X132680450Y-89880617D01*
X132642710Y-89756207D01*
X132581425Y-89641550D01*
X132498948Y-89541052D01*
X132398450Y-89458575D01*
X132283793Y-89397290D01*
X132159383Y-89359550D01*
X132062419Y-89350000D01*
X132030000Y-89346807D01*
X131997581Y-89350000D01*
X114303381Y-89350000D01*
X112690000Y-87736620D01*
X112690000Y-84487094D01*
X112828761Y-84822092D01*
X113048731Y-85151301D01*
X113328699Y-85431269D01*
X113657908Y-85651239D01*
X114023704Y-85802757D01*
X114412032Y-85880000D01*
X114807968Y-85880000D01*
X115196296Y-85802757D01*
X115562092Y-85651239D01*
X115891301Y-85431269D01*
X116171269Y-85151301D01*
X116391239Y-84822092D01*
X116542757Y-84456296D01*
X116620000Y-84067968D01*
X116620000Y-83672032D01*
X116542757Y-83283704D01*
X116391239Y-82917908D01*
X116171269Y-82588699D01*
X116090631Y-82508061D01*
X118025000Y-82508061D01*
X118025000Y-82711939D01*
X118064774Y-82911898D01*
X118142795Y-83100256D01*
X118256063Y-83269774D01*
X118400226Y-83413937D01*
X118569744Y-83527205D01*
X118758102Y-83605226D01*
X118958061Y-83645000D01*
X119161939Y-83645000D01*
X119361898Y-83605226D01*
X119550256Y-83527205D01*
X119719774Y-83413937D01*
X119763711Y-83370000D01*
X121471422Y-83370000D01*
X121404528Y-83495149D01*
X121353992Y-83661745D01*
X121336928Y-83834999D01*
X121336928Y-86085001D01*
X121353992Y-86258255D01*
X121404528Y-86424851D01*
X121486595Y-86578387D01*
X121597038Y-86712962D01*
X121731613Y-86823405D01*
X121885149Y-86905472D01*
X122051745Y-86956008D01*
X122224999Y-86973072D01*
X124475001Y-86973072D01*
X124648255Y-86956008D01*
X124814851Y-86905472D01*
X124968387Y-86823405D01*
X125102962Y-86712962D01*
X125213405Y-86578387D01*
X125295472Y-86424851D01*
X125346008Y-86258255D01*
X125363072Y-86085001D01*
X125363072Y-83834999D01*
X125346008Y-83661745D01*
X125295472Y-83495149D01*
X125228578Y-83370000D01*
X127511698Y-83370000D01*
X127468699Y-83398731D01*
X127188731Y-83678699D01*
X126968761Y-84007908D01*
X126817243Y-84373704D01*
X126740000Y-84762032D01*
X126740000Y-85157968D01*
X126817243Y-85546296D01*
X126968761Y-85912092D01*
X127188731Y-86241301D01*
X127468699Y-86521269D01*
X127797908Y-86741239D01*
X128163704Y-86892757D01*
X128552032Y-86970000D01*
X128947968Y-86970000D01*
X129336296Y-86892757D01*
X129702092Y-86741239D01*
X130031301Y-86521269D01*
X130311269Y-86241301D01*
X130531239Y-85912092D01*
X130682757Y-85546296D01*
X130760000Y-85157968D01*
X130760000Y-84762032D01*
X130682757Y-84373704D01*
X130531239Y-84007908D01*
X130315479Y-83684999D01*
X132926928Y-83684999D01*
X132926928Y-85935001D01*
X132943992Y-86108255D01*
X132994528Y-86274851D01*
X133076595Y-86428387D01*
X133187038Y-86562962D01*
X133321613Y-86673405D01*
X133475149Y-86755472D01*
X133641745Y-86806008D01*
X133814999Y-86823072D01*
X136065001Y-86823072D01*
X136238255Y-86806008D01*
X136404851Y-86755472D01*
X136558387Y-86673405D01*
X136692962Y-86562962D01*
X136803405Y-86428387D01*
X136885472Y-86274851D01*
X136936008Y-86108255D01*
X136953072Y-85935001D01*
X136953072Y-84612032D01*
X138330000Y-84612032D01*
X138330000Y-85007968D01*
X138407243Y-85396296D01*
X138558761Y-85762092D01*
X138778731Y-86091301D01*
X139058699Y-86371269D01*
X139387908Y-86591239D01*
X139753704Y-86742757D01*
X140142032Y-86820000D01*
X140537968Y-86820000D01*
X140926296Y-86742757D01*
X141292092Y-86591239D01*
X141621301Y-86371269D01*
X141901269Y-86091301D01*
X142121239Y-85762092D01*
X142272757Y-85396296D01*
X142350000Y-85007968D01*
X142350000Y-84612032D01*
X142272757Y-84223704D01*
X142121239Y-83857908D01*
X141901269Y-83528699D01*
X141621301Y-83248731D01*
X141292092Y-83028761D01*
X140926296Y-82877243D01*
X140537968Y-82800000D01*
X140142032Y-82800000D01*
X139753704Y-82877243D01*
X139387908Y-83028761D01*
X139058699Y-83248731D01*
X138778731Y-83528699D01*
X138558761Y-83857908D01*
X138407243Y-84223704D01*
X138330000Y-84612032D01*
X136953072Y-84612032D01*
X136953072Y-83684999D01*
X136936008Y-83511745D01*
X136885472Y-83345149D01*
X136803405Y-83191613D01*
X136692962Y-83057038D01*
X136558387Y-82946595D01*
X136404851Y-82864528D01*
X136238255Y-82813992D01*
X136065001Y-82796928D01*
X133814999Y-82796928D01*
X133641745Y-82813992D01*
X133475149Y-82864528D01*
X133321613Y-82946595D01*
X133187038Y-83057038D01*
X133076595Y-83191613D01*
X132994528Y-83345149D01*
X132943992Y-83511745D01*
X132926928Y-83684999D01*
X130315479Y-83684999D01*
X130311269Y-83678699D01*
X130031301Y-83398731D01*
X129702092Y-83178761D01*
X129336296Y-83027243D01*
X129145508Y-82989293D01*
X130739802Y-81395000D01*
X130801939Y-81395000D01*
X131001898Y-81355226D01*
X131190256Y-81277205D01*
X131359774Y-81163937D01*
X131503937Y-81019774D01*
X131617205Y-80850256D01*
X131695226Y-80661898D01*
X131735000Y-80461939D01*
X131735000Y-80258061D01*
X131695226Y-80058102D01*
X131617205Y-79869744D01*
X131503937Y-79700226D01*
X131359774Y-79556063D01*
X131190256Y-79442795D01*
X131001898Y-79364774D01*
X130801939Y-79325000D01*
X130598061Y-79325000D01*
X130398102Y-79364774D01*
X130209744Y-79442795D01*
X130040226Y-79556063D01*
X129896063Y-79700226D01*
X129782795Y-79869744D01*
X129704774Y-80058102D01*
X129665000Y-80258061D01*
X129665000Y-80320198D01*
X128135199Y-81850000D01*
X119839758Y-81850000D01*
X119839758Y-78915844D01*
X119883695Y-78871907D01*
X119996963Y-78702389D01*
X120074984Y-78514031D01*
X120114758Y-78314072D01*
X120114758Y-78146072D01*
X122494000Y-78146072D01*
X122667254Y-78129008D01*
X122833850Y-78078472D01*
X122987386Y-77996405D01*
X123121962Y-77885962D01*
X123232405Y-77751386D01*
X123314472Y-77597850D01*
X123341727Y-77508000D01*
X123505928Y-77508000D01*
X123518188Y-77632482D01*
X123554498Y-77752180D01*
X123613463Y-77862494D01*
X123692815Y-77959185D01*
X123789506Y-78038537D01*
X123899820Y-78097502D01*
X124019518Y-78133812D01*
X124144000Y-78146072D01*
X125358250Y-78143000D01*
X125517000Y-77984250D01*
X125517000Y-76835000D01*
X125771000Y-76835000D01*
X125771000Y-77984250D01*
X125929750Y-78143000D01*
X126492380Y-78144423D01*
X126399744Y-78182795D01*
X126230226Y-78296063D01*
X126086063Y-78440226D01*
X125972795Y-78609744D01*
X125894774Y-78798102D01*
X125855000Y-78998061D01*
X125855000Y-79201939D01*
X125894774Y-79401898D01*
X125972795Y-79590256D01*
X126086063Y-79759774D01*
X126230226Y-79903937D01*
X126399744Y-80017205D01*
X126588102Y-80095226D01*
X126788061Y-80135000D01*
X126991939Y-80135000D01*
X127191898Y-80095226D01*
X127380256Y-80017205D01*
X127549774Y-79903937D01*
X127693937Y-79759774D01*
X127807205Y-79590256D01*
X127885226Y-79401898D01*
X127902510Y-79315000D01*
X140171928Y-79315000D01*
X140171928Y-80365000D01*
X140184188Y-80489482D01*
X140220498Y-80609180D01*
X140279463Y-80719494D01*
X140358815Y-80816185D01*
X140455506Y-80895537D01*
X140565820Y-80954502D01*
X140685518Y-80990812D01*
X140810000Y-81003072D01*
X142310000Y-81003072D01*
X142434482Y-80990812D01*
X142554180Y-80954502D01*
X142664494Y-80895537D01*
X142761185Y-80816185D01*
X142840537Y-80719494D01*
X142899502Y-80609180D01*
X142935812Y-80489482D01*
X142948072Y-80365000D01*
X142948072Y-79315000D01*
X142935812Y-79190518D01*
X142899502Y-79070820D01*
X142864824Y-79005943D01*
X142895272Y-78937337D01*
X142903964Y-78875810D01*
X142778163Y-78697000D01*
X142460235Y-78697000D01*
X142434482Y-78689188D01*
X142310000Y-78676928D01*
X140810000Y-78676928D01*
X140685518Y-78689188D01*
X140659765Y-78697000D01*
X140341837Y-78697000D01*
X140216036Y-78875810D01*
X140224728Y-78937337D01*
X140255176Y-79005943D01*
X140220498Y-79070820D01*
X140184188Y-79190518D01*
X140171928Y-79315000D01*
X127902510Y-79315000D01*
X127925000Y-79201939D01*
X127925000Y-79139801D01*
X129556801Y-77508000D01*
X131424928Y-77508000D01*
X131437188Y-77632482D01*
X131473498Y-77752180D01*
X131532463Y-77862494D01*
X131611815Y-77959185D01*
X131708506Y-78038537D01*
X131818820Y-78097502D01*
X131938518Y-78133812D01*
X132063000Y-78146072D01*
X133277250Y-78143000D01*
X133436000Y-77984250D01*
X133436000Y-76835000D01*
X133690000Y-76835000D01*
X133690000Y-77984250D01*
X133848750Y-78143000D01*
X135063000Y-78146072D01*
X135187482Y-78133812D01*
X135307180Y-78097502D01*
X135417494Y-78038537D01*
X135514185Y-77959185D01*
X135593537Y-77862494D01*
X135652502Y-77752180D01*
X135688812Y-77632482D01*
X135701072Y-77508000D01*
X135698000Y-76993750D01*
X135539250Y-76835000D01*
X133690000Y-76835000D01*
X133436000Y-76835000D01*
X131586750Y-76835000D01*
X131428000Y-76993750D01*
X131424928Y-77508000D01*
X129556801Y-77508000D01*
X131444802Y-75620000D01*
X131496921Y-75620000D01*
X131473498Y-75663820D01*
X131437188Y-75783518D01*
X131424928Y-75908000D01*
X131428000Y-76422250D01*
X131586750Y-76581000D01*
X133436000Y-76581000D01*
X133436000Y-76561000D01*
X133690000Y-76561000D01*
X133690000Y-76581000D01*
X135539250Y-76581000D01*
X135698000Y-76422250D01*
X135701072Y-75908000D01*
X135688812Y-75783518D01*
X135652502Y-75663820D01*
X135629079Y-75620000D01*
X136011209Y-75620000D01*
X135974595Y-75664614D01*
X135892528Y-75818150D01*
X135841992Y-75984746D01*
X135824928Y-76158000D01*
X135824928Y-77258000D01*
X135841992Y-77431254D01*
X135892528Y-77597850D01*
X135974595Y-77751386D01*
X136085038Y-77885962D01*
X136219614Y-77996405D01*
X136373150Y-78078472D01*
X136539746Y-78129008D01*
X136713000Y-78146072D01*
X139213000Y-78146072D01*
X139386254Y-78129008D01*
X139471991Y-78103000D01*
X140268959Y-78103000D01*
X140224728Y-78202663D01*
X140216036Y-78264190D01*
X140341837Y-78443000D01*
X141106891Y-78443000D01*
X141107600Y-78443215D01*
X141278021Y-78460000D01*
X141841979Y-78460000D01*
X142012400Y-78443215D01*
X142013109Y-78443000D01*
X142778163Y-78443000D01*
X142903964Y-78264190D01*
X142895272Y-78202663D01*
X142802275Y-77993118D01*
X142761071Y-77934669D01*
X142861885Y-77746060D01*
X142928215Y-77527400D01*
X142950612Y-77300000D01*
X142928215Y-77072600D01*
X142893562Y-76958363D01*
X143345000Y-77409802D01*
X143345001Y-82358445D01*
X143289392Y-82388169D01*
X143162394Y-82492394D01*
X143058169Y-82619392D01*
X142980722Y-82764284D01*
X142933031Y-82921500D01*
X142916928Y-83085000D01*
X142916928Y-83635000D01*
X142933031Y-83798500D01*
X142980722Y-83955716D01*
X143058169Y-84100608D01*
X143162394Y-84227606D01*
X143289392Y-84331831D01*
X143434284Y-84409278D01*
X143591500Y-84456969D01*
X143755000Y-84473072D01*
X144155000Y-84473072D01*
X144318500Y-84456969D01*
X144475716Y-84409278D01*
X144620608Y-84331831D01*
X144747606Y-84227606D01*
X144780000Y-84188134D01*
X144812394Y-84227606D01*
X144939392Y-84331831D01*
X145084284Y-84409278D01*
X145241500Y-84456969D01*
X145405000Y-84473072D01*
X145805000Y-84473072D01*
X145968500Y-84456969D01*
X146125716Y-84409278D01*
X146270608Y-84331831D01*
X146397606Y-84227606D01*
X146429058Y-84189282D01*
X146454155Y-84236235D01*
X146652537Y-84477963D01*
X146894265Y-84676345D01*
X147170051Y-84823755D01*
X147469296Y-84914530D01*
X147702514Y-84937500D01*
X147953486Y-84937500D01*
X148186704Y-84914530D01*
X148485949Y-84823755D01*
X148761735Y-84676345D01*
X149003463Y-84477963D01*
X149201845Y-84236235D01*
X149349255Y-83960449D01*
X149440030Y-83661204D01*
X149470681Y-83350000D01*
X149440030Y-83038796D01*
X149349255Y-82739551D01*
X149201845Y-82463765D01*
X149003463Y-82222037D01*
X148830391Y-82080000D01*
X148946149Y-81984999D01*
X150866928Y-81984999D01*
X150866928Y-84235001D01*
X150883992Y-84408255D01*
X150934528Y-84574851D01*
X151016595Y-84728387D01*
X151127038Y-84862962D01*
X151261613Y-84973405D01*
X151415149Y-85055472D01*
X151581745Y-85106008D01*
X151754999Y-85123072D01*
X154005001Y-85123072D01*
X154178255Y-85106008D01*
X154344851Y-85055472D01*
X154498387Y-84973405D01*
X154632962Y-84862962D01*
X154743405Y-84728387D01*
X154825472Y-84574851D01*
X154876008Y-84408255D01*
X154893072Y-84235001D01*
X154893072Y-81984999D01*
X154876008Y-81811745D01*
X154825472Y-81645149D01*
X154743405Y-81491613D01*
X154632962Y-81357038D01*
X154498387Y-81246595D01*
X154344851Y-81164528D01*
X154178255Y-81113992D01*
X154005001Y-81096928D01*
X151754999Y-81096928D01*
X151581745Y-81113992D01*
X151415149Y-81164528D01*
X151261613Y-81246595D01*
X151127038Y-81357038D01*
X151016595Y-81491613D01*
X150934528Y-81645149D01*
X150883992Y-81811745D01*
X150866928Y-81984999D01*
X148946149Y-81984999D01*
X149003463Y-81937963D01*
X149201845Y-81696235D01*
X149349255Y-81420449D01*
X149440030Y-81121204D01*
X149470681Y-80810000D01*
X149440030Y-80498796D01*
X149349255Y-80199551D01*
X149201845Y-79923765D01*
X149098554Y-79797905D01*
X149182494Y-79753037D01*
X149279185Y-79673685D01*
X149358537Y-79576994D01*
X149417502Y-79466680D01*
X149453812Y-79346982D01*
X149466072Y-79222500D01*
X149466072Y-77512032D01*
X150870000Y-77512032D01*
X150870000Y-77907968D01*
X150947243Y-78296296D01*
X151098761Y-78662092D01*
X151318731Y-78991301D01*
X151598699Y-79271269D01*
X151927908Y-79491239D01*
X152293704Y-79642757D01*
X152682032Y-79720000D01*
X153077968Y-79720000D01*
X153466296Y-79642757D01*
X153832092Y-79491239D01*
X154161301Y-79271269D01*
X154441269Y-78991301D01*
X154661239Y-78662092D01*
X154812757Y-78296296D01*
X154890000Y-77907968D01*
X154890000Y-77512032D01*
X154812757Y-77123704D01*
X154661239Y-76757908D01*
X154441269Y-76428699D01*
X154161301Y-76148731D01*
X153832092Y-75928761D01*
X153466296Y-75777243D01*
X153077968Y-75700000D01*
X152682032Y-75700000D01*
X152293704Y-75777243D01*
X151927908Y-75928761D01*
X151598699Y-76148731D01*
X151318731Y-76428699D01*
X151098761Y-76757908D01*
X150947243Y-77123704D01*
X150870000Y-77512032D01*
X149466072Y-77512032D01*
X149466072Y-77317500D01*
X149453812Y-77193018D01*
X149417502Y-77073320D01*
X149358537Y-76963006D01*
X149279185Y-76866315D01*
X149182494Y-76786963D01*
X149072180Y-76727998D01*
X148952482Y-76691688D01*
X148828000Y-76679428D01*
X148491802Y-76679428D01*
X148489003Y-76651014D01*
X148445546Y-76507753D01*
X148374974Y-76375724D01*
X148335009Y-76327026D01*
X148280001Y-76259999D01*
X148251003Y-76236201D01*
X145383804Y-73369003D01*
X145360001Y-73339999D01*
X145244276Y-73245026D01*
X145112247Y-73174454D01*
X144968986Y-73130997D01*
X144857333Y-73120000D01*
X144857322Y-73120000D01*
X144820000Y-73116324D01*
X144782678Y-73120000D01*
X134693711Y-73120000D01*
X134649774Y-73076063D01*
X134480256Y-72962795D01*
X134291898Y-72884774D01*
X134091939Y-72845000D01*
X133888061Y-72845000D01*
X133688102Y-72884774D01*
X133499744Y-72962795D01*
X133330226Y-73076063D01*
X133186063Y-73220226D01*
X133072795Y-73389744D01*
X132994774Y-73578102D01*
X132955000Y-73778061D01*
X132955000Y-73981939D01*
X132978484Y-74100000D01*
X131167333Y-74100000D01*
X131130000Y-74096323D01*
X131092667Y-74100000D01*
X130981014Y-74110997D01*
X130837753Y-74154454D01*
X130705724Y-74225026D01*
X130589999Y-74319999D01*
X130566201Y-74348997D01*
X127779846Y-77135353D01*
X127779000Y-76993750D01*
X127620250Y-76835000D01*
X125771000Y-76835000D01*
X125517000Y-76835000D01*
X123667750Y-76835000D01*
X123509000Y-76993750D01*
X123505928Y-77508000D01*
X123341727Y-77508000D01*
X123365008Y-77431254D01*
X123382072Y-77258000D01*
X123382072Y-76158000D01*
X123365008Y-75984746D01*
X123341728Y-75908000D01*
X123505928Y-75908000D01*
X123509000Y-76422250D01*
X123667750Y-76581000D01*
X125517000Y-76581000D01*
X125517000Y-75431750D01*
X125771000Y-75431750D01*
X125771000Y-76581000D01*
X127620250Y-76581000D01*
X127779000Y-76422250D01*
X127782072Y-75908000D01*
X127769812Y-75783518D01*
X127733502Y-75663820D01*
X127674537Y-75553506D01*
X127595185Y-75456815D01*
X127498494Y-75377463D01*
X127388180Y-75318498D01*
X127268482Y-75282188D01*
X127144000Y-75269928D01*
X125929750Y-75273000D01*
X125771000Y-75431750D01*
X125517000Y-75431750D01*
X125358250Y-75273000D01*
X124144000Y-75269928D01*
X124019518Y-75282188D01*
X123899820Y-75318498D01*
X123789506Y-75377463D01*
X123692815Y-75456815D01*
X123613463Y-75553506D01*
X123554498Y-75663820D01*
X123518188Y-75783518D01*
X123505928Y-75908000D01*
X123341728Y-75908000D01*
X123314472Y-75818150D01*
X123232405Y-75664614D01*
X123121962Y-75530038D01*
X122987386Y-75419595D01*
X122833850Y-75337528D01*
X122667254Y-75286992D01*
X122494000Y-75269928D01*
X119994000Y-75269928D01*
X119820746Y-75286992D01*
X119654150Y-75337528D01*
X119500614Y-75419595D01*
X119366038Y-75530038D01*
X119255595Y-75664614D01*
X119173528Y-75818150D01*
X119122992Y-75984746D01*
X119122279Y-75991981D01*
X119087753Y-76002454D01*
X118955724Y-76073026D01*
X118839999Y-76167999D01*
X118816196Y-76197003D01*
X118568756Y-76444443D01*
X118539758Y-76468241D01*
X118515960Y-76497239D01*
X118515959Y-76497240D01*
X118444784Y-76583966D01*
X118374212Y-76715996D01*
X118360055Y-76762667D01*
X118330756Y-76859256D01*
X118320636Y-76962001D01*
X118316082Y-77008242D01*
X118319759Y-77045574D01*
X118319759Y-77508421D01*
X118275821Y-77552359D01*
X118162553Y-77721877D01*
X118084532Y-77910235D01*
X118044758Y-78110194D01*
X118044758Y-78314072D01*
X118084532Y-78514031D01*
X118162553Y-78702389D01*
X118275821Y-78871907D01*
X118319758Y-78915844D01*
X118319759Y-81886530D01*
X118256063Y-81950226D01*
X118142795Y-82119744D01*
X118064774Y-82308102D01*
X118025000Y-82508061D01*
X116090631Y-82508061D01*
X115891301Y-82308731D01*
X115562092Y-82088761D01*
X115196296Y-81937243D01*
X114807968Y-81860000D01*
X114412032Y-81860000D01*
X114023704Y-81937243D01*
X113657908Y-82088761D01*
X113328699Y-82308731D01*
X113048731Y-82588699D01*
X112828761Y-82917908D01*
X112690000Y-83252906D01*
X112690000Y-79982506D01*
X112746595Y-80088387D01*
X112857038Y-80222962D01*
X112991613Y-80333405D01*
X113145149Y-80415472D01*
X113311745Y-80466008D01*
X113484999Y-80483072D01*
X115735001Y-80483072D01*
X115908255Y-80466008D01*
X116074851Y-80415472D01*
X116228387Y-80333405D01*
X116362962Y-80222962D01*
X116473405Y-80088387D01*
X116555472Y-79934851D01*
X116606008Y-79768255D01*
X116623072Y-79595001D01*
X116623072Y-77344999D01*
X116606008Y-77171745D01*
X116555472Y-77005149D01*
X116473405Y-76851613D01*
X116362962Y-76717038D01*
X116228387Y-76606595D01*
X116074851Y-76524528D01*
X115908255Y-76473992D01*
X115735001Y-76456928D01*
X113484999Y-76456928D01*
X113311745Y-76473992D01*
X113145149Y-76524528D01*
X112991613Y-76606595D01*
X112857038Y-76717038D01*
X112746595Y-76851613D01*
X112690000Y-76957494D01*
X112690000Y-75375803D01*
X120219285Y-70670000D01*
X159756620Y-70670000D01*
X162370000Y-73283381D01*
G36*
X146591014Y-76725816D02*
G01*
X146583820Y-76727998D01*
X146473506Y-76786963D01*
X146376815Y-76866315D01*
X146297463Y-76963006D01*
X146238498Y-77073320D01*
X146202188Y-77193018D01*
X146189928Y-77317500D01*
X146189928Y-79222500D01*
X146202188Y-79346982D01*
X146238498Y-79466680D01*
X146297463Y-79576994D01*
X146376815Y-79673685D01*
X146473506Y-79753037D01*
X146557446Y-79797905D01*
X146454155Y-79923765D01*
X146306745Y-80199551D01*
X146215970Y-80498796D01*
X146185319Y-80810000D01*
X146215970Y-81121204D01*
X146306745Y-81420449D01*
X146454155Y-81696235D01*
X146652537Y-81937963D01*
X146825609Y-82080000D01*
X146652537Y-82222037D01*
X146454155Y-82463765D01*
X146422584Y-82522830D01*
X146397606Y-82492394D01*
X146270608Y-82388169D01*
X146125716Y-82310722D01*
X145968500Y-82263031D01*
X145805000Y-82246928D01*
X145405000Y-82246928D01*
X145241500Y-82263031D01*
X145084284Y-82310722D01*
X144939392Y-82388169D01*
X144865000Y-82449221D01*
X144865000Y-77132322D01*
X144868676Y-77094999D01*
X144865000Y-77057676D01*
X144865000Y-77057667D01*
X144854003Y-76946014D01*
X144810546Y-76802753D01*
X144739974Y-76670724D01*
X144645001Y-76554999D01*
X144616004Y-76531202D01*
X142724801Y-74640000D01*
X144505199Y-74640000D01*
X146591014Y-76725816D01*
X146591014Y-76725816D01*
G37*
X146591014Y-76725816D02*
X146583820Y-76727998D01*
X146473506Y-76786963D01*
X146376815Y-76866315D01*
X146297463Y-76963006D01*
X146238498Y-77073320D01*
X146202188Y-77193018D01*
X146189928Y-77317500D01*
X146189928Y-79222500D01*
X146202188Y-79346982D01*
X146238498Y-79466680D01*
X146297463Y-79576994D01*
X146376815Y-79673685D01*
X146473506Y-79753037D01*
X146557446Y-79797905D01*
X146454155Y-79923765D01*
X146306745Y-80199551D01*
X146215970Y-80498796D01*
X146185319Y-80810000D01*
X146215970Y-81121204D01*
X146306745Y-81420449D01*
X146454155Y-81696235D01*
X146652537Y-81937963D01*
X146825609Y-82080000D01*
X146652537Y-82222037D01*
X146454155Y-82463765D01*
X146422584Y-82522830D01*
X146397606Y-82492394D01*
X146270608Y-82388169D01*
X146125716Y-82310722D01*
X145968500Y-82263031D01*
X145805000Y-82246928D01*
X145405000Y-82246928D01*
X145241500Y-82263031D01*
X145084284Y-82310722D01*
X144939392Y-82388169D01*
X144865000Y-82449221D01*
X144865000Y-77132322D01*
X144868676Y-77094999D01*
X144865000Y-77057676D01*
X144865000Y-77057667D01*
X144854003Y-76946014D01*
X144810546Y-76802753D01*
X144739974Y-76670724D01*
X144645001Y-76554999D01*
X144616004Y-76531202D01*
X142724801Y-74640000D01*
X144505199Y-74640000D01*
X146591014Y-76725816D01*
M02*
