M48
; DRILL file {KiCad (5.1.12-1-10_14)} date 2023 February 19, Sunday 18:16:00
; FORMAT={-:-/ absolute / inch / decimal}
; #@! TF.CreationDate,2023-02-19T18:16:00+01:00
; #@! TF.GenerationSoftware,Kicad,Pcbnew,(5.1.12-1-10_14)
; #@! TF.FileFunction,Plated,1,2,PTH
FMAT,2
INCH
T1C0.0157
T2C0.0295
T3C0.0315
T4C0.0394
T5C0.0433
T6C0.0689
%
G90
G05
T1
X4.9546Y-4.78
X5.871Y-4.372
X5.9Y-4.34
X5.9785Y-4.34
X6.15Y-4.6
T2
X5.58Y-4.55
X5.58Y-4.6
X5.58Y-4.65
T3
X6.32Y-4.24
X6.32Y-4.34
T4
X5.1Y-4.6
X5.3Y-4.6
T5
X6.32Y-4.54
X6.32Y-4.64
X6.32Y-4.74
T6
X5.16Y-4.24
X5.3726Y-4.24
X5.4Y-4.85
X5.56Y-4.24
X5.6126Y-4.85
X5.7726Y-4.24
X5.83Y-4.98
X5.95Y-4.24
X6.0426Y-4.98
X6.1626Y-4.24
X6.59Y-4.4274
X6.59Y-4.64
T0
M30
