G04 #@! TF.GenerationSoftware,KiCad,Pcbnew,(5.1.0-0)*
G04 #@! TF.CreationDate,2021-09-25T20:45:45+02:00*
G04 #@! TF.ProjectId,Kaefer_Konstanter_Tank,4b616566-6572-45f4-9b6f-6e7374616e74,rev?*
G04 #@! TF.SameCoordinates,Original*
G04 #@! TF.FileFunction,Soldermask,Top*
G04 #@! TF.FilePolarity,Negative*
%FSLAX46Y46*%
G04 Gerber Fmt 4.6, Leading zero omitted, Abs format (unit mm)*
G04 Created by KiCad (PCBNEW (5.1.0-0)) date 2021-09-25 20:45:45*
%MOMM*%
%LPD*%
G04 APERTURE LIST*
%ADD10C,0.100000*%
G04 APERTURE END LIST*
D10*
G36*
X147700000Y-106985000D02*
G01*
X144933299Y-106987444D01*
X142046139Y-106989995D01*
X142046135Y-106989995D01*
X142040000Y-106990000D01*
X142040000Y-93094999D01*
X142037598Y-93070613D01*
X142030485Y-93047164D01*
X142018934Y-93025553D01*
X142003389Y-93006611D01*
X141984447Y-92991066D01*
X141962836Y-92979515D01*
X141939387Y-92972402D01*
X141915001Y-92970000D01*
X138174999Y-92970000D01*
X138150613Y-92972402D01*
X138127164Y-92979515D01*
X138105553Y-92991066D01*
X138086611Y-93006611D01*
X138071066Y-93025553D01*
X138059515Y-93047164D01*
X138052402Y-93070613D01*
X138050000Y-93094999D01*
X138050000Y-106940000D01*
X132230000Y-106950000D01*
X132230000Y-91010000D01*
X132236110Y-91009994D01*
X132236111Y-91009994D01*
X141758085Y-91000761D01*
X147700000Y-90995000D01*
X147700000Y-106985000D01*
X147700000Y-106985000D01*
G37*
G36*
X148068228Y-87151703D02*
G01*
X148223100Y-87215853D01*
X148362481Y-87308985D01*
X148481015Y-87427519D01*
X148574147Y-87566900D01*
X148638297Y-87721772D01*
X148671000Y-87886184D01*
X148671000Y-88053816D01*
X148638297Y-88218228D01*
X148574147Y-88373100D01*
X148481015Y-88512481D01*
X148362481Y-88631015D01*
X148223100Y-88724147D01*
X148068228Y-88788297D01*
X147903816Y-88821000D01*
X147736184Y-88821000D01*
X147571772Y-88788297D01*
X147416900Y-88724147D01*
X147277519Y-88631015D01*
X147158985Y-88512481D01*
X147065853Y-88373100D01*
X147001703Y-88218228D01*
X146969000Y-88053816D01*
X146969000Y-87886184D01*
X147001703Y-87721772D01*
X147065853Y-87566900D01*
X147158985Y-87427519D01*
X147277519Y-87308985D01*
X147416900Y-87215853D01*
X147571772Y-87151703D01*
X147736184Y-87119000D01*
X147903816Y-87119000D01*
X148068228Y-87151703D01*
X148068228Y-87151703D01*
G37*
G36*
X150526823Y-87131313D02*
G01*
X150687242Y-87179976D01*
X150754361Y-87215852D01*
X150835078Y-87258996D01*
X150964659Y-87365341D01*
X151071004Y-87494922D01*
X151071005Y-87494924D01*
X151150024Y-87642758D01*
X151198687Y-87803177D01*
X151215117Y-87970000D01*
X151198687Y-88136823D01*
X151150024Y-88297242D01*
X151109477Y-88373100D01*
X151071004Y-88445078D01*
X150964659Y-88574659D01*
X150835078Y-88681004D01*
X150835076Y-88681005D01*
X150687242Y-88760024D01*
X150526823Y-88808687D01*
X150401804Y-88821000D01*
X150318196Y-88821000D01*
X150193177Y-88808687D01*
X150032758Y-88760024D01*
X149884924Y-88681005D01*
X149884922Y-88681004D01*
X149755341Y-88574659D01*
X149648996Y-88445078D01*
X149610523Y-88373100D01*
X149569976Y-88297242D01*
X149521313Y-88136823D01*
X149504883Y-87970000D01*
X149521313Y-87803177D01*
X149569976Y-87642758D01*
X149648995Y-87494924D01*
X149648996Y-87494922D01*
X149755341Y-87365341D01*
X149884922Y-87258996D01*
X149965639Y-87215852D01*
X150032758Y-87179976D01*
X150193177Y-87131313D01*
X150318196Y-87119000D01*
X150401804Y-87119000D01*
X150526823Y-87131313D01*
X150526823Y-87131313D01*
G37*
G36*
X129165949Y-83588800D02*
G01*
X129425463Y-83696294D01*
X129484709Y-83735881D01*
X129659022Y-83852353D01*
X129857647Y-84050978D01*
X129913479Y-84134537D01*
X130013706Y-84284537D01*
X130121200Y-84544051D01*
X130176000Y-84819550D01*
X130176000Y-85100450D01*
X130121200Y-85375949D01*
X130013706Y-85635463D01*
X129936206Y-85751450D01*
X129857647Y-85869022D01*
X129659022Y-86067647D01*
X129570601Y-86126728D01*
X129425463Y-86223706D01*
X129165949Y-86331200D01*
X128890450Y-86386000D01*
X128609550Y-86386000D01*
X128334051Y-86331200D01*
X128074537Y-86223706D01*
X127929399Y-86126728D01*
X127840978Y-86067647D01*
X127642353Y-85869022D01*
X127563794Y-85751450D01*
X127486294Y-85635463D01*
X127378800Y-85375949D01*
X127324000Y-85100450D01*
X127324000Y-84819550D01*
X127378800Y-84544051D01*
X127486294Y-84284537D01*
X127586521Y-84134537D01*
X127642353Y-84050978D01*
X127840978Y-83852353D01*
X128015291Y-83735881D01*
X128074537Y-83696294D01*
X128334051Y-83588800D01*
X128609550Y-83534000D01*
X128890450Y-83534000D01*
X129165949Y-83588800D01*
X129165949Y-83588800D01*
G37*
G36*
X124649509Y-83537610D02*
G01*
X124678851Y-83546511D01*
X124705890Y-83560963D01*
X124729588Y-83580412D01*
X124749037Y-83604110D01*
X124763489Y-83631149D01*
X124772390Y-83660491D01*
X124776000Y-83697141D01*
X124776000Y-86222859D01*
X124772390Y-86259509D01*
X124763489Y-86288851D01*
X124749037Y-86315890D01*
X124729588Y-86339588D01*
X124705890Y-86359037D01*
X124678851Y-86373489D01*
X124649509Y-86382390D01*
X124612859Y-86386000D01*
X122087141Y-86386000D01*
X122050491Y-86382390D01*
X122021149Y-86373489D01*
X121994110Y-86359037D01*
X121970412Y-86339588D01*
X121950963Y-86315890D01*
X121936511Y-86288851D01*
X121927610Y-86259509D01*
X121924000Y-86222859D01*
X121924000Y-83697141D01*
X121927610Y-83660491D01*
X121936511Y-83631149D01*
X121950963Y-83604110D01*
X121970412Y-83580412D01*
X121994110Y-83560963D01*
X122021149Y-83546511D01*
X122050491Y-83537610D01*
X122087141Y-83534000D01*
X124612859Y-83534000D01*
X124649509Y-83537610D01*
X124649509Y-83537610D01*
G37*
G36*
X140755949Y-83438800D02*
G01*
X141015463Y-83546294D01*
X141084901Y-83592691D01*
X141249022Y-83702353D01*
X141447647Y-83900978D01*
X141447648Y-83900980D01*
X141603706Y-84134537D01*
X141711200Y-84394051D01*
X141766000Y-84669550D01*
X141766000Y-84950450D01*
X141711200Y-85225949D01*
X141603706Y-85485463D01*
X141603705Y-85485464D01*
X141447647Y-85719022D01*
X141249022Y-85917647D01*
X141160601Y-85976728D01*
X141015463Y-86073706D01*
X140755949Y-86181200D01*
X140480450Y-86236000D01*
X140199550Y-86236000D01*
X139924051Y-86181200D01*
X139664537Y-86073706D01*
X139519399Y-85976728D01*
X139430978Y-85917647D01*
X139232353Y-85719022D01*
X139076295Y-85485464D01*
X139076294Y-85485463D01*
X138968800Y-85225949D01*
X138914000Y-84950450D01*
X138914000Y-84669550D01*
X138968800Y-84394051D01*
X139076294Y-84134537D01*
X139232352Y-83900980D01*
X139232353Y-83900978D01*
X139430978Y-83702353D01*
X139595099Y-83592691D01*
X139664537Y-83546294D01*
X139924051Y-83438800D01*
X140199550Y-83384000D01*
X140480450Y-83384000D01*
X140755949Y-83438800D01*
X140755949Y-83438800D01*
G37*
G36*
X136239509Y-83387610D02*
G01*
X136268851Y-83396511D01*
X136295890Y-83410963D01*
X136319588Y-83430412D01*
X136339037Y-83454110D01*
X136353489Y-83481149D01*
X136362390Y-83510491D01*
X136366000Y-83547141D01*
X136366000Y-86072859D01*
X136362390Y-86109509D01*
X136353489Y-86138851D01*
X136339037Y-86165890D01*
X136319588Y-86189588D01*
X136295890Y-86209037D01*
X136268851Y-86223489D01*
X136239509Y-86232390D01*
X136202859Y-86236000D01*
X133677141Y-86236000D01*
X133640491Y-86232390D01*
X133611149Y-86223489D01*
X133584110Y-86209037D01*
X133560412Y-86189588D01*
X133540963Y-86165890D01*
X133526511Y-86138851D01*
X133517610Y-86109509D01*
X133514000Y-86072859D01*
X133514000Y-83547141D01*
X133517610Y-83510491D01*
X133526511Y-83481149D01*
X133540963Y-83454110D01*
X133560412Y-83430412D01*
X133584110Y-83410963D01*
X133611149Y-83396511D01*
X133640491Y-83387610D01*
X133677141Y-83384000D01*
X136202859Y-83384000D01*
X136239509Y-83387610D01*
X136239509Y-83387610D01*
G37*
G36*
X115025949Y-82498800D02*
G01*
X115285463Y-82606294D01*
X115285464Y-82606295D01*
X115519022Y-82762353D01*
X115717647Y-82960978D01*
X115754082Y-83015507D01*
X115873706Y-83194537D01*
X115981200Y-83454051D01*
X116036000Y-83729550D01*
X116036000Y-84010450D01*
X115981200Y-84285949D01*
X115873706Y-84545463D01*
X115873705Y-84545464D01*
X115717647Y-84779022D01*
X115519022Y-84977647D01*
X115401450Y-85056206D01*
X115285463Y-85133706D01*
X115025949Y-85241200D01*
X114750450Y-85296000D01*
X114469550Y-85296000D01*
X114194051Y-85241200D01*
X113934537Y-85133706D01*
X113818550Y-85056206D01*
X113700978Y-84977647D01*
X113502353Y-84779022D01*
X113346295Y-84545464D01*
X113346294Y-84545463D01*
X113238800Y-84285949D01*
X113184000Y-84010450D01*
X113184000Y-83729550D01*
X113238800Y-83454051D01*
X113346294Y-83194537D01*
X113465918Y-83015507D01*
X113502353Y-82960978D01*
X113700978Y-82762353D01*
X113934536Y-82606295D01*
X113934537Y-82606294D01*
X114194051Y-82498800D01*
X114469550Y-82444000D01*
X114750450Y-82444000D01*
X115025949Y-82498800D01*
X115025949Y-82498800D01*
G37*
G36*
X154179509Y-81687610D02*
G01*
X154208851Y-81696511D01*
X154235890Y-81710963D01*
X154259588Y-81730412D01*
X154279037Y-81754110D01*
X154293489Y-81781149D01*
X154302390Y-81810491D01*
X154306000Y-81847141D01*
X154306000Y-84372859D01*
X154302390Y-84409509D01*
X154293489Y-84438851D01*
X154279037Y-84465890D01*
X154259588Y-84489588D01*
X154235890Y-84509037D01*
X154208851Y-84523489D01*
X154179509Y-84532390D01*
X154142859Y-84536000D01*
X151617141Y-84536000D01*
X151580491Y-84532390D01*
X151551149Y-84523489D01*
X151524110Y-84509037D01*
X151500412Y-84489588D01*
X151480963Y-84465890D01*
X151466511Y-84438851D01*
X151457610Y-84409509D01*
X151454000Y-84372859D01*
X151454000Y-81847141D01*
X151457610Y-81810491D01*
X151466511Y-81781149D01*
X151480963Y-81754110D01*
X151500412Y-81730412D01*
X151524110Y-81710963D01*
X151551149Y-81696511D01*
X151580491Y-81687610D01*
X151617141Y-81684000D01*
X154142859Y-81684000D01*
X154179509Y-81687610D01*
X154179509Y-81687610D01*
G37*
G36*
X147973936Y-82351340D02*
G01*
X148072220Y-82361020D01*
X148261381Y-82418401D01*
X148435712Y-82511583D01*
X148588515Y-82636985D01*
X148713917Y-82789788D01*
X148807099Y-82964119D01*
X148864480Y-83153280D01*
X148883855Y-83350000D01*
X148864480Y-83546720D01*
X148807099Y-83735881D01*
X148713917Y-83910212D01*
X148588515Y-84063015D01*
X148435712Y-84188417D01*
X148261381Y-84281599D01*
X148072220Y-84338980D01*
X147973936Y-84348660D01*
X147924795Y-84353500D01*
X147731205Y-84353500D01*
X147682064Y-84348660D01*
X147583780Y-84338980D01*
X147394619Y-84281599D01*
X147220288Y-84188417D01*
X147067485Y-84063015D01*
X146942083Y-83910212D01*
X146848901Y-83735881D01*
X146791520Y-83546720D01*
X146772145Y-83350000D01*
X146791520Y-83153280D01*
X146848901Y-82964119D01*
X146942083Y-82789788D01*
X147067485Y-82636985D01*
X147220288Y-82511583D01*
X147394619Y-82418401D01*
X147583780Y-82361020D01*
X147682064Y-82351340D01*
X147731205Y-82346500D01*
X147924795Y-82346500D01*
X147973936Y-82351340D01*
X147973936Y-82351340D01*
G37*
G36*
X144274683Y-82837725D02*
G01*
X144305143Y-82846966D01*
X144333223Y-82861974D01*
X144357831Y-82882169D01*
X144378026Y-82906777D01*
X144393034Y-82934857D01*
X144402275Y-82965317D01*
X144406000Y-83003140D01*
X144406000Y-83716860D01*
X144402275Y-83754683D01*
X144393034Y-83785143D01*
X144378026Y-83813223D01*
X144357831Y-83837831D01*
X144333223Y-83858026D01*
X144305143Y-83873034D01*
X144274683Y-83882275D01*
X144236860Y-83886000D01*
X143673140Y-83886000D01*
X143635317Y-83882275D01*
X143604857Y-83873034D01*
X143576777Y-83858026D01*
X143552169Y-83837831D01*
X143531974Y-83813223D01*
X143516966Y-83785143D01*
X143507725Y-83754683D01*
X143504000Y-83716860D01*
X143504000Y-83003140D01*
X143507725Y-82965317D01*
X143516966Y-82934857D01*
X143531974Y-82906777D01*
X143552169Y-82882169D01*
X143576777Y-82861974D01*
X143604857Y-82846966D01*
X143635317Y-82837725D01*
X143673140Y-82834000D01*
X144236860Y-82834000D01*
X144274683Y-82837725D01*
X144274683Y-82837725D01*
G37*
G36*
X145924683Y-82837725D02*
G01*
X145955143Y-82846966D01*
X145983223Y-82861974D01*
X146007831Y-82882169D01*
X146028026Y-82906777D01*
X146043034Y-82934857D01*
X146052275Y-82965317D01*
X146056000Y-83003140D01*
X146056000Y-83716860D01*
X146052275Y-83754683D01*
X146043034Y-83785143D01*
X146028026Y-83813223D01*
X146007831Y-83837831D01*
X145983223Y-83858026D01*
X145955143Y-83873034D01*
X145924683Y-83882275D01*
X145886860Y-83886000D01*
X145323140Y-83886000D01*
X145285317Y-83882275D01*
X145254857Y-83873034D01*
X145226777Y-83858026D01*
X145202169Y-83837831D01*
X145181974Y-83813223D01*
X145166966Y-83785143D01*
X145157725Y-83754683D01*
X145154000Y-83716860D01*
X145154000Y-83003140D01*
X145157725Y-82965317D01*
X145166966Y-82934857D01*
X145181974Y-82906777D01*
X145202169Y-82882169D01*
X145226777Y-82861974D01*
X145254857Y-82846966D01*
X145285317Y-82837725D01*
X145323140Y-82834000D01*
X145886860Y-82834000D01*
X145924683Y-82837725D01*
X145924683Y-82837725D01*
G37*
G36*
X147973936Y-79811340D02*
G01*
X148072220Y-79821020D01*
X148261381Y-79878401D01*
X148435712Y-79971583D01*
X148588515Y-80096985D01*
X148713917Y-80249788D01*
X148807099Y-80424119D01*
X148864480Y-80613280D01*
X148883855Y-80810000D01*
X148864480Y-81006720D01*
X148807099Y-81195881D01*
X148713917Y-81370212D01*
X148588515Y-81523015D01*
X148435712Y-81648417D01*
X148261381Y-81741599D01*
X148072220Y-81798980D01*
X147973936Y-81808660D01*
X147924795Y-81813500D01*
X147731205Y-81813500D01*
X147682064Y-81808660D01*
X147583780Y-81798980D01*
X147394619Y-81741599D01*
X147220288Y-81648417D01*
X147067485Y-81523015D01*
X146942083Y-81370212D01*
X146848901Y-81195881D01*
X146791520Y-81006720D01*
X146772145Y-80810000D01*
X146791520Y-80613280D01*
X146848901Y-80424119D01*
X146942083Y-80249788D01*
X147067485Y-80096985D01*
X147220288Y-79971583D01*
X147394619Y-79878401D01*
X147583780Y-79821020D01*
X147682064Y-79811340D01*
X147731205Y-79806500D01*
X147924795Y-79806500D01*
X147973936Y-79811340D01*
X147973936Y-79811340D01*
G37*
G36*
X141897916Y-76732334D02*
G01*
X142006492Y-76765271D01*
X142006495Y-76765272D01*
X142042601Y-76784571D01*
X142106557Y-76818756D01*
X142194264Y-76890736D01*
X142266244Y-76978443D01*
X142296226Y-77034536D01*
X142319728Y-77078505D01*
X142319729Y-77078508D01*
X142352666Y-77187084D01*
X142363787Y-77300000D01*
X142352666Y-77412916D01*
X142319729Y-77521492D01*
X142319728Y-77521495D01*
X142302412Y-77553890D01*
X142266244Y-77621557D01*
X142194264Y-77709264D01*
X142106557Y-77781244D01*
X142025141Y-77824761D01*
X142004766Y-77838375D01*
X141987439Y-77855702D01*
X141973826Y-77876076D01*
X141964448Y-77898715D01*
X141959668Y-77922748D01*
X141959668Y-77947252D01*
X141964448Y-77971285D01*
X141973826Y-77993924D01*
X141987440Y-78014299D01*
X142004767Y-78031626D01*
X142025141Y-78045239D01*
X142106557Y-78088756D01*
X142194264Y-78160736D01*
X142266244Y-78248443D01*
X142300429Y-78312399D01*
X142319728Y-78348505D01*
X142319729Y-78348508D01*
X142352666Y-78457084D01*
X142363787Y-78570000D01*
X142352666Y-78682916D01*
X142319729Y-78791492D01*
X142319728Y-78791495D01*
X142305749Y-78817647D01*
X142266244Y-78891557D01*
X142194264Y-78979264D01*
X142117354Y-79042383D01*
X142100035Y-79059702D01*
X142086421Y-79080077D01*
X142077043Y-79102716D01*
X142072263Y-79126749D01*
X142072263Y-79151253D01*
X142077043Y-79175286D01*
X142086421Y-79197925D01*
X142100034Y-79218299D01*
X142117361Y-79235626D01*
X142137736Y-79249240D01*
X142160375Y-79258618D01*
X142184408Y-79263398D01*
X142196660Y-79264000D01*
X142361000Y-79264000D01*
X142361000Y-80416000D01*
X140759000Y-80416000D01*
X140759000Y-79264000D01*
X140923340Y-79264000D01*
X140947726Y-79261598D01*
X140971175Y-79254485D01*
X140992786Y-79242934D01*
X141011728Y-79227389D01*
X141027273Y-79208447D01*
X141038824Y-79186836D01*
X141045937Y-79163387D01*
X141048339Y-79139001D01*
X141045937Y-79114615D01*
X141038824Y-79091166D01*
X141027273Y-79069555D01*
X141011728Y-79050613D01*
X141002655Y-79042391D01*
X140925736Y-78979264D01*
X140853756Y-78891557D01*
X140814251Y-78817647D01*
X140800272Y-78791495D01*
X140800271Y-78791492D01*
X140767334Y-78682916D01*
X140756213Y-78570000D01*
X140767334Y-78457084D01*
X140800271Y-78348508D01*
X140800272Y-78348505D01*
X140819571Y-78312399D01*
X140853756Y-78248443D01*
X140925736Y-78160736D01*
X141013443Y-78088756D01*
X141094859Y-78045239D01*
X141115234Y-78031625D01*
X141132561Y-78014298D01*
X141146174Y-77993924D01*
X141155552Y-77971285D01*
X141160332Y-77947252D01*
X141160332Y-77922748D01*
X141155552Y-77898715D01*
X141146174Y-77876076D01*
X141132560Y-77855701D01*
X141115233Y-77838374D01*
X141094859Y-77824761D01*
X141013443Y-77781244D01*
X140925736Y-77709264D01*
X140853756Y-77621557D01*
X140817588Y-77553890D01*
X140800272Y-77521495D01*
X140800271Y-77521492D01*
X140767334Y-77412916D01*
X140756213Y-77300000D01*
X140767334Y-77187084D01*
X140800271Y-77078508D01*
X140800272Y-77078505D01*
X140823774Y-77034536D01*
X140853756Y-76978443D01*
X140925736Y-76890736D01*
X141013443Y-76818756D01*
X141077399Y-76784571D01*
X141113505Y-76765272D01*
X141113508Y-76765271D01*
X141222084Y-76732334D01*
X141306702Y-76724000D01*
X141813298Y-76724000D01*
X141897916Y-76732334D01*
X141897916Y-76732334D01*
G37*
G36*
X115909509Y-77047610D02*
G01*
X115938851Y-77056511D01*
X115965890Y-77070963D01*
X115989588Y-77090412D01*
X116009037Y-77114110D01*
X116023489Y-77141149D01*
X116032390Y-77170491D01*
X116036000Y-77207141D01*
X116036000Y-79732859D01*
X116032390Y-79769509D01*
X116023489Y-79798851D01*
X116009037Y-79825890D01*
X115989588Y-79849588D01*
X115965890Y-79869037D01*
X115938851Y-79883489D01*
X115909509Y-79892390D01*
X115872859Y-79896000D01*
X113347141Y-79896000D01*
X113310491Y-79892390D01*
X113281149Y-79883489D01*
X113254110Y-79869037D01*
X113230412Y-79849588D01*
X113210963Y-79825890D01*
X113196511Y-79798851D01*
X113187610Y-79769509D01*
X113184000Y-79732859D01*
X113184000Y-77207141D01*
X113187610Y-77170491D01*
X113196511Y-77141149D01*
X113210963Y-77114110D01*
X113230412Y-77090412D01*
X113254110Y-77070963D01*
X113281149Y-77056511D01*
X113310491Y-77047610D01*
X113347141Y-77044000D01*
X115872859Y-77044000D01*
X115909509Y-77047610D01*
X115909509Y-77047610D01*
G37*
G36*
X148879000Y-79273500D02*
G01*
X146777000Y-79273500D01*
X146777000Y-77266500D01*
X148879000Y-77266500D01*
X148879000Y-79273500D01*
X148879000Y-79273500D01*
G37*
G36*
X153295949Y-76338800D02*
G01*
X153555463Y-76446294D01*
X153555464Y-76446295D01*
X153789022Y-76602353D01*
X153987647Y-76800978D01*
X153987648Y-76800980D01*
X154143706Y-77034537D01*
X154251200Y-77294051D01*
X154306000Y-77569550D01*
X154306000Y-77850450D01*
X154251200Y-78125949D01*
X154143706Y-78385463D01*
X154143705Y-78385464D01*
X153987647Y-78619022D01*
X153789022Y-78817647D01*
X153678411Y-78891555D01*
X153555463Y-78973706D01*
X153295949Y-79081200D01*
X153020450Y-79136000D01*
X152739550Y-79136000D01*
X152464051Y-79081200D01*
X152204537Y-78973706D01*
X152081589Y-78891555D01*
X151970978Y-78817647D01*
X151772353Y-78619022D01*
X151616295Y-78385464D01*
X151616294Y-78385463D01*
X151508800Y-78125949D01*
X151454000Y-77850450D01*
X151454000Y-77569550D01*
X151508800Y-77294051D01*
X151616294Y-77034537D01*
X151772352Y-76800980D01*
X151772353Y-76800978D01*
X151970978Y-76602353D01*
X152204536Y-76446295D01*
X152204537Y-76446294D01*
X152464051Y-76338800D01*
X152739550Y-76284000D01*
X153020450Y-76284000D01*
X153295949Y-76338800D01*
X153295949Y-76338800D01*
G37*
G36*
X139368997Y-75861051D02*
G01*
X139402652Y-75871261D01*
X139433665Y-75887838D01*
X139460851Y-75910149D01*
X139483162Y-75937335D01*
X139499739Y-75968348D01*
X139509949Y-76002003D01*
X139514000Y-76043138D01*
X139514000Y-77372862D01*
X139509949Y-77413997D01*
X139499739Y-77447652D01*
X139483162Y-77478665D01*
X139460851Y-77505851D01*
X139433665Y-77528162D01*
X139402652Y-77544739D01*
X139368997Y-77554949D01*
X139327862Y-77559000D01*
X136598138Y-77559000D01*
X136557003Y-77554949D01*
X136523348Y-77544739D01*
X136492335Y-77528162D01*
X136465149Y-77505851D01*
X136442838Y-77478665D01*
X136426261Y-77447652D01*
X136416051Y-77413997D01*
X136412000Y-77372862D01*
X136412000Y-76043138D01*
X136416051Y-76002003D01*
X136426261Y-75968348D01*
X136442838Y-75937335D01*
X136465149Y-75910149D01*
X136492335Y-75887838D01*
X136523348Y-75871261D01*
X136557003Y-75861051D01*
X136598138Y-75857000D01*
X139327862Y-75857000D01*
X139368997Y-75861051D01*
X139368997Y-75861051D01*
G37*
G36*
X134968997Y-75861051D02*
G01*
X135002652Y-75871261D01*
X135033665Y-75887838D01*
X135060851Y-75910149D01*
X135083162Y-75937335D01*
X135099739Y-75968348D01*
X135109949Y-76002003D01*
X135114000Y-76043138D01*
X135114000Y-77372862D01*
X135109949Y-77413997D01*
X135099739Y-77447652D01*
X135083162Y-77478665D01*
X135060851Y-77505851D01*
X135033665Y-77528162D01*
X135002652Y-77544739D01*
X134968997Y-77554949D01*
X134927862Y-77559000D01*
X132198138Y-77559000D01*
X132157003Y-77554949D01*
X132123348Y-77544739D01*
X132092335Y-77528162D01*
X132065149Y-77505851D01*
X132042838Y-77478665D01*
X132026261Y-77447652D01*
X132016051Y-77413997D01*
X132012000Y-77372862D01*
X132012000Y-76043138D01*
X132016051Y-76002003D01*
X132026261Y-75968348D01*
X132042838Y-75937335D01*
X132065149Y-75910149D01*
X132092335Y-75887838D01*
X132123348Y-75871261D01*
X132157003Y-75861051D01*
X132198138Y-75857000D01*
X134927862Y-75857000D01*
X134968997Y-75861051D01*
X134968997Y-75861051D01*
G37*
G36*
X127049997Y-75861051D02*
G01*
X127083652Y-75871261D01*
X127114665Y-75887838D01*
X127141851Y-75910149D01*
X127164162Y-75937335D01*
X127180739Y-75968348D01*
X127190949Y-76002003D01*
X127195000Y-76043138D01*
X127195000Y-77372862D01*
X127190949Y-77413997D01*
X127180739Y-77447652D01*
X127164162Y-77478665D01*
X127141851Y-77505851D01*
X127114665Y-77528162D01*
X127083652Y-77544739D01*
X127049997Y-77554949D01*
X127008862Y-77559000D01*
X124279138Y-77559000D01*
X124238003Y-77554949D01*
X124204348Y-77544739D01*
X124173335Y-77528162D01*
X124146149Y-77505851D01*
X124123838Y-77478665D01*
X124107261Y-77447652D01*
X124097051Y-77413997D01*
X124093000Y-77372862D01*
X124093000Y-76043138D01*
X124097051Y-76002003D01*
X124107261Y-75968348D01*
X124123838Y-75937335D01*
X124146149Y-75910149D01*
X124173335Y-75887838D01*
X124204348Y-75871261D01*
X124238003Y-75861051D01*
X124279138Y-75857000D01*
X127008862Y-75857000D01*
X127049997Y-75861051D01*
X127049997Y-75861051D01*
G37*
G36*
X122649997Y-75861051D02*
G01*
X122683652Y-75871261D01*
X122714665Y-75887838D01*
X122741851Y-75910149D01*
X122764162Y-75937335D01*
X122780739Y-75968348D01*
X122790949Y-76002003D01*
X122795000Y-76043138D01*
X122795000Y-77372862D01*
X122790949Y-77413997D01*
X122780739Y-77447652D01*
X122764162Y-77478665D01*
X122741851Y-77505851D01*
X122714665Y-77528162D01*
X122683652Y-77544739D01*
X122649997Y-77554949D01*
X122608862Y-77559000D01*
X119879138Y-77559000D01*
X119838003Y-77554949D01*
X119804348Y-77544739D01*
X119773335Y-77528162D01*
X119746149Y-77505851D01*
X119723838Y-77478665D01*
X119707261Y-77447652D01*
X119697051Y-77413997D01*
X119693000Y-77372862D01*
X119693000Y-76043138D01*
X119697051Y-76002003D01*
X119707261Y-75968348D01*
X119723838Y-75937335D01*
X119746149Y-75910149D01*
X119773335Y-75887838D01*
X119804348Y-75871261D01*
X119838003Y-75861051D01*
X119879138Y-75857000D01*
X122608862Y-75857000D01*
X122649997Y-75861051D01*
X122649997Y-75861051D01*
G37*
M02*
