G04 #@! TF.GenerationSoftware,KiCad,Pcbnew,(5.1.0-0)*
G04 #@! TF.CreationDate,2021-09-25T20:45:45+02:00*
G04 #@! TF.ProjectId,Kaefer_Konstanter_Tank,4b616566-6572-45f4-9b6f-6e7374616e74,rev?*
G04 #@! TF.SameCoordinates,Original*
G04 #@! TF.FileFunction,Soldermask,Bot*
G04 #@! TF.FilePolarity,Negative*
%FSLAX46Y46*%
G04 Gerber Fmt 4.6, Leading zero omitted, Abs format (unit mm)*
G04 Created by KiCad (PCBNEW (5.1.0-0)) date 2021-09-25 20:45:45*
%MOMM*%
%LPD*%
G04 APERTURE LIST*
%ADD10C,0.100000*%
G04 APERTURE END LIST*
D10*
G36*
X147700000Y-107025000D02*
G01*
X142654532Y-107047246D01*
X142036137Y-107049973D01*
X142036136Y-107049973D01*
X142030000Y-107050000D01*
X142030000Y-93154999D01*
X142027598Y-93130613D01*
X142020485Y-93107164D01*
X142008934Y-93085553D01*
X141993389Y-93066611D01*
X141974447Y-93051066D01*
X141952836Y-93039515D01*
X141929387Y-93032402D01*
X141905001Y-93030000D01*
X138164999Y-93030000D01*
X138140613Y-93032402D01*
X138117164Y-93039515D01*
X138095553Y-93051066D01*
X138076611Y-93066611D01*
X138061066Y-93085553D01*
X138049515Y-93107164D01*
X138042402Y-93130613D01*
X138040000Y-93154999D01*
X138040000Y-107000000D01*
X135444185Y-106995532D01*
X132236142Y-106990011D01*
X132236138Y-106990011D01*
X132230000Y-106990000D01*
X132230000Y-91050000D01*
X132236110Y-91049994D01*
X132236111Y-91049994D01*
X141758086Y-91040761D01*
X147700000Y-91035000D01*
X147700000Y-107025000D01*
X147700000Y-107025000D01*
G37*
G36*
X148068228Y-87151703D02*
G01*
X148223100Y-87215853D01*
X148362481Y-87308985D01*
X148481015Y-87427519D01*
X148574147Y-87566900D01*
X148638297Y-87721772D01*
X148671000Y-87886184D01*
X148671000Y-88053816D01*
X148638297Y-88218228D01*
X148574147Y-88373100D01*
X148481015Y-88512481D01*
X148362481Y-88631015D01*
X148223100Y-88724147D01*
X148068228Y-88788297D01*
X147903816Y-88821000D01*
X147736184Y-88821000D01*
X147571772Y-88788297D01*
X147416900Y-88724147D01*
X147277519Y-88631015D01*
X147158985Y-88512481D01*
X147065853Y-88373100D01*
X147001703Y-88218228D01*
X146969000Y-88053816D01*
X146969000Y-87886184D01*
X147001703Y-87721772D01*
X147065853Y-87566900D01*
X147158985Y-87427519D01*
X147277519Y-87308985D01*
X147416900Y-87215853D01*
X147571772Y-87151703D01*
X147736184Y-87119000D01*
X147903816Y-87119000D01*
X148068228Y-87151703D01*
X148068228Y-87151703D01*
G37*
G36*
X150526823Y-87131313D02*
G01*
X150687242Y-87179976D01*
X150754361Y-87215852D01*
X150835078Y-87258996D01*
X150964659Y-87365341D01*
X151071004Y-87494922D01*
X151071005Y-87494924D01*
X151150024Y-87642758D01*
X151198687Y-87803177D01*
X151215117Y-87970000D01*
X151198687Y-88136823D01*
X151150024Y-88297242D01*
X151109477Y-88373100D01*
X151071004Y-88445078D01*
X150964659Y-88574659D01*
X150835078Y-88681004D01*
X150835076Y-88681005D01*
X150687242Y-88760024D01*
X150526823Y-88808687D01*
X150401804Y-88821000D01*
X150318196Y-88821000D01*
X150193177Y-88808687D01*
X150032758Y-88760024D01*
X149884924Y-88681005D01*
X149884922Y-88681004D01*
X149755341Y-88574659D01*
X149648996Y-88445078D01*
X149610523Y-88373100D01*
X149569976Y-88297242D01*
X149521313Y-88136823D01*
X149504883Y-87970000D01*
X149521313Y-87803177D01*
X149569976Y-87642758D01*
X149648995Y-87494924D01*
X149648996Y-87494922D01*
X149755341Y-87365341D01*
X149884922Y-87258996D01*
X149965639Y-87215852D01*
X150032758Y-87179976D01*
X150193177Y-87131313D01*
X150318196Y-87119000D01*
X150401804Y-87119000D01*
X150526823Y-87131313D01*
X150526823Y-87131313D01*
G37*
G36*
X129165949Y-83588800D02*
G01*
X129425463Y-83696294D01*
X129484709Y-83735881D01*
X129659022Y-83852353D01*
X129857647Y-84050978D01*
X129913479Y-84134537D01*
X130013706Y-84284537D01*
X130121200Y-84544051D01*
X130176000Y-84819550D01*
X130176000Y-85100450D01*
X130121200Y-85375949D01*
X130013706Y-85635463D01*
X129936206Y-85751450D01*
X129857647Y-85869022D01*
X129659022Y-86067647D01*
X129570601Y-86126728D01*
X129425463Y-86223706D01*
X129165949Y-86331200D01*
X128890450Y-86386000D01*
X128609550Y-86386000D01*
X128334051Y-86331200D01*
X128074537Y-86223706D01*
X127929399Y-86126728D01*
X127840978Y-86067647D01*
X127642353Y-85869022D01*
X127563794Y-85751450D01*
X127486294Y-85635463D01*
X127378800Y-85375949D01*
X127324000Y-85100450D01*
X127324000Y-84819550D01*
X127378800Y-84544051D01*
X127486294Y-84284537D01*
X127586521Y-84134537D01*
X127642353Y-84050978D01*
X127840978Y-83852353D01*
X128015291Y-83735881D01*
X128074537Y-83696294D01*
X128334051Y-83588800D01*
X128609550Y-83534000D01*
X128890450Y-83534000D01*
X129165949Y-83588800D01*
X129165949Y-83588800D01*
G37*
G36*
X124649509Y-83537610D02*
G01*
X124678851Y-83546511D01*
X124705890Y-83560963D01*
X124729588Y-83580412D01*
X124749037Y-83604110D01*
X124763489Y-83631149D01*
X124772390Y-83660491D01*
X124776000Y-83697141D01*
X124776000Y-86222859D01*
X124772390Y-86259509D01*
X124763489Y-86288851D01*
X124749037Y-86315890D01*
X124729588Y-86339588D01*
X124705890Y-86359037D01*
X124678851Y-86373489D01*
X124649509Y-86382390D01*
X124612859Y-86386000D01*
X122087141Y-86386000D01*
X122050491Y-86382390D01*
X122021149Y-86373489D01*
X121994110Y-86359037D01*
X121970412Y-86339588D01*
X121950963Y-86315890D01*
X121936511Y-86288851D01*
X121927610Y-86259509D01*
X121924000Y-86222859D01*
X121924000Y-83697141D01*
X121927610Y-83660491D01*
X121936511Y-83631149D01*
X121950963Y-83604110D01*
X121970412Y-83580412D01*
X121994110Y-83560963D01*
X122021149Y-83546511D01*
X122050491Y-83537610D01*
X122087141Y-83534000D01*
X124612859Y-83534000D01*
X124649509Y-83537610D01*
X124649509Y-83537610D01*
G37*
G36*
X118541000Y-86341000D02*
G01*
X117539000Y-86341000D01*
X117539000Y-85439000D01*
X118541000Y-85439000D01*
X118541000Y-86341000D01*
X118541000Y-86341000D01*
G37*
G36*
X140755949Y-83438800D02*
G01*
X141015463Y-83546294D01*
X141084901Y-83592691D01*
X141249022Y-83702353D01*
X141447647Y-83900978D01*
X141447648Y-83900980D01*
X141603706Y-84134537D01*
X141711200Y-84394051D01*
X141766000Y-84669550D01*
X141766000Y-84950450D01*
X141711200Y-85225949D01*
X141603706Y-85485463D01*
X141603705Y-85485464D01*
X141447647Y-85719022D01*
X141249022Y-85917647D01*
X141160601Y-85976728D01*
X141015463Y-86073706D01*
X140755949Y-86181200D01*
X140480450Y-86236000D01*
X140199550Y-86236000D01*
X139924051Y-86181200D01*
X139664537Y-86073706D01*
X139519399Y-85976728D01*
X139430978Y-85917647D01*
X139232353Y-85719022D01*
X139076295Y-85485464D01*
X139076294Y-85485463D01*
X138968800Y-85225949D01*
X138914000Y-84950450D01*
X138914000Y-84669550D01*
X138968800Y-84394051D01*
X139076294Y-84134537D01*
X139232352Y-83900980D01*
X139232353Y-83900978D01*
X139430978Y-83702353D01*
X139595099Y-83592691D01*
X139664537Y-83546294D01*
X139924051Y-83438800D01*
X140199550Y-83384000D01*
X140480450Y-83384000D01*
X140755949Y-83438800D01*
X140755949Y-83438800D01*
G37*
G36*
X136239509Y-83387610D02*
G01*
X136268851Y-83396511D01*
X136295890Y-83410963D01*
X136319588Y-83430412D01*
X136339037Y-83454110D01*
X136353489Y-83481149D01*
X136362390Y-83510491D01*
X136366000Y-83547141D01*
X136366000Y-86072859D01*
X136362390Y-86109509D01*
X136353489Y-86138851D01*
X136339037Y-86165890D01*
X136319588Y-86189588D01*
X136295890Y-86209037D01*
X136268851Y-86223489D01*
X136239509Y-86232390D01*
X136202859Y-86236000D01*
X133677141Y-86236000D01*
X133640491Y-86232390D01*
X133611149Y-86223489D01*
X133584110Y-86209037D01*
X133560412Y-86189588D01*
X133540963Y-86165890D01*
X133526511Y-86138851D01*
X133517610Y-86109509D01*
X133514000Y-86072859D01*
X133514000Y-83547141D01*
X133517610Y-83510491D01*
X133526511Y-83481149D01*
X133540963Y-83454110D01*
X133560412Y-83430412D01*
X133584110Y-83410963D01*
X133611149Y-83396511D01*
X133640491Y-83387610D01*
X133677141Y-83384000D01*
X136202859Y-83384000D01*
X136239509Y-83387610D01*
X136239509Y-83387610D01*
G37*
G36*
X120541000Y-85391000D02*
G01*
X119539000Y-85391000D01*
X119539000Y-84489000D01*
X120541000Y-84489000D01*
X120541000Y-85391000D01*
X120541000Y-85391000D01*
G37*
G36*
X115025949Y-82498800D02*
G01*
X115285463Y-82606294D01*
X115285464Y-82606295D01*
X115519022Y-82762353D01*
X115717647Y-82960978D01*
X115796206Y-83078550D01*
X115873706Y-83194537D01*
X115981200Y-83454051D01*
X116036000Y-83729550D01*
X116036000Y-84010450D01*
X115981200Y-84285949D01*
X115873706Y-84545463D01*
X115873705Y-84545464D01*
X115717647Y-84779022D01*
X115519022Y-84977647D01*
X115401450Y-85056206D01*
X115285463Y-85133706D01*
X115025949Y-85241200D01*
X114750450Y-85296000D01*
X114469550Y-85296000D01*
X114194051Y-85241200D01*
X113934537Y-85133706D01*
X113818550Y-85056206D01*
X113700978Y-84977647D01*
X113502353Y-84779022D01*
X113346295Y-84545464D01*
X113346294Y-84545463D01*
X113238800Y-84285949D01*
X113184000Y-84010450D01*
X113184000Y-83729550D01*
X113238800Y-83454051D01*
X113346294Y-83194537D01*
X113423794Y-83078550D01*
X113502353Y-82960978D01*
X113700978Y-82762353D01*
X113934536Y-82606295D01*
X113934537Y-82606294D01*
X114194051Y-82498800D01*
X114469550Y-82444000D01*
X114750450Y-82444000D01*
X115025949Y-82498800D01*
X115025949Y-82498800D01*
G37*
G36*
X154179509Y-81687610D02*
G01*
X154208851Y-81696511D01*
X154235890Y-81710963D01*
X154259588Y-81730412D01*
X154279037Y-81754110D01*
X154293489Y-81781149D01*
X154302390Y-81810491D01*
X154306000Y-81847141D01*
X154306000Y-84372859D01*
X154302390Y-84409509D01*
X154293489Y-84438851D01*
X154279037Y-84465890D01*
X154259588Y-84489588D01*
X154235890Y-84509037D01*
X154208851Y-84523489D01*
X154179509Y-84532390D01*
X154142859Y-84536000D01*
X151617141Y-84536000D01*
X151580491Y-84532390D01*
X151551149Y-84523489D01*
X151524110Y-84509037D01*
X151500412Y-84489588D01*
X151480963Y-84465890D01*
X151466511Y-84438851D01*
X151457610Y-84409509D01*
X151454000Y-84372859D01*
X151454000Y-81847141D01*
X151457610Y-81810491D01*
X151466511Y-81781149D01*
X151480963Y-81754110D01*
X151500412Y-81730412D01*
X151524110Y-81710963D01*
X151551149Y-81696511D01*
X151580491Y-81687610D01*
X151617141Y-81684000D01*
X154142859Y-81684000D01*
X154179509Y-81687610D01*
X154179509Y-81687610D01*
G37*
G36*
X118541000Y-84441000D02*
G01*
X117539000Y-84441000D01*
X117539000Y-83539000D01*
X118541000Y-83539000D01*
X118541000Y-84441000D01*
X118541000Y-84441000D01*
G37*
G36*
X147973936Y-82351340D02*
G01*
X148072220Y-82361020D01*
X148261381Y-82418401D01*
X148435712Y-82511583D01*
X148588515Y-82636985D01*
X148713917Y-82789788D01*
X148807099Y-82964119D01*
X148864480Y-83153280D01*
X148883855Y-83350000D01*
X148864480Y-83546720D01*
X148807099Y-83735881D01*
X148713917Y-83910212D01*
X148588515Y-84063015D01*
X148435712Y-84188417D01*
X148261381Y-84281599D01*
X148072220Y-84338980D01*
X147973936Y-84348660D01*
X147924795Y-84353500D01*
X147731205Y-84353500D01*
X147682064Y-84348660D01*
X147583780Y-84338980D01*
X147394619Y-84281599D01*
X147220288Y-84188417D01*
X147067485Y-84063015D01*
X146942083Y-83910212D01*
X146848901Y-83735881D01*
X146791520Y-83546720D01*
X146772145Y-83350000D01*
X146791520Y-83153280D01*
X146848901Y-82964119D01*
X146942083Y-82789788D01*
X147067485Y-82636985D01*
X147220288Y-82511583D01*
X147394619Y-82418401D01*
X147583780Y-82361020D01*
X147682064Y-82351340D01*
X147731205Y-82346500D01*
X147924795Y-82346500D01*
X147973936Y-82351340D01*
X147973936Y-82351340D01*
G37*
G36*
X147973936Y-79811340D02*
G01*
X148072220Y-79821020D01*
X148261381Y-79878401D01*
X148435712Y-79971583D01*
X148588515Y-80096985D01*
X148713917Y-80249788D01*
X148807099Y-80424119D01*
X148864480Y-80613280D01*
X148883855Y-80810000D01*
X148864480Y-81006720D01*
X148807965Y-81193026D01*
X148807098Y-81195883D01*
X148801192Y-81206932D01*
X148713917Y-81370212D01*
X148588515Y-81523015D01*
X148435712Y-81648417D01*
X148261381Y-81741599D01*
X148072220Y-81798980D01*
X147973936Y-81808660D01*
X147924795Y-81813500D01*
X147731205Y-81813500D01*
X147682064Y-81808660D01*
X147583780Y-81798980D01*
X147394619Y-81741599D01*
X147220288Y-81648417D01*
X147067485Y-81523015D01*
X146942083Y-81370212D01*
X146854808Y-81206932D01*
X146848902Y-81195883D01*
X146848035Y-81193026D01*
X146791520Y-81006720D01*
X146772145Y-80810000D01*
X146791520Y-80613280D01*
X146848901Y-80424119D01*
X146942083Y-80249788D01*
X147067485Y-80096985D01*
X147220288Y-79971583D01*
X147394619Y-79878401D01*
X147583780Y-79821020D01*
X147682064Y-79811340D01*
X147731205Y-79806500D01*
X147924795Y-79806500D01*
X147973936Y-79811340D01*
X147973936Y-79811340D01*
G37*
G36*
X118414683Y-80677725D02*
G01*
X118445143Y-80686966D01*
X118473223Y-80701974D01*
X118497831Y-80722169D01*
X118518026Y-80746777D01*
X118533034Y-80774857D01*
X118542275Y-80805317D01*
X118546000Y-80843140D01*
X118546000Y-81556860D01*
X118542275Y-81594683D01*
X118533034Y-81625143D01*
X118518026Y-81653223D01*
X118497831Y-81677831D01*
X118473223Y-81698026D01*
X118445143Y-81713034D01*
X118414683Y-81722275D01*
X118376860Y-81726000D01*
X117813140Y-81726000D01*
X117775317Y-81722275D01*
X117744857Y-81713034D01*
X117716777Y-81698026D01*
X117692169Y-81677831D01*
X117671974Y-81653223D01*
X117656966Y-81625143D01*
X117647725Y-81594683D01*
X117644000Y-81556860D01*
X117644000Y-80843140D01*
X117647725Y-80805317D01*
X117656966Y-80774857D01*
X117671974Y-80746777D01*
X117692169Y-80722169D01*
X117716777Y-80701974D01*
X117744857Y-80686966D01*
X117775317Y-80677725D01*
X117813140Y-80674000D01*
X118376860Y-80674000D01*
X118414683Y-80677725D01*
X118414683Y-80677725D01*
G37*
G36*
X120064683Y-80677725D02*
G01*
X120095143Y-80686966D01*
X120123223Y-80701974D01*
X120147831Y-80722169D01*
X120168026Y-80746777D01*
X120183034Y-80774857D01*
X120192275Y-80805317D01*
X120196000Y-80843140D01*
X120196000Y-81556860D01*
X120192275Y-81594683D01*
X120183034Y-81625143D01*
X120168026Y-81653223D01*
X120147831Y-81677831D01*
X120123223Y-81698026D01*
X120095143Y-81713034D01*
X120064683Y-81722275D01*
X120026860Y-81726000D01*
X119463140Y-81726000D01*
X119425317Y-81722275D01*
X119394857Y-81713034D01*
X119366777Y-81698026D01*
X119342169Y-81677831D01*
X119321974Y-81653223D01*
X119306966Y-81625143D01*
X119297725Y-81594683D01*
X119294000Y-81556860D01*
X119294000Y-80843140D01*
X119297725Y-80805317D01*
X119306966Y-80774857D01*
X119321974Y-80746777D01*
X119342169Y-80722169D01*
X119366777Y-80701974D01*
X119394857Y-80686966D01*
X119425317Y-80677725D01*
X119463140Y-80674000D01*
X120026860Y-80674000D01*
X120064683Y-80677725D01*
X120064683Y-80677725D01*
G37*
G36*
X137764560Y-80228205D02*
G01*
X137799713Y-80238869D01*
X137832110Y-80256186D01*
X137860509Y-80279491D01*
X137883814Y-80307890D01*
X137901131Y-80340287D01*
X137911795Y-80375440D01*
X137916000Y-80418140D01*
X137916000Y-81031860D01*
X137911795Y-81074560D01*
X137901131Y-81109713D01*
X137883814Y-81142110D01*
X137860509Y-81170509D01*
X137832110Y-81193814D01*
X137799713Y-81211131D01*
X137764560Y-81221795D01*
X137721860Y-81226000D01*
X137058140Y-81226000D01*
X137015440Y-81221795D01*
X136980287Y-81211131D01*
X136947890Y-81193814D01*
X136919491Y-81170509D01*
X136896186Y-81142110D01*
X136878869Y-81109713D01*
X136868205Y-81074560D01*
X136864000Y-81031860D01*
X136864000Y-80418140D01*
X136868205Y-80375440D01*
X136878869Y-80340287D01*
X136896186Y-80307890D01*
X136919491Y-80279491D01*
X136947890Y-80256186D01*
X136980287Y-80238869D01*
X137015440Y-80228205D01*
X137058140Y-80224000D01*
X137721860Y-80224000D01*
X137764560Y-80228205D01*
X137764560Y-80228205D01*
G37*
G36*
X136214683Y-80322725D02*
G01*
X136245143Y-80331966D01*
X136273223Y-80346974D01*
X136297831Y-80367169D01*
X136318026Y-80391777D01*
X136333034Y-80419857D01*
X136342275Y-80450317D01*
X136346000Y-80488140D01*
X136346000Y-81051860D01*
X136342275Y-81089683D01*
X136333034Y-81120143D01*
X136318026Y-81148223D01*
X136297831Y-81172831D01*
X136273223Y-81193026D01*
X136245143Y-81208034D01*
X136214683Y-81217275D01*
X136176860Y-81221000D01*
X135463140Y-81221000D01*
X135425317Y-81217275D01*
X135394857Y-81208034D01*
X135366777Y-81193026D01*
X135342169Y-81172831D01*
X135321974Y-81148223D01*
X135306966Y-81120143D01*
X135297725Y-81089683D01*
X135294000Y-81051860D01*
X135294000Y-80488140D01*
X135297725Y-80450317D01*
X135306966Y-80419857D01*
X135321974Y-80391777D01*
X135342169Y-80367169D01*
X135366777Y-80346974D01*
X135394857Y-80331966D01*
X135425317Y-80322725D01*
X135463140Y-80319000D01*
X136176860Y-80319000D01*
X136214683Y-80322725D01*
X136214683Y-80322725D01*
G37*
G36*
X122024560Y-79848205D02*
G01*
X122059713Y-79858869D01*
X122092110Y-79876186D01*
X122120509Y-79899491D01*
X122143814Y-79927890D01*
X122161131Y-79960287D01*
X122171795Y-79995440D01*
X122176000Y-80038140D01*
X122176000Y-80701860D01*
X122171795Y-80744560D01*
X122161131Y-80779713D01*
X122143814Y-80812110D01*
X122120509Y-80840509D01*
X122092110Y-80863814D01*
X122059713Y-80881131D01*
X122024560Y-80891795D01*
X121981860Y-80896000D01*
X121368140Y-80896000D01*
X121325440Y-80891795D01*
X121290287Y-80881131D01*
X121257890Y-80863814D01*
X121229491Y-80840509D01*
X121206186Y-80812110D01*
X121188869Y-80779713D01*
X121178205Y-80744560D01*
X121174000Y-80701860D01*
X121174000Y-80038140D01*
X121178205Y-79995440D01*
X121188869Y-79960287D01*
X121206186Y-79927890D01*
X121229491Y-79899491D01*
X121257890Y-79876186D01*
X121290287Y-79858869D01*
X121325440Y-79848205D01*
X121368140Y-79844000D01*
X121981860Y-79844000D01*
X122024560Y-79848205D01*
X122024560Y-79848205D01*
G37*
G36*
X123574560Y-79848205D02*
G01*
X123609713Y-79858869D01*
X123642110Y-79876186D01*
X123670509Y-79899491D01*
X123693814Y-79927890D01*
X123711131Y-79960287D01*
X123721795Y-79995440D01*
X123726000Y-80038140D01*
X123726000Y-80701860D01*
X123721795Y-80744560D01*
X123711131Y-80779713D01*
X123693814Y-80812110D01*
X123670509Y-80840509D01*
X123642110Y-80863814D01*
X123609713Y-80881131D01*
X123574560Y-80891795D01*
X123531860Y-80896000D01*
X122918140Y-80896000D01*
X122875440Y-80891795D01*
X122840287Y-80881131D01*
X122807890Y-80863814D01*
X122779491Y-80840509D01*
X122756186Y-80812110D01*
X122738869Y-80779713D01*
X122728205Y-80744560D01*
X122724000Y-80701860D01*
X122724000Y-80038140D01*
X122728205Y-79995440D01*
X122738869Y-79960287D01*
X122756186Y-79927890D01*
X122779491Y-79899491D01*
X122807890Y-79876186D01*
X122840287Y-79858869D01*
X122875440Y-79848205D01*
X122918140Y-79844000D01*
X123531860Y-79844000D01*
X123574560Y-79848205D01*
X123574560Y-79848205D01*
G37*
G36*
X134081000Y-80751000D02*
G01*
X132279000Y-80751000D01*
X132279000Y-79999000D01*
X134081000Y-79999000D01*
X134081000Y-80751000D01*
X134081000Y-80751000D01*
G37*
G36*
X126781000Y-80751000D02*
G01*
X124979000Y-80751000D01*
X124979000Y-79999000D01*
X126781000Y-79999000D01*
X126781000Y-80751000D01*
X126781000Y-80751000D01*
G37*
G36*
X141897916Y-76732334D02*
G01*
X142006492Y-76765271D01*
X142006495Y-76765272D01*
X142042601Y-76784571D01*
X142106557Y-76818756D01*
X142194264Y-76890736D01*
X142266244Y-76978443D01*
X142293534Y-77029500D01*
X142319728Y-77078505D01*
X142319729Y-77078508D01*
X142352666Y-77187084D01*
X142363787Y-77300000D01*
X142352666Y-77412916D01*
X142332467Y-77479500D01*
X142319728Y-77521495D01*
X142300429Y-77557601D01*
X142266244Y-77621557D01*
X142194264Y-77709264D01*
X142106557Y-77781244D01*
X142025141Y-77824761D01*
X142004766Y-77838375D01*
X141987439Y-77855702D01*
X141973826Y-77876076D01*
X141964448Y-77898715D01*
X141959668Y-77922748D01*
X141959668Y-77947252D01*
X141964448Y-77971285D01*
X141973826Y-77993924D01*
X141987440Y-78014299D01*
X142004767Y-78031626D01*
X142025141Y-78045239D01*
X142106557Y-78088756D01*
X142194264Y-78160736D01*
X142266244Y-78248443D01*
X142300429Y-78312399D01*
X142319728Y-78348505D01*
X142319729Y-78348508D01*
X142352666Y-78457084D01*
X142363787Y-78570000D01*
X142352666Y-78682916D01*
X142319729Y-78791492D01*
X142319728Y-78791495D01*
X142315012Y-78800317D01*
X142266244Y-78891557D01*
X142194264Y-78979264D01*
X142117354Y-79042383D01*
X142100035Y-79059702D01*
X142086421Y-79080077D01*
X142077043Y-79102716D01*
X142072263Y-79126749D01*
X142072263Y-79151253D01*
X142077043Y-79175286D01*
X142086421Y-79197925D01*
X142100034Y-79218299D01*
X142117361Y-79235626D01*
X142137736Y-79249240D01*
X142160375Y-79258618D01*
X142184408Y-79263398D01*
X142196660Y-79264000D01*
X142361000Y-79264000D01*
X142361000Y-80416000D01*
X140759000Y-80416000D01*
X140759000Y-79264000D01*
X140923340Y-79264000D01*
X140947726Y-79261598D01*
X140971175Y-79254485D01*
X140992786Y-79242934D01*
X141011728Y-79227389D01*
X141027273Y-79208447D01*
X141038824Y-79186836D01*
X141045937Y-79163387D01*
X141048339Y-79139001D01*
X141045937Y-79114615D01*
X141038824Y-79091166D01*
X141027273Y-79069555D01*
X141011728Y-79050613D01*
X141002655Y-79042391D01*
X140925736Y-78979264D01*
X140853756Y-78891557D01*
X140804988Y-78800317D01*
X140800272Y-78791495D01*
X140800271Y-78791492D01*
X140767334Y-78682916D01*
X140756213Y-78570000D01*
X140767334Y-78457084D01*
X140800271Y-78348508D01*
X140800272Y-78348505D01*
X140819571Y-78312399D01*
X140853756Y-78248443D01*
X140925736Y-78160736D01*
X141013443Y-78088756D01*
X141094859Y-78045239D01*
X141115234Y-78031625D01*
X141132561Y-78014298D01*
X141146174Y-77993924D01*
X141155552Y-77971285D01*
X141160332Y-77947252D01*
X141160332Y-77922748D01*
X141155552Y-77898715D01*
X141146174Y-77876076D01*
X141132560Y-77855701D01*
X141115233Y-77838374D01*
X141094859Y-77824761D01*
X141013443Y-77781244D01*
X140925736Y-77709264D01*
X140853756Y-77621557D01*
X140819571Y-77557601D01*
X140800272Y-77521495D01*
X140787533Y-77479500D01*
X140767334Y-77412916D01*
X140756213Y-77300000D01*
X140767334Y-77187084D01*
X140800271Y-77078508D01*
X140800272Y-77078505D01*
X140826466Y-77029500D01*
X140853756Y-76978443D01*
X140925736Y-76890736D01*
X141013443Y-76818756D01*
X141077399Y-76784571D01*
X141113505Y-76765272D01*
X141113508Y-76765271D01*
X141222084Y-76732334D01*
X141306702Y-76724000D01*
X141813298Y-76724000D01*
X141897916Y-76732334D01*
X141897916Y-76732334D01*
G37*
G36*
X115909509Y-77047610D02*
G01*
X115938851Y-77056511D01*
X115965890Y-77070963D01*
X115989588Y-77090412D01*
X116009037Y-77114110D01*
X116023489Y-77141149D01*
X116032390Y-77170491D01*
X116036000Y-77207141D01*
X116036000Y-79732859D01*
X116032390Y-79769509D01*
X116023489Y-79798851D01*
X116009037Y-79825890D01*
X115989588Y-79849588D01*
X115965890Y-79869037D01*
X115938851Y-79883489D01*
X115909509Y-79892390D01*
X115872859Y-79896000D01*
X113347141Y-79896000D01*
X113310491Y-79892390D01*
X113281149Y-79883489D01*
X113254110Y-79869037D01*
X113230412Y-79849588D01*
X113210963Y-79825890D01*
X113196511Y-79798851D01*
X113187610Y-79769509D01*
X113184000Y-79732859D01*
X113184000Y-77207141D01*
X113187610Y-77170491D01*
X113196511Y-77141149D01*
X113210963Y-77114110D01*
X113230412Y-77090412D01*
X113254110Y-77070963D01*
X113281149Y-77056511D01*
X113310491Y-77047610D01*
X113347141Y-77044000D01*
X115872859Y-77044000D01*
X115909509Y-77047610D01*
X115909509Y-77047610D01*
G37*
G36*
X120441000Y-79681000D02*
G01*
X119439000Y-79681000D01*
X119439000Y-78779000D01*
X120441000Y-78779000D01*
X120441000Y-79681000D01*
X120441000Y-79681000D01*
G37*
G36*
X137764560Y-78678205D02*
G01*
X137799713Y-78688869D01*
X137832110Y-78706186D01*
X137860509Y-78729491D01*
X137883814Y-78757890D01*
X137901131Y-78790287D01*
X137911795Y-78825440D01*
X137916000Y-78868140D01*
X137916000Y-79481860D01*
X137911795Y-79524560D01*
X137901131Y-79559713D01*
X137883814Y-79592110D01*
X137860509Y-79620509D01*
X137832110Y-79643814D01*
X137799713Y-79661131D01*
X137764560Y-79671795D01*
X137721860Y-79676000D01*
X137058140Y-79676000D01*
X137015440Y-79671795D01*
X136980287Y-79661131D01*
X136947890Y-79643814D01*
X136919491Y-79620509D01*
X136896186Y-79592110D01*
X136878869Y-79559713D01*
X136868205Y-79524560D01*
X136864000Y-79481860D01*
X136864000Y-78868140D01*
X136868205Y-78825440D01*
X136878869Y-78790287D01*
X136896186Y-78757890D01*
X136919491Y-78729491D01*
X136947890Y-78706186D01*
X136980287Y-78688869D01*
X137015440Y-78678205D01*
X137058140Y-78674000D01*
X137721860Y-78674000D01*
X137764560Y-78678205D01*
X137764560Y-78678205D01*
G37*
G36*
X136214683Y-78672725D02*
G01*
X136245143Y-78681966D01*
X136273223Y-78696974D01*
X136297831Y-78717169D01*
X136318026Y-78741777D01*
X136333034Y-78769857D01*
X136342275Y-78800317D01*
X136346000Y-78838140D01*
X136346000Y-79401860D01*
X136342275Y-79439683D01*
X136333034Y-79470143D01*
X136318026Y-79498223D01*
X136297831Y-79522831D01*
X136273223Y-79543026D01*
X136245143Y-79558034D01*
X136214683Y-79567275D01*
X136176860Y-79571000D01*
X135463140Y-79571000D01*
X135425317Y-79567275D01*
X135394857Y-79558034D01*
X135366777Y-79543026D01*
X135342169Y-79522831D01*
X135321974Y-79498223D01*
X135306966Y-79470143D01*
X135297725Y-79439683D01*
X135294000Y-79401860D01*
X135294000Y-78838140D01*
X135297725Y-78800317D01*
X135306966Y-78769857D01*
X135321974Y-78741777D01*
X135342169Y-78717169D01*
X135366777Y-78696974D01*
X135394857Y-78681966D01*
X135425317Y-78672725D01*
X135463140Y-78669000D01*
X136176860Y-78669000D01*
X136214683Y-78672725D01*
X136214683Y-78672725D01*
G37*
G36*
X134081000Y-79481000D02*
G01*
X132279000Y-79481000D01*
X132279000Y-78729000D01*
X134081000Y-78729000D01*
X134081000Y-79481000D01*
X134081000Y-79481000D01*
G37*
G36*
X126781000Y-79481000D02*
G01*
X124979000Y-79481000D01*
X124979000Y-78729000D01*
X126781000Y-78729000D01*
X126781000Y-79481000D01*
X126781000Y-79481000D01*
G37*
G36*
X123584683Y-78327725D02*
G01*
X123615143Y-78336966D01*
X123643223Y-78351974D01*
X123667831Y-78372169D01*
X123688026Y-78396777D01*
X123703034Y-78424857D01*
X123712275Y-78455317D01*
X123716000Y-78493140D01*
X123716000Y-79206860D01*
X123712275Y-79244683D01*
X123703034Y-79275143D01*
X123688026Y-79303223D01*
X123667831Y-79327831D01*
X123643223Y-79348026D01*
X123615143Y-79363034D01*
X123584683Y-79372275D01*
X123546860Y-79376000D01*
X122983140Y-79376000D01*
X122945317Y-79372275D01*
X122914857Y-79363034D01*
X122886777Y-79348026D01*
X122862169Y-79327831D01*
X122841974Y-79303223D01*
X122826966Y-79275143D01*
X122817725Y-79244683D01*
X122814000Y-79206860D01*
X122814000Y-78493140D01*
X122817725Y-78455317D01*
X122826966Y-78424857D01*
X122841974Y-78396777D01*
X122862169Y-78372169D01*
X122886777Y-78351974D01*
X122914857Y-78336966D01*
X122945317Y-78327725D01*
X122983140Y-78324000D01*
X123546860Y-78324000D01*
X123584683Y-78327725D01*
X123584683Y-78327725D01*
G37*
G36*
X121934683Y-78327725D02*
G01*
X121965143Y-78336966D01*
X121993223Y-78351974D01*
X122017831Y-78372169D01*
X122038026Y-78396777D01*
X122053034Y-78424857D01*
X122062275Y-78455317D01*
X122066000Y-78493140D01*
X122066000Y-79206860D01*
X122062275Y-79244683D01*
X122053034Y-79275143D01*
X122038026Y-79303223D01*
X122017831Y-79327831D01*
X121993223Y-79348026D01*
X121965143Y-79363034D01*
X121934683Y-79372275D01*
X121896860Y-79376000D01*
X121333140Y-79376000D01*
X121295317Y-79372275D01*
X121264857Y-79363034D01*
X121236777Y-79348026D01*
X121212169Y-79327831D01*
X121191974Y-79303223D01*
X121176966Y-79275143D01*
X121167725Y-79244683D01*
X121164000Y-79206860D01*
X121164000Y-78493140D01*
X121167725Y-78455317D01*
X121176966Y-78424857D01*
X121191974Y-78396777D01*
X121212169Y-78372169D01*
X121236777Y-78351974D01*
X121264857Y-78336966D01*
X121295317Y-78327725D01*
X121333140Y-78324000D01*
X121896860Y-78324000D01*
X121934683Y-78327725D01*
X121934683Y-78327725D01*
G37*
G36*
X148879000Y-79273500D02*
G01*
X146777000Y-79273500D01*
X146777000Y-77266500D01*
X148879000Y-77266500D01*
X148879000Y-79273500D01*
X148879000Y-79273500D01*
G37*
G36*
X153295949Y-76338800D02*
G01*
X153555463Y-76446294D01*
X153572729Y-76457831D01*
X153789022Y-76602353D01*
X153987647Y-76800978D01*
X154066206Y-76918550D01*
X154143706Y-77034537D01*
X154251200Y-77294051D01*
X154306000Y-77569550D01*
X154306000Y-77850450D01*
X154251200Y-78125949D01*
X154143706Y-78385463D01*
X154143705Y-78385464D01*
X153987647Y-78619022D01*
X153789022Y-78817647D01*
X153702244Y-78875630D01*
X153555463Y-78973706D01*
X153295949Y-79081200D01*
X153020450Y-79136000D01*
X152739550Y-79136000D01*
X152464051Y-79081200D01*
X152204537Y-78973706D01*
X152057756Y-78875630D01*
X151970978Y-78817647D01*
X151772353Y-78619022D01*
X151616295Y-78385464D01*
X151616294Y-78385463D01*
X151508800Y-78125949D01*
X151454000Y-77850450D01*
X151454000Y-77569550D01*
X151508800Y-77294051D01*
X151616294Y-77034537D01*
X151693794Y-76918550D01*
X151772353Y-76800978D01*
X151970978Y-76602353D01*
X152187271Y-76457831D01*
X152204537Y-76446294D01*
X152464051Y-76338800D01*
X152739550Y-76284000D01*
X153020450Y-76284000D01*
X153295949Y-76338800D01*
X153295949Y-76338800D01*
G37*
G36*
X118441000Y-78731000D02*
G01*
X117439000Y-78731000D01*
X117439000Y-77829000D01*
X118441000Y-77829000D01*
X118441000Y-78731000D01*
X118441000Y-78731000D01*
G37*
G36*
X134081000Y-78211000D02*
G01*
X132279000Y-78211000D01*
X132279000Y-77459000D01*
X134081000Y-77459000D01*
X134081000Y-78211000D01*
X134081000Y-78211000D01*
G37*
G36*
X126781000Y-78211000D02*
G01*
X124979000Y-78211000D01*
X124979000Y-77459000D01*
X126781000Y-77459000D01*
X126781000Y-78211000D01*
X126781000Y-78211000D01*
G37*
G36*
X137764560Y-77158205D02*
G01*
X137799713Y-77168869D01*
X137832110Y-77186186D01*
X137860509Y-77209491D01*
X137883814Y-77237890D01*
X137901131Y-77270287D01*
X137911795Y-77305440D01*
X137916000Y-77348140D01*
X137916000Y-77961860D01*
X137911795Y-78004560D01*
X137901131Y-78039713D01*
X137883814Y-78072110D01*
X137860509Y-78100509D01*
X137832110Y-78123814D01*
X137799713Y-78141131D01*
X137764560Y-78151795D01*
X137721860Y-78156000D01*
X137058140Y-78156000D01*
X137015440Y-78151795D01*
X136980287Y-78141131D01*
X136947890Y-78123814D01*
X136919491Y-78100509D01*
X136896186Y-78072110D01*
X136878869Y-78039713D01*
X136868205Y-78004560D01*
X136864000Y-77961860D01*
X136864000Y-77348140D01*
X136868205Y-77305440D01*
X136878869Y-77270287D01*
X136896186Y-77237890D01*
X136919491Y-77209491D01*
X136947890Y-77186186D01*
X136980287Y-77168869D01*
X137015440Y-77158205D01*
X137058140Y-77154000D01*
X137721860Y-77154000D01*
X137764560Y-77158205D01*
X137764560Y-77158205D01*
G37*
G36*
X136184683Y-77257725D02*
G01*
X136215143Y-77266966D01*
X136243223Y-77281974D01*
X136267831Y-77302169D01*
X136288026Y-77326777D01*
X136303034Y-77354857D01*
X136312275Y-77385317D01*
X136316000Y-77423140D01*
X136316000Y-77986860D01*
X136312275Y-78024683D01*
X136303034Y-78055143D01*
X136288026Y-78083223D01*
X136267831Y-78107831D01*
X136243223Y-78128026D01*
X136215143Y-78143034D01*
X136184683Y-78152275D01*
X136146860Y-78156000D01*
X135433140Y-78156000D01*
X135395317Y-78152275D01*
X135364857Y-78143034D01*
X135336777Y-78128026D01*
X135312169Y-78107831D01*
X135291974Y-78083223D01*
X135276966Y-78055143D01*
X135267725Y-78024683D01*
X135264000Y-77986860D01*
X135264000Y-77423140D01*
X135267725Y-77385317D01*
X135276966Y-77354857D01*
X135291974Y-77326777D01*
X135312169Y-77302169D01*
X135336777Y-77281974D01*
X135364857Y-77266966D01*
X135395317Y-77257725D01*
X135433140Y-77254000D01*
X136146860Y-77254000D01*
X136184683Y-77257725D01*
X136184683Y-77257725D01*
G37*
G36*
X123584683Y-76807725D02*
G01*
X123615143Y-76816966D01*
X123643223Y-76831974D01*
X123667831Y-76852169D01*
X123688026Y-76876777D01*
X123703034Y-76904857D01*
X123712275Y-76935317D01*
X123716000Y-76973140D01*
X123716000Y-77686860D01*
X123712275Y-77724683D01*
X123703034Y-77755143D01*
X123688026Y-77783223D01*
X123667831Y-77807831D01*
X123643223Y-77828026D01*
X123615143Y-77843034D01*
X123584683Y-77852275D01*
X123546860Y-77856000D01*
X122983140Y-77856000D01*
X122945317Y-77852275D01*
X122914857Y-77843034D01*
X122886777Y-77828026D01*
X122862169Y-77807831D01*
X122841974Y-77783223D01*
X122826966Y-77755143D01*
X122817725Y-77724683D01*
X122814000Y-77686860D01*
X122814000Y-76973140D01*
X122817725Y-76935317D01*
X122826966Y-76904857D01*
X122841974Y-76876777D01*
X122862169Y-76852169D01*
X122886777Y-76831974D01*
X122914857Y-76816966D01*
X122945317Y-76807725D01*
X122983140Y-76804000D01*
X123546860Y-76804000D01*
X123584683Y-76807725D01*
X123584683Y-76807725D01*
G37*
G36*
X121934683Y-76807725D02*
G01*
X121965143Y-76816966D01*
X121993223Y-76831974D01*
X122017831Y-76852169D01*
X122038026Y-76876777D01*
X122053034Y-76904857D01*
X122062275Y-76935317D01*
X122066000Y-76973140D01*
X122066000Y-77686860D01*
X122062275Y-77724683D01*
X122053034Y-77755143D01*
X122038026Y-77783223D01*
X122017831Y-77807831D01*
X121993223Y-77828026D01*
X121965143Y-77843034D01*
X121934683Y-77852275D01*
X121896860Y-77856000D01*
X121333140Y-77856000D01*
X121295317Y-77852275D01*
X121264857Y-77843034D01*
X121236777Y-77828026D01*
X121212169Y-77807831D01*
X121191974Y-77783223D01*
X121176966Y-77755143D01*
X121167725Y-77724683D01*
X121164000Y-77686860D01*
X121164000Y-76973140D01*
X121167725Y-76935317D01*
X121176966Y-76904857D01*
X121191974Y-76876777D01*
X121212169Y-76852169D01*
X121236777Y-76831974D01*
X121264857Y-76816966D01*
X121295317Y-76807725D01*
X121333140Y-76804000D01*
X121896860Y-76804000D01*
X121934683Y-76807725D01*
X121934683Y-76807725D01*
G37*
G36*
X120441000Y-77781000D02*
G01*
X119439000Y-77781000D01*
X119439000Y-76879000D01*
X120441000Y-76879000D01*
X120441000Y-77781000D01*
X120441000Y-77781000D01*
G37*
G36*
X126781000Y-76941000D02*
G01*
X124979000Y-76941000D01*
X124979000Y-76189000D01*
X126781000Y-76189000D01*
X126781000Y-76941000D01*
X126781000Y-76941000D01*
G37*
G36*
X134081000Y-76941000D02*
G01*
X132279000Y-76941000D01*
X132279000Y-76189000D01*
X134081000Y-76189000D01*
X134081000Y-76941000D01*
X134081000Y-76941000D01*
G37*
G36*
X137764560Y-75608205D02*
G01*
X137799713Y-75618869D01*
X137832110Y-75636186D01*
X137860509Y-75659491D01*
X137883814Y-75687890D01*
X137901131Y-75720287D01*
X137911795Y-75755440D01*
X137916000Y-75798140D01*
X137916000Y-76411860D01*
X137911795Y-76454560D01*
X137901131Y-76489713D01*
X137883814Y-76522110D01*
X137860509Y-76550509D01*
X137832110Y-76573814D01*
X137799713Y-76591131D01*
X137764560Y-76601795D01*
X137721860Y-76606000D01*
X137058140Y-76606000D01*
X137015440Y-76601795D01*
X136980287Y-76591131D01*
X136947890Y-76573814D01*
X136919491Y-76550509D01*
X136896186Y-76522110D01*
X136878869Y-76489713D01*
X136868205Y-76454560D01*
X136864000Y-76411860D01*
X136864000Y-75798140D01*
X136868205Y-75755440D01*
X136878869Y-75720287D01*
X136896186Y-75687890D01*
X136919491Y-75659491D01*
X136947890Y-75636186D01*
X136980287Y-75618869D01*
X137015440Y-75608205D01*
X137058140Y-75604000D01*
X137721860Y-75604000D01*
X137764560Y-75608205D01*
X137764560Y-75608205D01*
G37*
G36*
X136184683Y-75607725D02*
G01*
X136215143Y-75616966D01*
X136243223Y-75631974D01*
X136267831Y-75652169D01*
X136288026Y-75676777D01*
X136303034Y-75704857D01*
X136312275Y-75735317D01*
X136316000Y-75773140D01*
X136316000Y-76336860D01*
X136312275Y-76374683D01*
X136303034Y-76405143D01*
X136288026Y-76433223D01*
X136267831Y-76457831D01*
X136243223Y-76478026D01*
X136215143Y-76493034D01*
X136184683Y-76502275D01*
X136146860Y-76506000D01*
X135433140Y-76506000D01*
X135395317Y-76502275D01*
X135364857Y-76493034D01*
X135336777Y-76478026D01*
X135312169Y-76457831D01*
X135291974Y-76433223D01*
X135276966Y-76405143D01*
X135267725Y-76374683D01*
X135264000Y-76336860D01*
X135264000Y-75773140D01*
X135267725Y-75735317D01*
X135276966Y-75704857D01*
X135291974Y-75676777D01*
X135312169Y-75652169D01*
X135336777Y-75631974D01*
X135364857Y-75616966D01*
X135395317Y-75607725D01*
X135433140Y-75604000D01*
X136146860Y-75604000D01*
X136184683Y-75607725D01*
X136184683Y-75607725D01*
G37*
G36*
X136154560Y-74098205D02*
G01*
X136189713Y-74108869D01*
X136222110Y-74126186D01*
X136250509Y-74149491D01*
X136273814Y-74177890D01*
X136291131Y-74210287D01*
X136301795Y-74245440D01*
X136306000Y-74288140D01*
X136306000Y-74901860D01*
X136301795Y-74944560D01*
X136291131Y-74979713D01*
X136273814Y-75012110D01*
X136250509Y-75040509D01*
X136222110Y-75063814D01*
X136189713Y-75081131D01*
X136154560Y-75091795D01*
X136111860Y-75096000D01*
X135448140Y-75096000D01*
X135405440Y-75091795D01*
X135370287Y-75081131D01*
X135337890Y-75063814D01*
X135309491Y-75040509D01*
X135286186Y-75012110D01*
X135268869Y-74979713D01*
X135258205Y-74944560D01*
X135254000Y-74901860D01*
X135254000Y-74288140D01*
X135258205Y-74245440D01*
X135268869Y-74210287D01*
X135286186Y-74177890D01*
X135309491Y-74149491D01*
X135337890Y-74126186D01*
X135370287Y-74108869D01*
X135405440Y-74098205D01*
X135448140Y-74094000D01*
X136111860Y-74094000D01*
X136154560Y-74098205D01*
X136154560Y-74098205D01*
G37*
G36*
X136154560Y-72548205D02*
G01*
X136189713Y-72558869D01*
X136222110Y-72576186D01*
X136250509Y-72599491D01*
X136273814Y-72627890D01*
X136291131Y-72660287D01*
X136301795Y-72695440D01*
X136306000Y-72738140D01*
X136306000Y-73351860D01*
X136301795Y-73394560D01*
X136291131Y-73429713D01*
X136273814Y-73462110D01*
X136250509Y-73490509D01*
X136222110Y-73513814D01*
X136189713Y-73531131D01*
X136154560Y-73541795D01*
X136111860Y-73546000D01*
X135448140Y-73546000D01*
X135405440Y-73541795D01*
X135370287Y-73531131D01*
X135337890Y-73513814D01*
X135309491Y-73490509D01*
X135286186Y-73462110D01*
X135268869Y-73429713D01*
X135258205Y-73394560D01*
X135254000Y-73351860D01*
X135254000Y-72738140D01*
X135258205Y-72695440D01*
X135268869Y-72660287D01*
X135286186Y-72627890D01*
X135309491Y-72599491D01*
X135337890Y-72576186D01*
X135370287Y-72558869D01*
X135405440Y-72548205D01*
X135448140Y-72544000D01*
X136111860Y-72544000D01*
X136154560Y-72548205D01*
X136154560Y-72548205D01*
G37*
M02*
